<svg width="50" height="33" viewBox="0 0 50 33" fill="none" xmlns="http://www.w3.org/2000/svg">
<rect width="50" height="20" rx="5" fill="#876CFF"/>
<path d="M17.375 4.49609V14.9961H16.3086V9.61719H14.9609V14.457H13.918V4.70703H14.9609V8.70312H16.3086V4.49609H17.375ZM9.99219 5.73828V11.3398C10.9648 11.334 12.0254 11.2578 13.2148 11.0234L13.332 11.9961C11.8906 12.2539 10.6836 12.3242 9.55859 12.3242H8.87891V5.73828H9.99219ZM25.3555 6.42969C25.3555 7.76562 26.2812 8.98438 27.875 9.48828L27.3477 10.3555C26.1523 9.97461 25.2793 9.18359 24.8164 8.1875C24.3594 9.33594 23.4395 10.2441 22.1797 10.6836L21.6055 9.79297C23.2461 9.25391 24.2305 7.89453 24.2422 6.44141V6.14844H21.9336V5.24609H27.6172V6.14844H25.3555V6.42969ZM29.9375 4.49609V7.09766H31.4609V8.01172H29.9375V10.8008H28.8242V4.49609H29.9375ZM26.5508 11.0586C28.7188 11.0586 30.0312 11.7734 30.0312 13.0039C30.0312 14.2461 28.7188 14.9844 26.5508 14.9727C24.3594 14.9844 23.0234 14.2461 23.0234 13.0039C23.0234 11.7734 24.3594 11.0586 26.5508 11.0586ZM26.5508 11.9375C25.0273 11.9375 24.125 12.3242 24.1367 13.0039C24.125 13.707 25.0273 14.0938 26.5508 14.0938C28.0625 14.0938 28.9414 13.707 28.9414 13.0039C28.9414 12.3242 28.0625 11.9375 26.5508 11.9375ZM41.668 12.7461V13.6602H32.0586V12.7461H36.2656V10.25H37.3672V12.7461H41.668ZM37.3906 5.96094C37.3906 7.625 39.2188 9.18359 41.2461 9.52344L40.7656 10.4375C39.0664 10.0977 37.502 9.04883 36.8047 7.60156C36.1133 9.04297 34.5664 10.1094 32.8789 10.4375L32.3867 9.52344C34.4023 9.18359 36.2188 7.625 36.2188 5.96094V5.16406H37.3906V5.96094Z" fill="white"/>
<circle cx="25" cy="29" r="4" fill="#876CFF"/>
<rect x="24" y="17" width="2" height="11" fill="#876CFF"/>
</svg>
