<svg width="40" height="40" viewBox="0 0 40 40" fill="none" xmlns="http://www.w3.org/2000/svg">
<path fill-rule="evenodd" clip-rule="evenodd" d="M10.1 8.09974C12.7256 5.47409 16.2868 3.99902 20 3.99902C23.7132 3.99902 27.2744 5.47409 29.9 8.09974C32.5256 10.7254 34.0007 14.2865 34.0007 17.9997C34.0007 21.713 32.5256 25.2741 29.9 27.8997L20 37.7997L10.1 27.8997C8.79983 26.5997 7.76847 25.0563 7.06482 23.3576C6.36116 21.659 5.99899 19.8384 5.99899 17.9997C5.99899 16.1611 6.36116 14.3405 7.06482 12.6418C7.76847 10.9432 8.79983 9.39978 10.1 8.09974ZM20 21.9997C21.0609 21.9997 22.0783 21.5783 22.8284 20.8282C23.5786 20.078 24 19.0606 24 17.9997C24 16.9389 23.5786 15.9215 22.8284 15.1713C22.0783 14.4212 21.0609 13.9997 20 13.9997C18.9391 13.9997 17.9217 14.4212 17.1716 15.1713C16.4214 15.9215 16 16.9389 16 17.9997C16 19.0606 16.4214 20.078 17.1716 20.8282C17.9217 21.5783 18.9391 21.9997 20 21.9997Z" fill="#EB6868"/>
</svg>
