<svg width="917" height="458" viewBox="0 0 917 458" fill="none" xmlns="http://www.w3.org/2000/svg">
<rect width="917" height="458" fill="#EBF1E5"/>
<circle cx="133" cy="87" r="81" fill="#4F7942" fill-opacity="0.23"/>
<circle cx="108" cy="217" r="46" fill="#4F7942" fill-opacity="0.23"/>
<circle cx="273" cy="63" r="46" fill="#4F7942" fill-opacity="0.23"/>
<circle cx="279.5" cy="232.5" r="58.5" fill="#4F7942" fill-opacity="0.23"/>
<circle cx="425" cy="404" r="46" fill="#4F7942" fill-opacity="0.23"/>
<circle cx="227" cy="383" r="46" fill="#4F7942" fill-opacity="0.23"/>
<circle cx="467" cy="108" r="21" fill="#4F7942" fill-opacity="0.23"/>
<circle cx="92" cy="367" r="71" fill="#4F7942" fill-opacity="0.23"/>
<circle cx="196.5" cy="290.5" r="24.5" fill="#4F7942" fill-opacity="0.23"/>
<circle cx="436" cy="42" r="36" fill="#4F7942" fill-opacity="0.23"/>
<circle cx="512" cy="374" r="23" fill="#4F7942" fill-opacity="0.23"/>
<circle cx="799" cy="240" r="23" fill="#4F7942" fill-opacity="0.23"/>
<circle cx="881" cy="50" r="23" fill="#4F7942" fill-opacity="0.23"/>
<circle cx="876" cy="174" r="23" fill="#4F7942" fill-opacity="0.23"/>
<circle cx="588.5" cy="405.5" r="38.5" fill="#4F7942" fill-opacity="0.23"/>
<circle cx="649.5" cy="213.5" r="19.5" fill="#4F7942" fill-opacity="0.23"/>
<circle cx="605" cy="167" r="30" fill="#4F7942" fill-opacity="0.23"/>
<circle cx="752.5" cy="128.5" r="83.5" fill="#4F7942" fill-opacity="0.23"/>
<circle cx="852.5" cy="316.5" r="53.5" fill="#4F7942" fill-opacity="0.23"/>
<circle cx="859" cy="412" r="23" fill="#4F7942" fill-opacity="0.23"/>
<circle cx="549.5" cy="72.5" r="55.5" fill="#4F7942" fill-opacity="0.23"/>
<circle cx="705.5" cy="329.5" r="82.5" fill="#4F7942" fill-opacity="0.23"/>
<circle cx="371.5" cy="242.5" r="20.5" fill="#4F7942" fill-opacity="0.23"/>
<circle cx="365" cy="136" r="46" fill="#4F7942" fill-opacity="0.23"/>
<circle cx="488" cy="247" r="88" fill="#4F7942" fill-opacity="0.23"/>
<circle cx="326" cy="337" r="46" fill="#4F7942" fill-opacity="0.23"/>
</svg>
