<svg xmlns="http://www.w3.org/2000/svg" version="1.1" xmlns:xlink="http://www.w3.org/1999/xlink" width="201" height="201"><svg width="201" height="201" viewBox="0 0 201 201" fill="none" xmlns="http://www.w3.org/2000/svg">
<path d="M200.724 100.652C200.724 155.881 155.953 200.652 100.724 200.652C45.4956 200.652 0.724121 155.881 0.724121 100.652C0.724121 45.4239 45.4956 0.652344 100.724 0.652344C155.953 0.652344 200.724 45.4239 200.724 100.652Z" fill="#4F7942"></path>
<path d="M113.777 100.652C111.536 100.652 110.416 100.652 109.561 100.216C108.808 99.8328 108.196 99.2208 107.813 98.4682C107.377 97.6125 107.377 96.4924 107.377 94.2522L107.377 92.8122C107.377 90.572 107.377 89.4519 106.941 88.5963C106.557 87.8436 105.945 87.2317 105.193 86.8482C104.337 86.4122 103.217 86.4122 100.977 86.4122L98.8701 86.4122C96.6299 86.4122 95.5098 86.4122 94.6542 86.8482C93.9015 87.2317 93.2896 87.8436 92.9061 88.5963C92.4701 89.4519 92.4701 90.572 92.4701 92.8122L92.4701 94.2522C92.4701 96.4924 92.4701 97.6125 92.0342 98.4682C91.6507 99.2208 91.0388 99.8328 90.2861 100.216C89.4305 100.652 88.3104 100.652 86.0701 100.652L78.3234 100.652C76.0832 100.652 74.9631 100.652 74.1074 100.216C73.3548 99.8328 72.7429 99.2208 72.3594 98.4682C71.9234 97.6125 71.9234 96.4924 71.9234 94.2522L71.9234 66.2523C71.9234 64.0121 71.9234 62.892 72.3594 62.0363C72.7429 61.2837 73.3548 60.6718 74.1074 60.2883C74.9631 59.8523 76.0832 59.8523 78.3234 59.8523L86.0701 59.8523C88.3103 59.8523 89.4305 59.8523 90.2861 60.2883C91.0387 60.6718 91.6507 61.2837 92.0342 62.0363C92.4701 62.892 92.4701 64.0121 92.4701 66.2523L92.4701 68.1003C92.4701 70.3405 92.4701 71.4606 92.9061 72.3162C93.2896 73.0689 93.9015 73.6808 94.6542 74.0643C95.5098 74.5003 96.6299 74.5003 98.8701 74.5003L100.977 74.5003C103.217 74.5003 104.337 74.5003 105.193 74.0643C105.945 73.6808 106.557 73.0689 106.941 72.3162C107.377 71.4606 107.377 70.3405 107.377 68.1003L107.377 66.2523C107.377 64.0121 107.377 62.892 107.813 62.0363C108.196 61.2837 108.808 60.6718 109.561 60.2883C110.416 59.8523 111.536 59.8523 113.777 59.8523L121.523 59.8523C123.764 59.8523 124.884 59.8523 125.739 60.2883C126.492 60.6718 127.104 61.2837 127.487 62.0363C127.923 62.892 127.923 64.0121 127.923 66.2523L127.923 94.2522C127.923 96.4924 127.923 97.6125 127.487 98.4682C127.104 99.2208 126.492 99.8328 125.739 100.216C124.884 100.652 123.764 100.652 121.523 100.652L113.777 100.652Z" fill="white"></path>
<path d="M139.924 90.652C139.924 91.0234 139.924 91.2092 139.912 91.3658C139.758 93.3273 138.2 94.8853 136.238 95.0397C136.081 95.052 135.896 95.052 135.524 95.052V95.052C135.153 95.052 134.967 95.052 134.81 95.0397C132.849 94.8853 131.291 93.3273 131.137 91.3658C131.124 91.2092 131.124 91.0234 131.124 90.652L131.124 69.8521C131.124 69.4806 131.124 69.2949 131.137 69.1382C131.291 67.1767 132.849 65.6188 134.81 65.4644C134.967 65.4521 135.153 65.4521 135.524 65.4521V65.4521C135.896 65.4521 136.081 65.4521 136.238 65.4644C138.2 65.6188 139.758 67.1767 139.912 69.1382C139.924 69.2949 139.924 69.4806 139.924 69.852L139.924 90.652Z" fill="white"></path>
<path d="M68.7241 90.652C68.7241 91.0234 68.7241 91.2092 68.7118 91.3658C68.5574 93.3273 66.9995 94.8853 65.038 95.0397C64.8813 95.052 64.6956 95.052 64.3241 95.052V95.052C63.9527 95.052 63.767 95.052 63.6103 95.0397C61.6488 94.8853 60.0908 93.3273 59.9365 91.3658C59.9241 91.2092 59.9241 91.0234 59.9241 90.652L59.9241 69.8521C59.9241 69.4806 59.9241 69.2949 59.9365 69.1382C60.0908 67.1767 61.6488 65.6188 63.6103 65.4644C63.767 65.4521 63.9527 65.4521 64.3241 65.4521V65.4521C64.6956 65.4521 64.8813 65.4521 65.038 65.4644C66.9995 65.6188 68.5574 67.1767 68.7118 69.1382C68.7241 69.2949 68.7241 69.4806 68.7241 69.852L68.7241 90.652Z" fill="white"></path>
<path d="M157.587 77.2836C160.736 92.9293 159.076 103.697 155.062 111.63C151.026 119.609 144.392 125.158 136.724 129.966C132.884 132.374 128.873 134.544 124.831 136.758C120.829 138.951 116.794 141.189 113.102 143.658C105.711 148.599 99.2677 154.737 96.8284 164.041L103.019 165.664L103.106 165.345C104.98 158.685 110.236 154.361 117.808 150.556C121.641 148.629 125.882 146.925 130.362 145.116C134.793 143.326 139.437 141.44 143.845 139.207C152.668 134.738 160.982 128.665 165.333 118.464C169.673 108.289 169.795 94.6652 163.774 75.6848L157.587 77.2836ZM149.724 99.4524C149.724 97.6851 148.291 96.2524 146.524 96.2524C144.757 96.2525 143.324 97.6851 143.324 99.4524C143.324 104.027 141.34 107.247 137.944 109.972C134.388 112.823 129.466 114.977 123.907 117.207C118.537 119.363 112.539 121.601 107.645 124.595C102.686 127.628 98.3566 131.728 96.8194 137.876C96.3908 139.591 97.4334 141.328 99.148 141.757C100.862 142.185 102.6 141.143 103.028 139.429C103.991 135.577 106.737 132.652 110.985 130.054C115.297 127.416 120.637 125.417 126.291 123.147C131.758 120.953 137.548 118.494 141.948 114.964C146.508 111.307 149.724 106.378 149.724 99.4524ZM155.561 122.45C154.955 123.21 154.313 123.938 153.637 124.636C154.297 123.931 154.939 123.203 155.561 122.45Z" fill="white"></path>
<path d="M163.847 75.9598C163.482 74.3067 161.88 73.2125 160.192 73.4965C158.449 73.7897 157.274 75.4404 157.567 77.1832L157.689 77.9246C160.183 93.4017 158.25 103.009 154.326 109.577C150.307 116.305 143.881 120.409 136.232 124.271C121.387 131.765 101.721 138.091 96.8839 163.684L96.7721 164.293L96.7475 164.455C96.5362 166.135 97.6775 167.704 99.3632 168.003C101.049 168.303 102.66 167.223 103.04 165.573L103.074 165.412L103.169 164.893C107.286 143.036 123.202 138.018 139.115 129.984C146.966 126.021 154.815 121.237 159.821 112.859C164.859 104.425 166.703 92.9086 163.879 76.1215L163.847 75.9598ZM103.123 138.452C103.123 131.495 105.388 127.73 108.507 125.277C111.887 122.62 116.604 121.212 122.19 119.834C127.498 118.525 133.687 117.232 138.731 114.525C144.039 111.676 148.265 107.188 149.67 99.6375C149.993 97.9001 148.847 96.2295 147.109 95.9063C145.372 95.583 143.701 96.7297 143.378 98.4672C142.383 103.817 139.584 106.804 135.704 108.886C131.56 111.11 126.399 112.204 120.657 113.62C115.193 114.968 109.16 116.623 104.551 120.246C99.6829 124.075 96.7229 129.81 96.7229 138.452C96.7229 140.22 98.1556 141.652 99.9229 141.652C101.69 141.652 103.123 140.22 103.123 138.452Z" fill="white"></path>
<path d="M42.3949 77.2836C39.2464 92.9293 40.9062 103.697 44.9195 111.63C48.9562 119.609 55.5898 125.158 63.2578 129.966C67.0977 132.374 71.1093 134.544 75.1508 136.758C79.1531 138.951 83.1877 141.189 86.8801 143.658C94.2714 148.599 100.714 154.737 103.154 164.041L96.9625 165.664L96.8758 165.345C95.0022 158.685 89.7455 154.361 82.1742 150.556C78.3411 148.629 74.0995 146.925 69.6199 145.116C65.1893 143.326 60.5454 141.44 56.1367 139.207C47.3138 134.738 39.0003 128.665 34.6488 118.464C30.3085 108.289 30.1871 94.6652 36.2078 75.6848L42.3949 77.2836ZM50.2578 99.4524C50.2578 97.6851 51.6905 96.2524 53.4578 96.2524C55.225 96.2525 56.6578 97.6851 56.6578 99.4524C56.6578 104.027 58.6415 107.247 62.0379 109.972C65.5934 112.823 70.5161 114.977 76.0746 117.207C81.4453 119.363 87.4432 121.601 92.3367 124.595C97.2956 127.628 101.625 131.728 103.162 137.876C103.591 139.591 102.549 141.328 100.834 141.757C99.1195 142.185 97.3822 141.143 96.9535 139.429C95.9905 135.577 93.2447 132.652 88.9973 130.054C84.6844 127.416 79.3449 125.417 73.6906 123.147C68.2241 120.953 62.4343 118.494 58.0336 114.964C53.4738 111.307 50.2578 106.378 50.2578 99.4524ZM44.4207 122.45C45.0267 123.21 45.6691 123.938 46.3453 124.636C45.6848 123.931 45.0428 123.203 44.4207 122.45Z" fill="white"></path>
<path d="M36.1343 75.9598C36.4993 74.3067 38.1011 73.2125 39.7894 73.4965C41.5321 73.7897 42.7072 75.4404 42.414 77.1832L42.2921 77.9246C39.7984 93.4017 41.7311 103.009 45.655 109.577C49.6747 116.305 56.1002 120.409 63.7499 124.271C78.5941 131.765 98.2607 138.091 103.098 163.684L103.209 164.293L103.234 164.455C103.445 166.135 102.304 167.704 100.618 168.003C98.9326 168.303 97.3211 167.223 96.9409 165.573L96.9077 165.412L96.8128 164.893C92.695 143.036 76.7796 138.018 60.8659 129.984C53.0156 126.021 45.166 121.237 40.1609 112.859C35.1223 104.425 33.2789 92.9086 36.1027 76.1215L36.1343 75.9598ZM96.8585 138.452C96.8585 131.495 94.5933 127.73 91.4742 125.277C88.0948 122.62 83.3772 121.212 77.7917 119.834C72.4832 118.525 66.2942 117.232 61.2507 114.525C55.9429 111.676 51.7164 107.188 50.3117 99.6375C49.9885 97.9001 51.1348 96.2295 52.8722 95.9063C54.6097 95.583 56.2802 96.7297 56.6035 98.4672C57.5987 103.817 60.3975 106.804 64.2773 108.886C68.4214 111.11 73.5825 112.204 79.3242 113.62C84.7888 114.968 90.8217 116.623 95.43 120.246C100.299 124.075 103.259 129.81 103.259 138.452C103.259 140.22 101.826 141.652 100.059 141.652C98.2912 141.652 96.8585 140.22 96.8585 138.452Z" fill="white"></path>
</svg><style>@media (prefers-color-scheme: light) { :root { filter: none; } }
@media (prefers-color-scheme: dark) { :root { filter: none; } }
</style></svg>