<svg width="20" height="20" viewBox="0 0 20 20" fill="none" xmlns="http://www.w3.org/2000/svg">
<mask id="mask0_842_11836" style="mask-type:luminance" maskUnits="userSpaceOnUse" x="1" y="1" width="18" height="18">
<path d="M19 1H1V19H19V1Z" fill="white"/>
</mask>
<g mask="url(#mask0_842_11836)">
<path d="M18.64 10.2042C18.64 9.56604 18.5828 8.95242 18.4764 8.36328H10V11.8447H14.8436C14.635 12.9697 14.001 13.9228 13.0478 14.561V16.8192H15.9564C17.6582 15.2524 18.64 12.9451 18.64 10.2042Z" fill="#4285F4"/>
<path d="M10.0017 19.0004C12.4317 19.0004 14.469 18.1945 15.958 16.82L13.0494 14.5618C12.2436 15.1018 11.2126 15.4209 10.0017 15.4209C7.6576 15.4209 5.67355 13.8377 4.96579 11.7104H1.95898V14.0423C3.43993 16.9836 6.48355 19.0004 10.0017 19.0004Z" fill="#34A853"/>
<path d="M4.96405 11.7098C4.78405 11.1698 4.68181 10.593 4.68181 9.99982C4.68181 9.40663 4.78405 8.82982 4.96405 8.28982V5.95801H1.95724C1.34776 7.17301 1 8.54758 1 9.99982C1 11.4521 1.34776 12.8266 1.95724 14.0416L4.96405 11.7098Z" fill="#FBBC04"/>
<path d="M10.0017 4.57957C11.323 4.57957 12.5094 5.03362 13.4422 5.92543L16.0236 3.34405C14.4649 1.89181 12.4276 1 10.0017 1C6.48355 1 3.43993 3.01681 1.95898 5.95819L4.96579 8.29C5.67355 6.16276 7.6576 4.57957 10.0017 4.57957Z" fill="#E94235"/>
</g>
</svg>
