<svg width="597" height="480" viewBox="0 0 597 480" fill="none" xmlns="http://www.w3.org/2000/svg">
<path d="M188.667 2.33331C101.867 11.5333 35.7333 43.5333 10.9333 88.3333C8.8 92.3333 5.46667 101 3.86667 107.667C1.06667 118.333 0.8 122.6 0.933333 145.667C1.33333 224.867 20.9333 297 57.3333 352.867C72 375.4 85.4667 390.6 105.733 407.933C108.933 410.6 110.667 413.267 110.667 415.4C110.667 417.133 112.533 422.2 114.8 426.733C120.667 438.6 131.867 448.2 150 457.133C207.867 485.4 304.533 487.667 368.133 462.333C402.667 448.467 418.267 428.333 409.467 409C406.933 403.4 400 395.4 394.133 391.667C392.267 390.333 390.667 388.733 390.667 388.067C390.667 387.4 393.6 383.4 397.2 379.267C400.8 375.133 407.867 365.667 412.933 358.333L422.133 345L431.333 343.933C459.2 341 497.733 324.333 520.933 305.267C558.4 274.733 585.067 232.733 594.8 189C597.6 176.733 597.2 141.8 594.267 131.133C586.533 103.133 567.467 83.8 540.667 77C518.533 71.4 487.333 77 468.933 89.9333C466.8 91.4 465.067 92.4666 464.8 92.2C464.667 91.9333 461.733 87.4 458.267 82.2C434.8 46.3333 380.4 17.8 314 6.46664C280.133 0.599976 222.667 -1.26669 188.667 2.33331ZM266 16.3333C343.867 22.2 399.467 41.9333 432.8 75.5333C473.6 116.867 461.067 168.067 401.2 203.4C357.067 229.533 296.533 242.467 227.333 240.867C159.2 239.133 101.6 223.4 59.2 194.867C26.4 172.733 11.7333 144.6 17.7333 115.4C21.8667 96.4666 32.2667 80.3333 49.4667 66.4666C95.3333 29.8 180.667 10.0666 266 16.3333ZM536.4 91.6666C551.467 95.5333 563.067 104.067 571.467 117.133C587.333 141.933 586.133 181.8 568 221C548.933 262.6 515.333 296.467 474.267 315.667C454.533 324.867 430.4 331.267 432.4 326.733C448.533 289.4 446.933 292.333 452.667 290.867C479.067 284.067 502.267 268.6 521.733 245.267C542.933 219.667 556 185.267 554.267 159.8C553.2 144.733 551.2 139.267 544.8 132.867C538 126.067 530.8 123.8 518.267 124.733C506.8 125.533 492.533 132.2 482.267 141.667C478.267 145.4 474.4 148.333 473.733 148.333C473.067 148.333 472.8 143.133 473.067 136.467C473.333 129.933 472.933 120.6 472.133 115.667C470.267 105.4 469.867 106.067 483.333 98.7333C498.933 90.3333 520.267 87.4 536.4 91.6666ZM534.133 144.733C539.6 150.6 541.067 160.067 538.667 174.733C533.333 208.2 510.267 242.333 479.333 262.733C469.733 269 455.2 275.933 454 274.867C453.733 274.6 454.933 269.4 456.667 263.4C463.067 241.267 469.467 206.867 471.467 183.4L472.267 172.467L483.867 161.267C501.733 143.933 511.333 138.6 523.2 139.533C528.8 139.933 530.533 140.733 534.133 144.733ZM33.7333 193.933C65.2 224.2 122.133 246.067 191.2 254.6C215.6 257.533 265.733 257.533 288.667 254.467C359.2 245.267 414.4 221.4 447.6 185.933L455.867 177L456 182.333C456 199.133 447.067 243.667 438.133 270.333C422.533 316.867 401.333 352.733 372.133 381.8C344.133 409.533 312.8 427.133 278.267 434.2C250.267 440.067 222.8 439.933 194.8 433.8C163.6 427 133.467 411.533 108.667 389.667C70.8 356.333 39.3333 297.933 25.3333 235C22.1333 220.6 17.3333 187.667 17.3333 180.867L17.4667 175.667L21.6 181C23.8667 183.933 29.3333 189.8 33.7333 193.933Z" fill="black"/>
<path d="M206.666 33.8C152 37.4 102 51.6666 71.1998 72.2C60.2665 79.4 45.1998 95.5333 40.7998 104.467C24.7998 137.267 43.1998 171.667 88.6665 193.8C114.666 206.467 148.133 215.267 192.666 221.133C217.333 224.467 270.666 224.467 292.666 221.133C349.066 212.733 396.266 192.867 419.733 167.8C444.266 141.533 444 112.733 419.066 87.4C388.8 56.7333 331.866 38.0666 255.333 33.6666C230.4 32.2 230.533 32.2 206.666 33.8ZM269.6 50.4666C296.266 53.9333 312.533 60.2 320.533 70.0666C324.133 74.6 324.666 76.3333 324.666 83C324.666 89.6666 324.133 91.5333 320.533 95.9333C315.2 102.6 306.4 107.8 287.333 115.533L271.866 121.933L254.933 117.8C236.8 113.533 215.733 109.267 200.666 107C188.533 105.133 183.333 102.467 180.666 96.8666C178.933 93.1333 178.8 91.4 180.133 86.7333C185.333 67.4 198.266 55 217.333 51.1333C233.866 47.8 247.6 47.6666 269.6 50.4666ZM152.8 93.4C159.866 97 164.933 103.133 166.133 109.133C166.666 112.2 168 114.333 169.866 115C171.333 115.667 182.266 117.8 194 119.667C230.266 125.667 258.666 132.333 258.666 134.867C258.666 135.4 256.933 139.933 254.8 145C252.666 150.2 250.533 156.733 250 159.667C248.266 171 248 171.267 244.933 170.6C229.066 167 206.8 162.733 191.866 160.333C169.2 156.733 165.2 157.533 157.733 166.6C144.4 182.867 139.733 185 119.6 184.067C109.6 183.667 105.733 182.867 99.8665 179.933C89.7331 175 82.6665 168.6 77.9998 160.2C74.3998 153.667 73.9998 151.933 73.9998 140.333C73.9998 129.533 74.5331 126.733 77.3331 121.133C84.5331 107 97.9998 96.4666 114.8 91.6666C125.466 88.7333 145.6 89.6666 152.8 93.4ZM370 113.133C379.466 117.667 389.733 127.667 392 134.467C394.533 141.933 393.066 152.333 388.533 159.533C383.6 167.667 370.667 177.533 355.333 185C332.533 196.067 312.4 201 292.533 200.067C281.333 199.667 279.466 199.133 274.533 195.667C264.666 188.733 263.333 185.8 263.333 171.933C263.333 156.867 266.266 149.933 277.2 139C283.733 132.6 287.6 130.333 306.666 121.8C335.733 108.733 337.2 108.333 350.666 108.733C359.866 109.133 363.6 109.933 370 113.133Z" fill="black"/>
<path d="M208 82.8667C208 85.9333 214.133 91.1333 221.067 93.8C227.467 96.3333 231.333 96.8667 244.667 96.8667C259.067 97 261.333 96.6 268 93.5333L275.333 90.0667L258 89.2667C247.867 88.7333 234.267 87 225.333 85C208 81.2667 208 81.2667 208 82.8667Z" fill="black"/>
<path d="M91.3333 140.333C89.4667 143.267 94.8 153.533 100.933 158.867C108.267 165.4 117.467 168.6 126.933 168.067L134 167.667L126.667 163.8C116 158.2 104.133 150.067 97.8667 144.067C94.1333 140.467 92 139.267 91.3333 140.333Z" fill="black"/>
</svg>
