<svg width="251" height="251" viewBox="0 0 251 251" fill="none" xmlns="http://www.w3.org/2000/svg">
<rect x="0.83252" y="0.652344" width="250" height="250" fill="#4F7942"/>
<path d="M225.833 125.652C225.833 180.881 181.061 225.652 125.833 225.652C70.604 225.652 25.8325 180.881 25.8325 125.652C25.8325 70.4239 70.604 25.6523 125.833 25.6523C181.061 25.6523 225.833 70.4239 225.833 125.652Z" fill="#4F7942"/>
<path d="M221.833 125.652C221.833 72.633 178.852 29.6523 125.833 29.6523C72.8132 29.6523 29.8325 72.633 29.8325 125.652C29.8325 178.672 72.8132 221.652 125.833 221.652V225.652C70.604 225.652 25.8325 180.881 25.8325 125.652C25.8325 70.4239 70.604 25.6523 125.833 25.6523C181.061 25.6523 225.833 70.4239 225.833 125.652C225.833 180.881 181.061 225.652 125.833 225.652V221.652C178.852 221.652 221.833 178.672 221.833 125.652Z" fill="white"/>
<path d="M138.885 125.652C136.645 125.652 135.525 125.652 134.669 125.216C133.916 124.833 133.304 124.221 132.921 123.468C132.485 122.613 132.485 121.492 132.485 119.252L132.485 117.812C132.485 115.572 132.485 114.452 132.049 113.596C131.666 112.844 131.054 112.232 130.301 111.848C129.445 111.412 128.325 111.412 126.085 111.412L123.979 111.412C121.738 111.412 120.618 111.412 119.763 111.848C119.01 112.232 118.398 112.844 118.015 113.596C117.579 114.452 117.579 115.572 117.579 117.812L117.579 119.252C117.579 121.492 117.579 122.613 117.143 123.468C116.759 124.221 116.147 124.833 115.395 125.216C114.539 125.652 113.419 125.652 111.179 125.652L103.432 125.652C101.192 125.652 100.071 125.652 99.2158 125.216C98.4632 124.833 97.8513 124.221 97.4678 123.468C97.0318 122.613 97.0318 121.492 97.0318 119.252L97.0318 91.2523C97.0318 89.0121 97.0318 87.892 97.4678 87.0363C97.8513 86.2837 98.4632 85.6718 99.2158 85.2883C100.071 84.8523 101.192 84.8523 103.432 84.8523L111.179 84.8523C113.419 84.8523 114.539 84.8523 115.394 85.2883C116.147 85.6718 116.759 86.2837 117.143 87.0363C117.579 87.892 117.579 89.0121 117.579 91.2523L117.579 93.1003C117.579 95.3405 117.579 96.4606 118.015 97.3162C118.398 98.0689 119.01 98.6808 119.763 99.0643C120.618 99.5003 121.738 99.5003 123.979 99.5003L126.085 99.5003C128.325 99.5003 129.445 99.5003 130.301 99.0643C131.054 98.6808 131.666 98.0689 132.049 97.3162C132.485 96.4606 132.485 95.3405 132.485 93.1003L132.485 91.2523C132.485 89.0121 132.485 87.892 132.921 87.0363C133.304 86.2837 133.916 85.6718 134.669 85.2883C135.525 84.8523 136.645 84.8523 138.885 84.8523L146.632 84.8523C148.872 84.8523 149.992 84.8523 150.848 85.2883C151.6 85.6718 152.212 86.2837 152.596 87.0363C153.032 87.892 153.032 89.0121 153.032 91.2523L153.032 119.252C153.032 121.492 153.032 122.613 152.596 123.468C152.212 124.221 151.6 124.833 150.848 125.216C149.992 125.652 148.872 125.652 146.632 125.652L138.885 125.652Z" fill="white"/>
<path d="M165.033 115.652C165.033 116.023 165.033 116.209 165.02 116.366C164.866 118.327 163.308 119.885 161.347 120.04C161.19 120.052 161.004 120.052 160.633 120.052V120.052C160.261 120.052 160.076 120.052 159.919 120.04C157.957 119.885 156.399 118.327 156.245 116.366C156.233 116.209 156.233 116.023 156.233 115.652L156.233 94.8521C156.233 94.4806 156.233 94.2949 156.245 94.1382C156.399 92.1767 157.957 90.6188 159.919 90.4644C160.076 90.4521 160.261 90.4521 160.633 90.4521V90.4521C161.004 90.4521 161.19 90.4521 161.347 90.4644C163.308 90.6188 164.866 92.1767 165.02 94.1382C165.033 94.2949 165.033 94.4806 165.033 94.852L165.033 115.652Z" fill="white"/>
<path d="M93.8325 115.652C93.8325 116.023 93.8325 116.209 93.8202 116.366C93.6658 118.327 92.1079 119.885 90.1464 120.04C89.9897 120.052 89.804 120.052 89.4325 120.052V120.052C89.0611 120.052 88.8754 120.052 88.7187 120.04C86.7572 119.885 85.1992 118.327 85.0449 116.366C85.0325 116.209 85.0325 116.023 85.0325 115.652L85.0325 94.8521C85.0325 94.4806 85.0325 94.2949 85.0449 94.1382C85.1992 92.1767 86.7572 90.6188 88.7187 90.4644C88.8754 90.4521 89.0611 90.4521 89.4325 90.4521V90.4521C89.804 90.4521 89.9897 90.4521 90.1464 90.4644C92.1079 90.6188 93.6658 92.1767 93.8202 94.1382C93.8325 94.2949 93.8325 94.4806 93.8325 94.852L93.8325 115.652Z" fill="white"/>
<path d="M182.695 102.284C185.844 117.929 184.184 128.697 180.171 136.63C176.134 144.609 169.5 150.158 161.832 154.966C157.992 157.374 153.981 159.544 149.939 161.758C145.937 163.951 141.902 166.189 138.21 168.658C130.819 173.599 124.376 179.737 121.937 189.041L128.128 190.664L128.214 190.345C130.088 183.685 135.345 179.361 142.916 175.556C146.749 173.629 150.991 171.925 155.47 170.116C159.901 168.326 164.545 166.44 168.953 164.207C177.776 159.738 186.09 153.665 190.441 143.464C194.782 133.289 194.903 119.665 188.882 100.685L182.695 102.284ZM174.832 124.452C174.832 122.685 173.4 121.252 171.632 121.252C169.865 121.252 168.432 122.685 168.432 124.452C168.432 129.027 166.449 132.247 163.052 134.972C159.497 137.823 154.574 139.977 149.015 142.207C143.645 144.363 137.647 146.601 132.753 149.595C127.794 152.628 123.465 156.728 121.928 162.876C121.499 164.591 122.542 166.328 124.256 166.757C125.971 167.185 127.708 166.143 128.137 164.429C129.1 160.577 131.845 157.652 136.093 155.054C140.406 152.416 145.745 150.417 151.399 148.147C156.866 145.953 162.656 143.494 167.056 139.964C171.616 136.307 174.832 131.378 174.832 124.452ZM180.669 147.45C180.063 148.21 179.421 148.938 178.745 149.636C179.405 148.931 180.047 148.203 180.669 147.45Z" fill="white"/>
<path d="M188.956 100.96C188.591 99.3067 186.989 98.2125 185.3 98.4965C183.558 98.7897 182.383 100.44 182.676 102.183L182.798 102.925C185.291 118.402 183.359 128.009 179.435 134.577C175.415 141.305 168.99 145.409 161.34 149.271C146.496 156.765 126.829 163.091 121.992 188.684L121.881 189.293L121.856 189.455C121.645 191.135 122.786 192.704 124.472 193.003C126.157 193.303 127.769 192.223 128.149 190.573L128.182 190.412L128.277 189.893C132.395 168.036 148.31 163.018 164.224 154.984C172.074 151.021 179.924 146.237 184.929 137.859C189.968 129.425 191.811 117.909 188.987 101.121L188.956 100.96ZM128.231 163.452C128.231 156.495 130.497 152.73 133.616 150.277C136.995 147.62 141.713 146.212 147.298 144.834C152.607 143.525 158.796 142.232 163.839 139.525C169.147 136.676 173.373 132.188 174.778 124.638C175.101 122.9 173.955 121.23 172.218 120.906C170.48 120.583 168.81 121.73 168.486 123.467C167.491 128.817 164.692 131.804 160.813 133.886C156.668 136.11 151.507 137.204 145.766 138.62C140.301 139.968 134.268 141.623 129.66 145.246C124.791 149.075 121.831 154.81 121.831 163.452C121.831 165.22 123.264 166.652 125.031 166.652C126.799 166.652 128.231 165.22 128.231 163.452Z" fill="white"/>
<path d="M67.5031 102.284C64.3545 117.929 66.0144 128.697 70.0277 136.63C74.0644 144.609 80.6979 150.158 88.366 154.966C92.2059 157.374 96.2174 159.544 100.259 161.758C104.261 163.951 108.296 166.189 111.988 168.658C119.38 173.599 125.822 179.737 128.262 189.041L122.071 190.664L121.984 190.345C120.11 183.685 114.854 179.361 107.282 175.556C103.449 173.629 99.2076 171.925 94.7281 170.116C90.2975 168.326 85.6535 166.44 81.2449 164.207C72.422 159.738 64.1085 153.665 59.757 143.464C55.4167 133.289 55.2953 119.665 61.316 100.685L67.5031 102.284ZM75.366 124.452C75.366 122.685 76.7987 121.252 78.566 121.252C80.3332 121.252 81.766 122.685 81.766 124.452C81.766 129.027 83.7496 132.247 87.146 134.972C90.7016 137.823 95.6243 139.977 101.183 142.207C106.553 144.363 112.551 146.601 117.445 149.595C122.404 152.628 126.734 156.728 128.271 162.876C128.699 164.591 127.657 166.328 125.942 166.757C124.228 167.185 122.49 166.143 122.062 164.429C121.099 160.577 118.353 157.652 114.105 155.054C109.793 152.416 104.453 150.417 98.7988 148.147C93.3323 145.953 87.5424 143.494 83.1417 139.964C78.5819 136.307 75.366 131.378 75.366 124.452ZM69.5289 147.45C70.1349 148.21 70.7773 148.938 71.4535 149.636C70.793 148.931 70.151 148.203 69.5289 147.45Z" fill="white"/>
<path d="M61.2427 100.96C61.6077 99.3067 63.2095 98.2125 64.8978 98.4965C66.6405 98.7897 67.8155 100.44 67.5224 102.183L67.4005 102.925C64.9068 118.402 66.8395 128.009 70.7634 134.577C74.7831 141.305 81.2086 145.409 88.8583 149.271C103.703 156.765 123.369 163.091 128.206 188.684L128.318 189.293L128.342 189.455C128.554 191.135 127.412 192.704 125.727 193.003C124.041 193.303 122.429 192.223 122.049 190.573L122.016 190.412L121.921 189.893C117.803 168.036 101.888 163.018 85.9743 154.984C78.124 151.021 70.2744 146.237 65.2693 137.859C60.2307 129.425 58.3873 117.909 61.2111 101.121L61.2427 100.96ZM121.967 163.452C121.967 156.495 119.702 152.73 116.583 150.277C113.203 147.62 108.486 146.212 102.9 144.834C97.5916 143.525 91.4026 142.232 86.3591 139.525C81.0513 136.676 76.8248 132.188 75.4201 124.638C75.0969 122.9 76.2432 121.23 77.9806 120.906C79.7181 120.583 81.3886 121.73 81.7118 123.467C82.7071 128.817 85.5059 131.804 89.3857 133.886C93.5298 136.11 98.6909 137.204 104.433 138.62C109.897 139.968 115.93 141.623 120.538 145.246C125.407 149.075 128.367 154.81 128.367 163.452C128.367 165.22 126.934 166.652 125.167 166.652C123.4 166.652 121.967 165.22 121.967 163.452Z" fill="white"/>
</svg>
