<svg width="200" height="200" viewBox="0 0 200 200" fill="none" xmlns="http://www.w3.org/2000/svg">
<path d="M200 100C200 155.228 155.228 200 100 200C44.7715 200 0 155.228 0 100C0 44.7715 44.7715 0 100 0C155.228 0 200 44.7715 200 100Z" fill="#4F7942"/>
<path d="M113.052 100C110.812 100 109.692 100 108.837 99.564C108.084 99.1805 107.472 98.5686 107.088 97.816C106.652 96.9603 106.652 95.8402 106.652 93.6L106.652 92.16C106.652 89.9198 106.652 88.7997 106.217 87.9441C105.833 87.1914 105.221 86.5795 104.468 86.196C103.613 85.76 102.493 85.76 100.252 85.76L98.146 85.76C95.9058 85.76 94.7857 85.76 93.9301 86.196C93.1774 86.5795 92.5655 87.1914 92.182 87.9441C91.746 88.7997 91.746 89.9198 91.746 92.16L91.746 93.6C91.746 95.8402 91.746 96.9603 91.31 97.816C90.9266 98.5686 90.3146 99.1805 89.562 99.564C88.7063 100 87.5862 100 85.346 100L77.5993 100C75.3591 100 74.239 100 73.3833 99.564C72.6307 99.1805 72.0187 98.5686 71.6352 97.816C71.1993 96.9603 71.1993 95.8402 71.1993 93.6L71.1993 65.6001C71.1993 63.3599 71.1993 62.2398 71.6352 61.3841C72.0187 60.6315 72.6307 60.0195 73.3833 59.6361C74.239 59.2001 75.3591 59.2001 77.5993 59.2001L85.346 59.2001C87.5862 59.2001 88.7063 59.2001 89.562 59.6361C90.3146 60.0195 90.9265 60.6315 91.31 61.3841C91.746 62.2398 91.746 63.3599 91.746 65.6001L91.746 67.4481C91.746 69.6883 91.746 70.8084 92.182 71.664C92.5655 72.4167 93.1774 73.0286 93.9301 73.4121C94.7857 73.8481 95.9058 73.8481 98.146 73.8481L100.252 73.8481C102.493 73.8481 103.613 73.8481 104.468 73.4121C105.221 73.0286 105.833 72.4167 106.217 71.664C106.652 70.8084 106.652 69.6883 106.652 67.4481L106.652 65.6001C106.652 63.3599 106.652 62.2398 107.088 61.3841C107.472 60.6315 108.084 60.0195 108.837 59.636C109.692 59.2001 110.812 59.2001 113.052 59.2001L120.799 59.2001C123.039 59.2001 124.16 59.2001 125.015 59.636C125.768 60.0195 126.38 60.6315 126.763 61.3841C127.199 62.2398 127.199 63.3599 127.199 65.6001L127.199 93.6C127.199 95.8402 127.199 96.9603 126.763 97.816C126.38 98.5686 125.768 99.1805 125.015 99.564C124.16 100 123.039 100 120.799 100L113.052 100Z" fill="white"/>
<path d="M139.2 89.9998C139.2 90.3712 139.2 90.5569 139.188 90.7136C139.033 92.6751 137.476 94.2331 135.514 94.3874C135.357 94.3998 135.172 94.3998 134.8 94.3998C134.429 94.3998 134.243 94.3998 134.086 94.3874C132.125 94.2331 130.567 92.6751 130.413 90.7136C130.4 90.5569 130.4 90.3712 130.4 89.9998L130.4 69.1998C130.4 68.8284 130.4 68.6427 130.413 68.486C130.567 66.5245 132.125 64.9665 134.086 64.8121C134.243 64.7998 134.429 64.7998 134.8 64.7998C135.172 64.7998 135.357 64.7998 135.514 64.8121C137.476 64.9665 139.033 66.5245 139.188 68.486C139.2 68.6427 139.2 68.8284 139.2 69.1998L139.2 89.9998Z" fill="white"/>
<path d="M68 89.9998C68 90.3712 68 90.5569 67.9877 90.7136C67.8333 92.6751 66.2753 94.2331 64.3138 94.3874C64.1572 94.3998 63.9714 94.3998 63.6 94.3998C63.2286 94.3998 63.0429 94.3998 62.8862 94.3874C60.9247 94.2331 59.3667 92.6751 59.2123 90.7136C59.2 90.5569 59.2 90.3712 59.2 89.9998L59.2 69.1998C59.2 68.8284 59.2 68.6427 59.2123 68.486C59.3667 66.5245 60.9247 64.9665 62.8862 64.8121C63.0429 64.7998 63.2286 64.7998 63.6 64.7998C63.9714 64.7998 64.1572 64.7998 64.3138 64.8121C66.2753 64.9665 67.8333 66.5245 67.9877 68.486C68 68.6427 68 68.8284 68 69.1998L68 89.9998Z" fill="white"/>
<path d="M156.863 76.6313C160.011 92.2769 158.351 103.044 154.338 110.977C150.301 118.956 143.668 124.506 136 129.314C132.16 131.721 128.148 133.892 124.107 136.106C120.104 138.299 116.07 140.537 112.377 143.005C104.986 147.947 98.5434 154.085 96.1041 163.388L102.295 165.012L102.382 164.693C104.255 158.032 109.512 153.708 117.083 149.903C120.916 147.977 125.158 146.273 129.638 144.463C134.068 142.674 138.712 140.788 143.121 138.555C151.944 134.085 160.257 128.013 164.609 117.812C168.949 107.637 169.07 94.0128 163.05 75.0324L156.863 76.6313ZM149 98.8C149 97.0327 147.567 95.6 145.8 95.6C144.033 95.6001 142.6 97.0328 142.6 98.8C142.6 103.375 140.616 106.595 137.22 109.319C133.664 112.171 128.741 114.324 123.183 116.555C117.812 118.711 111.814 120.949 106.921 123.942C101.962 126.975 97.6322 131.076 96.0951 137.224C95.6664 138.938 96.7091 140.676 98.4236 141.104C100.138 141.533 101.875 140.491 102.304 138.776C103.267 134.924 106.013 132 110.26 129.402C114.573 126.764 119.913 124.764 125.567 122.495C131.033 120.301 136.823 117.842 141.224 114.312C145.784 110.655 149 105.725 149 98.8ZM154.837 121.798C154.231 122.558 153.588 123.285 152.912 123.984C153.573 123.279 154.215 122.55 154.837 121.798Z" fill="white"/>
<path d="M163.123 75.3074C162.758 73.6543 161.156 72.5602 159.468 72.8441C157.725 73.1374 156.55 74.7881 156.843 76.5309L156.965 77.2723C159.459 92.7494 157.526 102.357 153.602 108.925C149.583 115.653 143.157 119.757 135.507 123.618C120.663 131.112 100.997 137.438 96.1597 163.032L96.048 163.64L96.0234 163.803C95.812 165.483 96.9534 167.051 98.639 167.351C100.325 167.65 101.936 166.571 102.316 164.921L102.35 164.76L102.444 164.24C106.562 142.383 122.478 137.365 138.391 129.332C146.242 125.369 154.091 120.584 159.096 112.207C164.135 103.773 165.978 92.2563 163.155 75.4691L163.123 75.3074ZM102.399 137.8C102.399 130.842 104.664 127.077 107.783 124.625C111.163 121.967 115.88 120.559 121.466 119.182C126.774 117.873 132.963 116.58 138.007 113.873C143.314 111.024 147.541 106.536 148.946 98.9852C149.269 97.2477 148.123 95.5772 146.385 95.2539C144.648 94.9307 142.977 96.0774 142.654 97.8148C141.659 103.164 138.86 106.151 134.98 108.234C130.836 110.458 125.675 111.552 119.933 112.968C114.468 114.316 108.436 115.97 103.827 119.594C98.9587 123.423 95.9988 129.158 95.9988 137.8C95.9988 139.567 97.4315 141 99.1988 141C100.966 141 102.399 139.567 102.399 137.8Z" fill="white"/>
<path d="M41.6706 76.6313C38.522 92.2769 40.1819 103.044 44.1952 110.977C48.2318 118.956 54.8654 124.506 62.5334 129.314C66.3734 131.721 70.3849 133.892 74.4264 136.106C78.4288 138.299 82.4634 140.537 86.1557 143.005C93.547 147.947 99.9898 154.085 102.429 163.388L96.2381 165.012L96.1514 164.693C94.2778 158.032 89.0212 153.708 81.4499 149.903C77.6167 147.977 73.3751 146.273 68.8956 144.463C64.4649 142.674 59.821 140.788 55.4124 138.555C46.5895 134.085 38.276 128.013 33.9245 117.812C29.5842 107.637 29.4627 94.0128 35.4834 75.0324L41.6706 76.6313ZM49.5334 98.8C49.5334 97.0327 50.9661 95.6 52.7334 95.6C54.5007 95.6001 55.9334 97.0328 55.9334 98.8C55.9334 103.375 57.9171 106.595 61.3135 109.319C64.8691 112.171 69.7917 114.324 75.3502 116.555C80.721 118.711 86.7188 120.949 91.6123 123.942C96.5712 126.975 100.901 131.076 102.438 137.224C102.867 138.938 101.824 140.676 100.11 141.104C98.3951 141.533 96.6578 140.491 96.2291 138.776C95.2661 134.924 92.5204 132 88.2729 129.402C83.9601 126.764 78.6205 124.764 72.9663 122.495C67.4998 120.301 61.7099 117.842 57.3092 114.312C52.7494 110.655 49.5334 105.725 49.5334 98.8ZM43.6963 121.798C44.3024 122.558 44.9448 123.285 45.6209 123.984C44.9604 123.279 44.3184 122.55 43.6963 121.798Z" fill="white"/>
<path d="M35.4102 75.3074C35.7752 73.6543 37.3769 72.5602 39.0653 72.8441C40.808 73.1374 41.983 74.7881 41.6899 76.5309L41.568 77.2723C39.0743 92.7494 41.007 102.357 44.9309 108.925C48.9506 115.653 55.3761 119.757 63.0258 123.618C77.87 131.112 97.5366 137.438 102.373 163.032L102.485 163.64L102.51 163.803C102.721 165.483 101.58 167.051 99.8942 167.351C98.2085 167.65 96.597 166.571 96.2168 164.921L96.1836 164.76L96.0887 164.24C91.9709 142.383 76.0555 137.365 60.1418 129.332C52.2915 125.369 44.4419 120.584 39.4368 112.207C34.3982 103.773 32.5548 92.2563 35.3785 75.4691L35.4102 75.3074ZM96.1344 137.8C96.1344 130.842 93.8692 127.077 90.75 124.625C87.3707 121.967 82.6531 120.559 77.0676 119.182C71.7591 117.873 65.5701 116.58 60.5266 113.873C55.2187 111.024 50.9923 106.536 49.5875 98.9852C49.2644 97.2477 50.4106 95.5772 52.1481 95.2539C53.8856 94.9307 55.5561 96.0774 55.8793 97.8148C56.8746 103.164 59.6734 106.151 63.5532 108.234C67.6973 110.458 72.8584 111.552 78.6 112.968C84.0647 114.316 90.0976 115.97 94.7059 119.594C99.5745 123.423 102.534 129.158 102.534 137.8C102.534 139.567 101.102 141 99.3344 141C97.5671 141 96.1344 139.567 96.1344 137.8Z" fill="white"/>
</svg>
