<svg width="130" height="130" viewBox="0 0 130 130" fill="none" xmlns="http://www.w3.org/2000/svg">
<circle cx="65" cy="65" r="65" fill="#9DB297"/>
<path fill-rule="evenodd" clip-rule="evenodd" d="M50 46.25C50 42.2718 51.5804 38.4564 54.3934 35.6434C57.2064 32.8304 61.0218 31.25 65 31.25C68.9782 31.25 72.7936 32.8304 75.6066 35.6434C78.4196 38.4564 80 42.2718 80 46.25C80 50.2282 78.4196 54.0436 75.6066 56.8566C72.7936 59.6696 68.9782 61.25 65 61.25C61.0218 61.25 57.2064 59.6696 54.3934 56.8566C51.5804 54.0436 50 50.2282 50 46.25ZM50 68.75C45.0272 68.75 40.2581 70.7254 36.7417 74.2417C33.2254 77.7581 31.25 82.5272 31.25 87.5C31.25 90.4837 32.4353 93.3452 34.545 95.455C36.6548 97.5647 39.5163 98.75 42.5 98.75H87.5C90.4837 98.75 93.3452 97.5647 95.455 95.455C97.5647 93.3452 98.75 90.4837 98.75 87.5C98.75 82.5272 96.7746 77.7581 93.2583 74.2417C89.7419 70.7254 84.9728 68.75 80 68.75H50Z" fill="#EBF1E5"/>
</svg>
