<svg width="128" height="128" viewBox="0 0 128 128" fill="none" xmlns="http://www.w3.org/2000/svg">
<path d="M64 124C97.1371 124 124 97.1371 124 64C124 30.8629 97.1371 4 64 4C30.8629 4 4 30.8629 4 64C4 97.1371 30.8629 124 64 124Z" fill="#E53935"/>
<path d="M64 124C97.1371 124 124 97.1371 124 64C124 30.8629 97.1371 4 64 4C30.8629 4 4 30.8629 4 64C4 97.1371 30.8629 124 64 124Z" fill="#E53935"/>
<path d="M54 73C58 71.6667 70 71.6667 74 73H54Z" fill="#212121"/>
<path d="M54 73C58 71.6667 70 71.6667 74 73" stroke="#212121" stroke-width="4" stroke-linecap="round"/>
<path d="M54 73C54.5 94 74 94 74 73H54Z" fill="#212121"/>
<path d="M54 73C54.5 94 74 94 74 73" stroke="#212121" stroke-width="4" stroke-linecap="round"/>
<path d="M42 70C47.5228 70 52 65.5228 52 60C52 54.4772 47.5228 50 42 50C36.4772 50 32 54.4772 32 60C32 65.5228 36.4772 70 42 70Z" fill="#212121"/>
<path d="M86 70C91.5228 70 96 65.5228 96 60C96 54.4772 91.5228 50 86 50C80.4772 50 76 54.4772 76 60C76 65.5228 80.4772 70 86 70Z" fill="#212121"/>
<circle cx="45.5" cy="54.5" r="3.5" fill="white"/>
<circle cx="89.5" cy="54.5" r="3.5" fill="white"/>
<path d="M52 40L55.9504 46.4071" stroke="black" stroke-width="3" stroke-linecap="round"/>
<path d="M75.9502 40L71.9997 46.4071" stroke="black" stroke-width="3" stroke-linecap="round"/>
</svg>
