<svg width="18" height="18" viewBox="0 0 18 18" fill="none" xmlns="http://www.w3.org/2000/svg">
<path d="M4.71981 3.21975C4.86046 3.07915 5.05119 3.00016 5.25006 3.00016C5.44893 3.00016 5.63967 3.07915 5.78031 3.21975L8.78031 6.21975C8.91693 6.3612 8.99253 6.55065 8.99082 6.7473C8.98911 6.94395 8.91023 7.13206 8.77118 7.27111C8.63212 7.41017 8.44401 7.48905 8.24736 7.49076C8.05071 7.49246 7.86126 7.41687 7.71981 7.28025L6.00006 5.5605V14.25C6.00006 14.4489 5.92104 14.6397 5.78039 14.7803C5.63974 14.921 5.44897 15 5.25006 15C5.05115 15 4.86038 14.921 4.71973 14.7803C4.57908 14.6397 4.50006 14.4489 4.50006 14.25V5.5605L2.78031 7.28025C2.63886 7.41687 2.44941 7.49246 2.25276 7.49076C2.05611 7.48905 1.868 7.41017 1.72895 7.27111C1.58989 7.13206 1.51101 6.94395 1.50931 6.7473C1.5076 6.55065 1.58319 6.3612 1.71981 6.21975L4.71981 3.21975ZM12.0001 12.4395V3.75C12.0001 3.55109 12.0791 3.36032 12.2197 3.21967C12.3604 3.07902 12.5511 3 12.7501 3C12.949 3 13.1397 3.07902 13.2804 3.21967C13.421 3.36032 13.5001 3.55109 13.5001 3.75V12.4395L15.2198 10.7198C15.3613 10.5831 15.5507 10.5075 15.7474 10.5092C15.944 10.511 16.1321 10.5898 16.2712 10.7289C16.4102 10.8679 16.4891 11.0561 16.4908 11.2527C16.4925 11.4493 16.4169 11.6388 16.2803 11.7802L13.2803 14.7803C13.1397 14.9209 12.9489 14.9998 12.7501 14.9998C12.5512 14.9998 12.3605 14.9209 12.2198 14.7803L9.21981 11.7802C9.08319 11.6388 9.0076 11.4493 9.00931 11.2527C9.01101 11.0561 9.08989 10.8679 9.22895 10.7289C9.368 10.5898 9.55611 10.511 9.75276 10.5092C9.94941 10.5075 10.1389 10.5831 10.2803 10.7198L12.0001 12.4395Z" fill="#212121"/>
</svg>
