<svg width="28" height="28" viewBox="0 0 28 28" fill="currentColor" xmlns="http://www.w3.org/2000/svg">
<path d="M10.2085 4.66675H7.29183C6.48641 4.66675 5.8335 5.2637 5.8335 6.00008V22.0001C5.8335 22.7365 6.48641 23.3334 7.29183 23.3334H10.2085C11.0139 23.3334 11.6668 22.7365 11.6668 22.0001V6.00008C11.6668 5.2637 11.0139 4.66675 10.2085 4.66675Z"/>
<path d="M20.7085 4.66675H17.7918C16.9864 4.66675 16.3335 5.2637 16.3335 6.00008V22.0001C16.3335 22.7365 16.9864 23.3334 17.7918 23.3334H20.7085C21.5139 23.3334 22.1668 22.7365 22.1668 22.0001V6.00008C22.1668 5.2637 21.5139 4.66675 20.7085 4.66675Z"/>
</svg>
