<svg width="24" height="24" viewBox="0 0 24 24" fill="none" xmlns="http://www.w3.org/2000/svg">
<rect x="7" y="7" width="10" height="10" fill="white"/>
<g clip-path="url(#clip0_1489_2534)">
<path d="M16.8001 3.68524C18.248 4.52128 19.4525 5.72098 20.2943 7.16559C21.1362 8.6102 21.5861 10.2496 21.5996 11.9216C21.6131 13.5935 21.1897 15.24 20.3713 16.698C19.553 18.156 18.368 19.375 16.9338 20.2343C15.4995 21.0936 13.8657 21.5635 12.194 21.5973C10.5224 21.6311 8.87091 21.2278 7.40306 20.4272C5.9352 19.6266 4.70189 18.4566 3.8252 17.0329C2.94851 15.6091 2.45886 13.9811 2.4047 12.31L2.3999 11.999L2.4047 11.6879C2.45847 10.03 2.94091 8.41425 3.80501 6.99826C4.66911 5.58226 5.88537 4.41433 7.33522 3.60833C8.78507 2.80233 10.419 2.38576 12.0778 2.39924C13.7366 2.41272 15.3635 2.85579 16.8001 3.68524ZM10.5706 9.25334C10.3694 9.13361 10.1315 9.09149 9.90144 9.1349C9.67142 9.17832 9.46519 9.30429 9.32154 9.4891C9.17788 9.67392 9.1067 9.90486 9.12139 10.1385C9.13607 10.3721 9.2356 10.5923 9.40127 10.7577L10.6416 11.999L9.40127 13.2403L9.32159 13.3305C9.17239 13.5235 9.10223 13.766 9.12536 14.0088C9.14849 14.2516 9.26318 14.4765 9.44612 14.6378C9.62907 14.7992 9.86655 14.8848 10.1103 14.8773C10.3541 14.8699 10.586 14.7699 10.7587 14.5978L12 13.3574L13.2413 14.5978L13.3316 14.6774C13.5245 14.8266 13.767 14.8968 14.0098 14.8737C14.2526 14.8505 14.4775 14.7358 14.6389 14.5529C14.8002 14.37 14.8858 14.1325 14.8784 13.8887C14.8709 13.6449 14.7709 13.4131 14.5988 13.2403L13.3584 11.999L14.5988 10.7577L14.6785 10.6674C14.8276 10.4745 14.8978 10.232 14.8747 9.98917C14.8515 9.74636 14.7369 9.52146 14.5539 9.36014C14.371 9.19883 14.1335 9.1132 13.8897 9.12064C13.6459 9.12809 13.4141 9.22805 13.2413 9.40022L12 10.6406L10.7587 9.40022L10.6685 9.32054L10.5706 9.25334Z" fill="#212121"/>
</g>
<defs>
<clipPath id="clip0_1489_2534">
<rect width="24" height="24" fill="white"/>
</clipPath>
</defs>
</svg>
