<svg width="29" height="28" viewBox="0 0 29 28" fill="currentColor" stroke="currentColor" xmlns="http://www.w3.org/2000/svg">
<path d="M14.9167 4.75086C12.8408 4.75096 10.8115 5.36638 9.08523 6.51938C7.35898 7.67238 6.01323 9.31119 5.21804 11.2287C4.42286 13.1463 4.21391 15.2565 4.61761 17.2928C5.02131 19.3291 6.01954 21.2 7.48616 22.6691C7.56961 22.7499 7.63613 22.8466 7.68183 22.9534C7.72753 23.0602 7.7515 23.1751 7.75234 23.2913C7.75318 23.4074 7.73088 23.5226 7.68673 23.6301C7.64258 23.7375 7.57748 23.8351 7.49521 23.9172C7.41294 23.9992 7.31515 24.0641 7.20756 24.1079C7.09997 24.1517 6.98472 24.1737 6.86855 24.1725C6.75237 24.1714 6.63759 24.1471 6.53091 24.1011C6.42422 24.0551 6.32776 23.9883 6.24716 23.9046C4.53608 22.1906 3.37147 20.0078 2.9005 17.6321C2.42954 15.2564 2.67336 12.7944 3.60115 10.5573C4.52895 8.3201 6.09907 6.40815 8.11312 5.06304C10.1272 3.71792 12.4947 3 14.9167 3C17.3386 3 19.7062 3.71792 21.7202 5.06304C23.7343 6.40815 25.3044 8.3201 26.2322 10.5573C27.16 12.7944 27.4038 15.2564 26.9328 17.6321C26.4619 20.0078 25.2972 22.1906 23.5862 23.9046C23.5056 23.9883 23.4091 24.0551 23.3024 24.1011C23.1957 24.1471 23.081 24.1714 22.9648 24.1725C22.8486 24.1737 22.7334 24.1517 22.6258 24.1079C22.5182 24.0641 22.4204 23.9992 22.3381 23.9172C22.2558 23.8351 22.1907 23.7375 22.1466 23.6301C22.1024 23.5226 22.0801 23.4074 22.081 23.2913C22.0818 23.1751 22.1058 23.0602 22.1515 22.9534C22.1972 22.8466 22.2637 22.7499 22.3472 22.6691C23.8138 21.2 24.812 19.3291 25.2157 17.2928C25.6194 15.2565 25.4105 13.1463 24.6153 11.2287C23.8201 9.31119 22.4743 7.67238 20.7481 6.51938C19.0218 5.36638 16.9926 4.75096 14.9167 4.75086ZM14.9167 9.12586C13.7052 9.12577 12.5209 9.48495 11.5136 10.158C10.5062 10.831 9.72111 11.7876 9.25748 12.9069C8.79386 14.0261 8.67256 15.2577 8.90893 16.4459C9.14531 17.6341 9.72873 18.7255 10.5854 19.5821C10.669 19.6628 10.7356 19.7594 10.7815 19.8661C10.8274 19.9729 10.8515 20.0877 10.8525 20.2039C10.8535 20.3201 10.8314 20.4353 10.7874 20.5428C10.7434 20.6504 10.6784 20.748 10.5963 20.8302C10.5141 20.9124 10.4164 20.9773 10.3089 21.0213C10.2013 21.0653 10.0861 21.0875 9.96994 21.0865C9.85375 21.0854 9.73894 21.0613 9.63218 21.0154C9.52543 20.9696 9.42888 20.9029 9.34816 20.8194C8.24683 19.718 7.49682 18.3148 7.19297 16.7872C6.88912 15.2596 7.04508 13.6762 7.64112 12.2373C8.23716 10.7983 9.24652 9.56841 10.5416 8.7031C11.8366 7.83779 13.3591 7.37593 14.9167 7.37593C16.4742 7.37593 17.9967 7.83779 19.2918 8.7031C20.5868 9.56841 21.5962 10.7983 22.1922 12.2373C22.7882 13.6762 22.9442 15.2596 22.6404 16.7872C22.3365 18.3148 21.5865 19.718 20.4852 20.8194C20.3201 20.9787 20.0991 21.0669 19.8697 21.0649C19.6403 21.063 19.4208 20.9709 19.2586 20.8087C19.0963 20.6465 19.0043 20.427 19.0023 20.1976C19.0003 19.9682 19.0885 19.7471 19.2479 19.5821C20.1046 18.7255 20.688 17.6341 20.9244 16.4459C21.1608 15.2577 21.0395 14.0261 20.5758 12.9069C20.1122 11.7876 19.3271 10.831 18.3198 10.158C17.3124 9.48495 16.1281 9.12577 14.9167 9.12586ZM14.9167 11.7509C13.9884 11.7509 13.0982 12.1196 12.4418 12.776C11.7854 13.4324 11.4167 14.3226 11.4167 15.2509C11.4167 16.1791 11.7854 17.0694 12.4418 17.7257C13.0982 18.3821 13.9884 18.7509 14.9167 18.7509C15.8449 18.7509 16.7352 18.3821 17.3915 17.7257C18.0479 17.0694 18.4167 16.1791 18.4167 15.2509C18.4167 14.3226 18.0479 13.4324 17.3915 12.776C16.7352 12.1196 15.8449 11.7509 14.9167 11.7509ZM13.1667 15.2509C13.1667 14.7867 13.351 14.3416 13.6792 14.0134C14.0074 13.6852 14.4525 13.5009 14.9167 13.5009C15.3808 13.5009 15.8259 13.6852 16.1541 14.0134C16.4823 14.3416 16.6667 14.7867 16.6667 15.2509C16.6667 15.715 16.4823 16.1601 16.1541 16.4883C15.8259 16.8165 15.3808 17.0009 14.9167 17.0009C14.4525 17.0009 14.0074 16.8165 13.6792 16.4883C13.351 16.1601 13.1667 15.715 13.1667 15.2509Z" stroke-width="0.5"/>
</svg>
