<svg width="28" height="28" viewBox="0 0 28 28" fill="currentColor" stroke="currentColor" xmlns="http://www.w3.org/2000/svg">
<path d="M14 5.16663C15.1507 5.16663 16.2519 5.35158 17.3057 5.72131C18.3627 6.09223 19.3568 6.631 20.2891 7.33948L20.6367 7.60413L20.9453 7.29553L21.7617 6.47815C21.8726 6.36732 22.0134 6.3044 22.2246 6.30432C22.4361 6.30432 22.5775 6.36719 22.6885 6.47815C22.7994 6.58911 22.8623 6.73052 22.8623 6.94202C22.8622 7.15323 22.7993 7.29403 22.6885 7.40491L21.8711 8.22131L21.5625 8.52991L21.8271 8.87756C22.5356 9.80981 23.0744 10.8039 23.4453 11.861C23.815 12.9147 24 14.0159 24 15.1666C24 16.5393 23.7361 17.828 23.21 19.0367C22.6796 20.2551 21.9609 21.3151 21.0547 22.2213C20.1484 23.1276 19.0875 23.8464 17.8682 24.3776C16.6589 24.9043 15.3715 25.1681 14.001 25.1666H14C12.6272 25.1666 11.3387 24.903 10.1299 24.3776C8.91175 23.8481 7.8515 23.129 6.94531 22.2213C6.03895 21.3134 5.32037 20.2524 4.79004 19.0348C4.26402 17.8269 4 16.5392 4 15.1666C4 13.7939 4.26387 12.5053 4.79004 11.2965C5.32039 10.0782 6.03909 9.01816 6.94531 8.11194C7.85147 7.20578 8.91177 6.48703 10.1309 5.95667C11.3406 5.43042 12.6289 5.16663 14 5.16663ZM14 6.49963C11.6119 6.49963 9.55934 7.34948 7.87109 9.03772C6.18285 10.726 5.33301 12.7785 5.33301 15.1666C5.33301 17.5547 6.18285 19.6073 7.87109 21.2955C9.55934 22.9838 11.6119 23.8336 14 23.8336C16.3881 23.8336 18.4407 22.9838 20.1289 21.2955C21.8172 19.6073 22.667 17.5547 22.667 15.1666C22.667 12.7785 21.8172 10.726 20.1289 9.03772C18.4407 7.34948 16.3881 6.49963 14 6.49963ZM13.999 9.83362C14.2029 9.83414 14.3514 9.89753 14.4775 10.0231C14.6027 10.1478 14.6669 10.2954 14.667 10.4996V15.1676C14.6675 15.3705 14.6042 15.5184 14.4785 15.6442C14.3528 15.7699 14.2043 15.8336 14 15.8336H13.999C13.7962 15.8341 13.6482 15.7709 13.5225 15.6451C13.3967 15.5194 13.333 15.3709 13.333 15.1666V10.4996C13.3331 10.2977 13.3967 10.1493 13.5234 10.0221C13.6493 9.89583 13.7967 9.83314 13.999 9.83362ZM11.667 1.66663H16.333C16.5373 1.66663 16.6858 1.73036 16.8115 1.85608C16.9372 1.98171 17.0004 2.12904 17 2.33167C16.9995 2.53584 16.9359 2.68589 16.8096 2.81311C16.6853 2.93821 16.5389 3.00054 16.3359 2.99963H11.667C11.4627 2.99963 11.3152 2.93623 11.1904 2.81116C11.0647 2.68495 11.0005 2.53583 11 2.33167C10.9996 2.12979 11.0625 1.98273 11.1885 1.85706C11.3158 1.73021 11.4649 1.66663 11.667 1.66663Z"/>
</svg>
