<svg width="28" height="28" viewBox="0 0 28 28" fill="currentColor" xmlns="http://www.w3.org/2000/svg">
<path d="M16.0206 25.399L16.6529 24.3303L15.1479 23.439L14.5144 24.5077L16.0206 25.399ZM11.3469 24.3303L11.9793 25.399L13.4843 24.5077L12.8531 23.439L11.3469 24.3303ZM14.5144 24.5077C14.4599 24.5949 14.3841 24.6669 14.2941 24.7168C14.204 24.7667 14.1028 24.7929 13.9999 24.7929C13.897 24.7929 13.7958 24.7667 13.7058 24.7168C13.6158 24.6669 13.5399 24.5949 13.4854 24.5077L11.9793 25.399C12.8811 26.9238 15.1176 26.9238 16.0206 25.399L14.5144 24.5077ZM12.2499 3.20898H15.7499V1.45898H12.2499V3.20898ZM24.7916 12.2507V13.4173H26.5416V12.2507H24.7916ZM3.20825 13.4173V12.2507H1.45825V13.4173H3.20825ZM1.45825 13.4173C1.45825 14.7648 1.45825 15.8183 1.51659 16.6688C1.57492 17.5263 1.69509 18.2403 1.96925 18.9007L3.58625 18.231C3.41475 17.8203 3.31442 17.3187 3.26192 16.5498C3.20825 15.7728 3.20825 14.7882 3.20825 13.4173H1.45825ZM9.10342 21.283C7.63809 21.2573 6.87042 21.164 6.26842 20.9143L5.59992 22.5313C6.53909 22.921 7.60775 23.0085 9.07309 23.0342L9.10342 21.283ZM1.96925 18.9007C2.30638 19.7146 2.80053 20.4541 3.42348 21.0771C4.04643 21.7 4.78599 22.1942 5.59992 22.5313L6.26842 20.9143C5.05354 20.4111 4.08949 19.4459 3.58625 18.231L1.96925 18.9007ZM24.7916 13.4173C24.7916 14.7882 24.7916 15.7728 24.7379 16.5498C24.6854 17.3187 24.5851 17.8203 24.4148 18.231L26.0306 18.9007C26.3048 18.2403 26.4249 17.5263 26.4844 16.6688C26.5428 15.8183 26.5416 14.7648 26.5416 13.4173H24.7916ZM18.9268 23.0318C20.3921 23.0073 21.4608 22.921 22.3999 22.5313L21.7303 20.9143C21.1294 21.164 20.3618 21.2573 18.8976 21.283L18.9268 23.0318ZM24.4148 18.231C23.9115 19.4459 22.9463 20.4111 21.7314 20.9143L22.3999 22.5313C23.2139 22.1942 23.9534 21.7 24.5764 21.0771C25.1993 20.4541 25.6935 19.7146 26.0306 18.9007L24.4148 18.231ZM15.7499 3.20898C17.6761 3.20898 19.0598 3.20898 20.1389 3.31282C21.2053 3.41432 21.8831 3.60799 22.4244 3.93932L23.3379 2.44715C22.4758 1.91982 21.4981 1.68415 20.3046 1.56982C19.1239 1.45782 17.6423 1.45898 15.7499 1.45898V3.20898ZM26.5416 12.2507C26.5416 10.3583 26.5416 8.87782 26.4296 7.69599C26.3164 6.50249 26.0808 5.52365 25.5534 4.66265L24.0601 5.57615C24.3926 6.11749 24.5863 6.79532 24.6878 7.86282C24.7904 8.94082 24.7916 10.3245 24.7916 12.2507H26.5416ZM22.4233 3.93932C23.0908 4.348 23.6521 4.9089 24.0613 5.57615L25.5534 4.66265C25.0002 3.75963 24.2409 3.00042 23.3379 2.44715L22.4233 3.93932ZM12.2499 1.45898C10.3576 1.45898 8.87709 1.45898 7.69525 1.56982C6.50175 1.68415 5.52292 1.91982 4.66192 2.44715L5.57542 3.94049C6.11675 3.60799 6.79459 3.41432 7.86209 3.31282C8.94009 3.21015 10.3238 3.20898 12.2499 3.20898V1.45898ZM3.20825 12.2507C3.20825 10.3245 3.20825 8.94082 3.31209 7.86165C3.41359 6.79532 3.60725 6.11749 3.93859 5.57615L2.44642 4.66382C1.91909 5.52482 1.68342 6.50249 1.56909 7.69599C1.45825 8.87899 1.45825 10.3583 1.45825 12.2507H3.20825ZM4.66192 2.44715C3.75889 3.00042 2.99969 3.76079 2.44642 4.66382L3.93975 5.57615C4.34825 4.90917 4.90873 4.34829 5.57542 3.93932L4.66192 2.44715ZM12.8519 23.439C12.6163 23.0388 12.4086 22.6853 12.2056 22.4077C11.9976 22.1025 11.7262 21.8458 11.4099 21.6552L10.5303 23.1683C10.5851 23.201 10.6609 23.2593 10.7916 23.439C10.9328 23.6327 11.0926 23.901 11.3469 24.3303L12.8519 23.439ZM9.07309 23.0318C9.58642 23.0412 9.90959 23.0482 10.1569 23.075C10.3879 23.1007 10.4778 23.138 10.5303 23.1683L11.4099 21.6552C11.0839 21.4727 10.722 21.3636 10.3494 21.3355C10.0018 21.297 9.58409 21.2912 9.10342 21.283L9.07309 23.0318ZM16.6529 24.3303C16.9073 23.9022 17.0671 23.6327 17.2083 23.439C17.3389 23.2593 17.4148 23.201 17.4696 23.1683L16.5899 21.6552C16.2516 21.8535 16.0066 22.116 15.7943 22.4077C15.5924 22.6853 15.3836 23.0377 15.1468 23.439L16.6529 24.3303ZM18.8976 21.283C18.4169 21.2912 17.9981 21.297 17.6504 21.3355C17.2876 21.3763 16.9318 21.4568 16.5899 21.6552L17.4696 23.1683C17.5221 23.138 17.6119 23.1007 17.8429 23.075C18.0903 23.0482 18.4146 23.04 18.9279 23.0318L18.8976 21.283Z"/>
<path d="M15.7502 1.20898C17.6376 1.20898 19.1332 1.20792 20.3284 1.32129L20.7737 1.37109C21.7931 1.50265 22.6737 1.74765 23.468 2.2334L23.469 2.23438C24.4054 2.80823 25.1931 3.59572 25.7668 4.53223C26.3222 5.43904 26.5641 6.46111 26.679 7.67285C26.7923 8.86908 26.7913 10.3635 26.7913 12.251V13.417C26.7913 14.7607 26.7927 15.8245 26.7336 16.6855C26.6733 17.555 26.5508 18.3003 26.262 18.9961C25.9123 19.8404 25.3993 20.6077 24.7532 21.2539C24.107 21.9001 23.3396 22.413 22.4954 22.7627C21.565 23.1486 20.5241 23.2449 19.1809 23.2754L19.1819 23.2773L18.9319 23.2822C18.6738 23.2863 18.4668 23.2897 18.2952 23.2959L17.8704 23.3232C17.6658 23.346 17.6099 23.3758 17.5959 23.3838C17.5824 23.3919 17.5503 23.4128 17.4875 23.4873L17.4104 23.5859C17.278 23.7676 17.1245 24.0242 16.8674 24.457L16.8684 24.458L16.2356 25.5264C15.2358 27.2145 12.7626 27.2149 11.7639 25.5264L11.1321 24.458C10.8751 24.0243 10.7216 23.7677 10.5891 23.5859C10.474 23.4276 10.4216 23.3945 10.4036 23.3838C10.3892 23.3756 10.3327 23.3459 10.1292 23.3232C9.93601 23.3023 9.69049 23.2947 9.3186 23.2871L9.0686 23.2842C7.69443 23.2601 6.63165 23.1821 5.69067 22.835L5.50415 22.7627C4.65989 22.413 3.89251 21.9001 3.24634 21.2539C2.60025 20.6078 2.08819 19.8403 1.73853 18.9961C1.4496 18.3001 1.32603 17.5555 1.26685 16.6855C1.20782 15.8246 1.20825 14.761 1.20825 13.417V12.251L1.21021 10.9072C1.21539 9.63492 1.23644 8.57079 1.32056 7.67285C1.43665 6.46125 1.6783 5.43994 2.23364 4.5332C2.80744 3.59673 3.59478 2.80829 4.53149 2.23438C5.43826 1.67901 6.45961 1.43737 7.67114 1.32129C8.86728 1.20913 10.3626 1.20898 12.2502 1.20898H15.7502ZM12.3352 25.4785C13.1621 26.5628 14.8363 26.5629 15.6643 25.4785L14.5647 24.8281C14.5187 24.8686 14.4693 24.9056 14.4153 24.9355C14.2883 25.0059 14.1454 25.0429 14.0002 25.043C13.8549 25.043 13.7113 25.006 13.5842 24.9355C13.5298 24.9053 13.4801 24.868 13.4338 24.8271L12.3352 25.4785ZM11.6887 24.418L12.0667 25.0557L12.512 24.793L13.1418 24.4199L12.7649 23.7812L11.6887 24.418ZM14.8567 24.4199L15.3948 24.7383L15.9329 25.0557L16.3098 24.418L15.2346 23.7812L14.8567 24.4199ZM12.2502 3.45898C10.3193 3.45898 8.94935 3.46027 7.88599 3.56152C6.83665 3.6613 6.20152 3.84917 5.7063 4.15332L5.68384 4.16699C5.06072 4.5541 4.53585 5.08125 4.15259 5.70703L4.13892 5.72754C3.84314 6.21992 3.65916 6.85228 3.56079 7.88574C3.4584 8.95008 3.45825 10.3198 3.45825 12.251V13.417C3.45825 14.7912 3.45808 15.7659 3.51099 16.5322C3.56265 17.2886 3.66027 17.7603 3.81665 18.1348L3.81763 18.1357C4.2956 19.2892 5.21116 20.2058 6.3645 20.6836C6.91808 20.9131 7.64235 21.0075 9.10767 21.0332L9.7854 21.0479C9.99413 21.0552 10.1891 21.0665 10.3674 21.0859C10.725 21.1129 11.0746 21.2079 11.3958 21.3652L11.5325 21.4365L11.5393 21.4414C11.8838 21.6492 12.1799 21.9281 12.4075 22.2598L12.5667 22.4912C12.6878 22.675 12.8103 22.8798 12.9387 23.0967H12.9407L13.0686 23.3115L13.6682 24.3281L13.6975 24.375C13.7296 24.4263 13.7745 24.4687 13.8274 24.498C13.8802 24.5273 13.9398 24.543 14.0002 24.543C14.0606 24.5429 14.1203 24.5273 14.1731 24.498C14.2259 24.4687 14.27 24.4262 14.302 24.375L14.9319 23.3115L15.0178 23.168C15.2201 22.8263 15.4075 22.5146 15.592 22.2607L15.7698 22.0332C15.9578 21.8109 16.1798 21.6056 16.4631 21.4395L16.4641 21.4385C16.8473 21.2161 17.2414 21.1298 17.6223 21.0869C17.9841 21.0469 18.4172 21.0413 18.8928 21.0332L19.4084 21.0205C20.5358 20.9821 21.1507 20.8844 21.634 20.6836L21.6614 20.6719C22.8028 20.1911 23.7096 19.2797 24.1838 18.1348C24.3392 17.76 24.4369 17.2884 24.4885 16.5322C24.5414 15.7659 24.5413 14.7912 24.5413 13.417V12.251C24.5413 10.3201 24.54 8.95009 24.4387 7.88672C24.3389 6.8373 24.1511 6.20227 23.8469 5.70703L23.8323 5.68262C23.4451 5.05983 22.9179 4.53538 22.2922 4.15234L22.2717 4.13965C21.7795 3.84423 21.1481 3.65984 20.1155 3.56152C19.0512 3.45917 17.6811 3.45898 15.7502 3.45898H12.2502ZM10.8489 23.1152C10.8919 23.1619 10.9401 23.2188 10.9934 23.292C11.1163 23.4606 11.2496 23.6804 11.4329 23.9883L11.5364 23.9277L12.5081 23.3506C12.3242 23.0401 12.1625 22.7723 12.0042 22.5557L11.9993 22.5488C11.8594 22.3436 11.6879 22.1618 11.4915 22.0117L10.8489 23.1152ZM16.5071 22.0107C16.3747 22.1127 16.2591 22.2293 16.1516 22.3564L15.9963 22.5547C15.8384 22.772 15.6752 23.0397 15.4905 23.3506L16.5657 23.9883C16.7488 23.681 16.8832 23.4607 17.0061 23.292L17.1057 23.1641C17.1207 23.1463 17.1357 23.1304 17.1497 23.1152L16.5071 22.0107ZM9.32739 22.7871C9.70086 22.7947 9.96804 22.8028 10.1838 22.8262C10.2764 22.8365 10.3528 22.8509 10.4163 22.8652L11.0579 21.7607C10.8271 21.6633 10.5812 21.6039 10.3303 21.585L10.3215 21.584C10.0472 21.5536 9.72491 21.545 9.34888 21.5381L9.32739 22.7871ZM18.6516 21.5381C18.3897 21.5429 18.1535 21.5481 17.9417 21.5615L17.678 21.584C17.418 21.6133 17.1732 21.6624 16.9397 21.7598L17.5823 22.8652C17.6461 22.8507 17.7224 22.8365 17.8157 22.8262L18.0276 22.8086C18.2031 22.7974 18.4118 22.7921 18.6721 22.7871L18.6614 22.1602L18.6516 21.5381ZM5.92993 22.3867C6.71453 22.6632 7.61599 22.7485 8.82739 22.7773L8.84888 21.5264C7.70175 21.4985 6.9805 21.4212 6.40747 21.2314L5.92993 22.3867ZM21.5911 21.2314C21.0188 21.4211 20.2976 21.4985 19.1516 21.5264L19.1731 22.7754C20.3843 22.7476 21.2852 22.662 22.0696 22.3857L21.5911 21.2314ZM2.30103 19.0332C2.62023 19.7268 3.05906 20.3596 3.59985 20.9004C4.14032 21.4409 4.77302 21.8791 5.46606 22.1982L5.9436 21.0439C4.85053 20.5282 3.97159 19.6479 3.4563 18.5547L2.30103 19.0332ZM24.5442 18.5547C24.0286 19.6482 23.1485 20.5284 22.0549 21.0439L22.5325 22.1982C23.2259 21.879 23.8589 21.4411 24.3997 20.9004C24.9405 20.3596 25.3793 19.7268 25.6985 19.0332L25.1262 18.7969L24.5442 18.5547ZM1.70923 13.667C1.70945 14.8976 1.71188 15.8639 1.76587 16.6514C1.81627 17.3923 1.91276 18.0095 2.1106 18.5713L3.2688 18.0918C3.13653 17.6928 3.05725 17.2159 3.01294 16.5674L2.98071 15.9346C2.9597 15.3143 2.95936 14.5763 2.95923 13.667H1.70923ZM25.0403 13.667C25.0401 14.9069 25.0386 15.8285 24.9875 16.5674C24.9432 17.2164 24.8623 17.6929 24.7307 18.0918L25.8889 18.5713C26.0868 18.0095 26.1832 17.3926 26.2346 16.6514C26.2886 15.864 26.2902 14.8978 26.2903 13.667H25.0403ZM25.0413 13.167H26.2913V12.501H25.0413V13.167ZM1.70825 13.167H2.95825V12.501H1.70825V13.167ZM24.3958 5.66309C24.68 6.21109 24.8459 6.88367 24.9368 7.83887C25.0363 8.88358 25.041 10.2074 25.0413 12.001H26.2913C26.291 10.2244 26.2866 8.83532 26.1809 7.71973C26.0792 6.64705 25.876 5.77486 25.4622 5.01074L24.3958 5.66309ZM2.53638 5.01172C2.1793 5.67099 1.97911 6.4102 1.86548 7.29004L1.81763 7.71973C1.71303 8.83654 1.70848 10.2247 1.70825 12.001H2.95825C2.95842 10.2077 2.96212 8.88386 3.06274 7.83789C3.15359 6.88351 3.31943 6.21096 3.60278 5.66309L2.53638 5.01172ZM4.58228 2.79688C3.87504 3.26903 3.26827 3.87646 2.79614 4.58398L3.32349 4.90625L3.86255 5.23633C4.22979 4.69658 4.69522 4.23104 5.23462 3.86328L4.68188 2.95898L4.58228 2.79688ZM23.094 3.32324L23.095 3.32422L22.7639 3.86328C23.3037 4.23061 23.7692 4.69586 24.137 5.23535L25.2024 4.58301C24.7302 3.87562 24.1238 3.26891 23.4163 2.79688L23.094 3.32324ZM12.0002 1.70898C10.4562 1.70918 9.20475 1.71258 8.17114 1.78223L7.71899 1.81836C6.64644 1.92111 5.77401 2.12344 5.01001 2.53711L5.66235 3.60352C6.21027 3.31942 6.88323 3.15429 7.83813 3.06348C8.88285 2.96398 10.2067 2.95925 12.0002 2.95898V1.70898ZM16.0002 2.95898C17.7924 2.95916 19.1157 2.96299 20.1614 3.06348C21.1149 3.15424 21.7886 3.31963 22.3362 3.60254L22.7229 2.97266L22.9885 2.53711C22.2239 2.12368 21.3526 1.92106 20.2805 1.81836C19.1663 1.7127 17.7766 1.70912 16.0002 1.70898V2.95898ZM12.5002 2.95898H15.5002V1.70898H12.5002V2.95898Z"/>
<path d="M9.34424 11.6328C10.0069 11.6329 10.5444 12.1703 10.5444 12.833C10.5444 13.4957 10.0069 14.0331 9.34424 14.0332H9.3335C8.67075 14.0332 8.1333 13.4957 8.1333 12.833C8.1333 12.1703 8.67075 11.6328 9.3335 11.6328H9.34424ZM14.0005 11.6328C14.6631 11.633 15.1997 12.1704 15.1997 12.833C15.1997 13.4956 14.6631 14.033 14.0005 14.0332H13.9897C13.327 14.0332 12.7896 13.4957 12.7896 12.833C12.7896 12.1703 13.327 11.6328 13.9897 11.6328H14.0005ZM18.6665 11.6328C19.3292 11.6328 19.8667 12.1703 19.8667 12.833C19.8667 13.4957 19.3292 14.0332 18.6665 14.0332H18.6567C17.994 14.0332 17.4565 13.4957 17.4565 12.833C17.4565 12.1703 17.994 11.6328 18.6567 11.6328H18.6665Z"/>
</svg>
