<svg width="22" height="22" viewBox="0 0 22 22" fill="none" xmlns="http://www.w3.org/2000/svg">
<g clip-path="url(#clip0_101_1506)">
<path d="M11.0002 20.1668C12.2042 20.1683 13.3966 19.9319 14.5089 19.4711C15.6213 19.0104 16.6316 18.3343 17.4819 17.4819C18.3343 16.6316 19.0104 15.6213 19.4711 14.5089C19.9319 13.3966 20.1683 12.2042 20.1668 11.0002C20.1683 9.79617 19.9319 8.60374 19.4711 7.49139C19.0104 6.37905 18.3343 5.36871 17.4819 4.51842C16.6316 3.66599 15.6213 2.98998 14.5089 2.52921C13.3966 2.06845 12.2042 1.83202 11.0002 1.8335C9.79617 1.83202 8.60374 2.06845 7.49139 2.52921C6.37905 2.98998 5.36871 3.66599 4.51842 4.51842C3.66599 5.36871 2.98998 6.37905 2.52921 7.49139C2.06845 8.60374 1.83202 9.79617 1.8335 11.0002C1.83202 12.2042 2.06845 13.3966 2.52921 14.5089C2.98998 15.6213 3.66599 16.6316 4.51842 17.4819C5.36871 18.3343 6.37905 19.0104 7.49139 19.4711C8.60374 19.9319 9.79617 20.1683 11.0002 20.1668Z" stroke="#212121" stroke-width="2" stroke-linejoin="round"/>
<path fill-rule="evenodd" clip-rule="evenodd" d="M11.0003 5.04199C11.3042 5.04199 11.5957 5.16271 11.8106 5.3776C12.0254 5.59248 12.1462 5.88393 12.1462 6.18783C12.1462 6.49172 12.0254 6.78317 11.8106 6.99805C11.5957 7.21294 11.3042 7.33366 11.0003 7.33366C10.6964 7.33366 10.405 7.21294 10.1901 6.99805C9.97521 6.78317 9.85449 6.49172 9.85449 6.18783C9.85449 5.88393 9.97521 5.59248 10.1901 5.3776C10.405 5.16271 10.6964 5.04199 11.0003 5.04199Z" fill="#212121"/>
<path d="M11.2292 15.5837V9.16699H10.3125M9.625 15.5837H12.8333" stroke="#212121" stroke-width="2" stroke-linecap="round" stroke-linejoin="round"/>
</g>
<defs>
<clipPath id="clip0_101_1506">
<rect width="22" height="22" fill="white"/>
</clipPath>
</defs>
</svg>
