<svg width="32" height="32" viewBox="0 0 32 32" fill="none" xmlns="http://www.w3.org/2000/svg">
<path d="M15.9998 23.3333C17.6665 23.3333 19.0834 22.7502 20.2505 21.584C21.4176 20.4178 22.0007 19.0009 21.9998 17.3333C21.9989 15.6658 21.4158 14.2493 20.2505 13.084C19.0852 11.9187 17.6683 11.3351 15.9998 11.3333C14.3314 11.3316 12.9149 11.9151 11.7505 13.084C10.5861 14.2529 10.0025 15.6693 9.99984 17.3333C9.99717 18.9973 10.5807 20.4142 11.7505 21.584C12.9203 22.7538 14.3367 23.3369 15.9998 23.3333ZM15.9998 20.6667C15.0665 20.6667 14.2776 20.3444 13.6332 19.7C12.9887 19.0556 12.6665 18.2667 12.6665 17.3333C12.6665 16.4 12.9887 15.6111 13.6332 14.9667C14.2776 14.3222 15.0665 14 15.9998 14C16.9332 14 17.7221 14.3222 18.3665 14.9667C19.0109 15.6111 19.3332 16.4 19.3332 17.3333C19.3332 18.2667 19.0109 19.0556 18.3665 19.7C17.7221 20.3444 16.9332 20.6667 15.9998 20.6667ZM5.33317 28C4.59984 28 3.97228 27.7391 3.4505 27.2173C2.92873 26.6956 2.66739 26.0676 2.6665 25.3333V9.33333C2.6665 8.6 2.92784 7.97244 3.4505 7.45067C3.97317 6.92889 4.60073 6.66756 5.33317 6.66667H9.53317L11.1998 4.86667C11.4443 4.6 11.7389 4.38889 12.0838 4.23333C12.4287 4.07778 12.7896 4 13.1665 4H18.8332C19.2109 4 19.5723 4.07778 19.9172 4.23333C20.2621 4.38889 20.5563 4.6 20.7998 4.86667L22.4665 6.66667H26.6665C27.3998 6.66667 28.0278 6.928 28.5505 7.45067C29.0732 7.97333 29.3341 8.60089 29.3332 9.33333V25.3333C29.3332 26.0667 29.0723 26.6947 28.5505 27.2173C28.0287 27.74 27.4007 28.0009 26.6665 28H5.33317ZM5.33317 25.3333H26.6665V9.33333H21.2665L18.8332 6.66667H13.1665L10.7332 9.33333H5.33317V25.3333Z" fill="#212121"/>
</svg>
