<svg width="14" height="15" viewBox="0 0 14 15" fill="none" xmlns="http://www.w3.org/2000/svg">
<g clip-path="url(#clip0_1896_1109)">
<path d="M6.99974 0.852605C7.82728 0.851599 8.64691 1.014 9.41146 1.33066C10.1757 1.64725 10.8702 2.11183 11.4545 2.6974C12.0405 3.28191 12.5054 3.97669 12.8221 4.74134C13.1387 5.50562 13.3011 6.32492 13.3002 7.15215L13.2984 7.3071C13.2802 8.08185 13.119 8.84706 12.8221 9.56387C12.5056 10.3281 12.0405 11.0221 11.455 11.6064L11.4554 11.6069C10.8709 12.1929 10.1761 12.6578 9.41146 12.9745C8.64691 13.2912 7.82728 13.4536 6.99974 13.4526V13.4521C6.17251 13.453 5.35321 13.2911 4.58894 12.9745C3.82428 12.6578 3.1295 12.1929 2.54499 11.6069V11.6064C1.95953 11.0222 1.4948 10.328 1.17826 9.56387C0.861596 8.79931 0.699195 7.97969 0.7002 7.15215C0.699316 6.32492 0.861711 5.50562 1.17826 4.74134C1.495 3.97669 1.95992 3.28191 2.5459 2.6974C3.13023 2.11183 3.82466 1.64725 4.58894 1.33066C5.35321 1.01412 6.17252 0.852177 6.99974 0.85306V0.852605ZM6.99974 1.78594C6.29504 1.78507 5.59683 1.92367 4.94577 2.19336C4.29482 2.46304 3.70341 2.85844 3.2058 3.35729L3.20489 3.3582C2.70604 3.85581 2.31063 4.44722 2.04096 5.09818C1.77127 5.74924 1.63266 6.44745 1.63353 7.15215V7.15306C1.63266 7.85776 1.77127 8.55597 2.04096 9.20703C2.27691 9.77659 2.60902 10.3006 3.0226 10.7561L3.20489 10.947L3.2058 10.9479C3.70341 11.4468 4.29482 11.8422 4.94577 12.1118C5.59683 12.3815 6.29504 12.5201 6.99974 12.5193H7.00066C7.70536 12.5201 8.40357 12.3815 9.05463 12.1118C9.70558 11.8422 10.297 11.4468 10.7946 10.9479L10.7955 10.947C11.2944 10.4494 11.6898 9.85799 11.9594 9.20703C12.2291 8.55597 12.3677 7.85776 12.3669 7.15306V7.15215C12.3677 6.44745 12.2291 5.74924 11.9594 5.09818C11.6898 4.44722 11.2944 3.85581 10.7955 3.3582L10.7946 3.35729C10.297 2.85844 9.70558 2.46304 9.05463 2.19336C8.40357 1.92367 7.70536 1.78507 7.00066 1.78594H6.99974Z" fill="#9E9E9E"/>
<path fill-rule="evenodd" clip-rule="evenodd" d="M7.00016 3.36096C7.19355 3.36096 7.37902 3.43778 7.51576 3.57453C7.65251 3.71128 7.72933 3.89674 7.72933 4.09013C7.72933 4.28352 7.65251 4.46898 7.51576 4.60573C7.37902 4.74247 7.19355 4.8193 7.00016 4.8193C6.80678 4.8193 6.62131 4.74247 6.48456 4.60573C6.34782 4.46898 6.271 4.28352 6.271 4.09013C6.271 3.89674 6.34782 3.71128 6.48456 3.57453C6.62131 3.43778 6.80678 3.36096 7.00016 3.36096Z" fill="#9E9E9E"/>
<path d="M7.14619 5.51929C7.40392 5.51929 7.61286 5.72822 7.61286 5.98595V9.60262H8.16702C8.42476 9.60262 8.63369 9.81155 8.63369 10.0693C8.63369 10.327 8.42476 10.536 8.16702 10.536H6.12536C5.86763 10.536 5.65869 10.327 5.65869 10.0693C5.65869 9.81155 5.86763 9.60262 6.12536 9.60262H6.67952V6.45262H6.56286C6.30513 6.45262 6.09619 6.24369 6.09619 5.98595C6.09619 5.72822 6.30513 5.51929 6.56286 5.51929H7.14619Z" fill="#9E9E9E"/>
</g>
<defs>
<clipPath id="clip0_1896_1109">
<rect width="14" height="14" fill="white" transform="translate(0 0.152588)"/>
</clipPath>
</defs>
</svg>
