<svg width="12" height="13" viewBox="0 0 12 13" fill="none" xmlns="http://www.w3.org/2000/svg">
<path d="M6.49977 8.62551C6.49977 8.55992 6.48685 8.49496 6.46175 8.43436C6.43664 8.37376 6.39985 8.31869 6.35347 8.27231C6.30708 8.22593 6.25202 8.18914 6.19142 8.16403C6.13082 8.13893 6.06586 8.12601 6.00027 8.12601C5.93467 8.12601 5.86972 8.13893 5.80912 8.16403C5.74852 8.18914 5.69345 8.22593 5.64707 8.27231C5.60069 8.31869 5.56389 8.37376 5.53879 8.43436C5.51369 8.49496 5.50077 8.55992 5.50077 8.62551C5.50487 8.75519 5.55927 8.87818 5.65245 8.96845C5.74563 9.05873 5.87028 9.10921 6.00002 9.10921C6.12976 9.10921 6.25441 9.05873 6.34759 8.96845C6.44077 8.87818 6.49516 8.75519 6.49927 8.62551M6.36927 4.69901C6.35631 4.60484 6.30808 4.51911 6.23432 4.45915C6.16056 4.39919 6.06679 4.36947 5.97196 4.37601C5.87713 4.38256 5.78832 4.42487 5.7235 4.49439C5.65867 4.56391 5.62267 4.65546 5.62277 4.75051L5.62477 7.00101L5.62827 7.05201C5.64122 7.14618 5.68946 7.23191 5.76322 7.29188C5.83697 7.35184 5.93075 7.38155 6.02558 7.37501C6.12041 7.36847 6.20921 7.32616 6.27404 7.25663C6.33886 7.18711 6.37487 7.09557 6.37477 7.00051L6.37277 4.74951L6.36927 4.69901ZM6.98427 1.95501C6.55577 1.18101 5.44327 1.18101 5.01527 1.95501L1.14277 8.95551C0.727768 9.70551 1.27027 10.6255 2.12777 10.6255H9.87277C10.7298 10.6255 11.2723 9.70551 10.8573 8.95551L6.98427 1.95501ZM5.67127 2.31801C5.70368 2.25934 5.75122 2.21042 5.80895 2.17636C5.86668 2.1423 5.93249 2.12433 5.99952 2.12433C6.06655 2.12433 6.13235 2.1423 6.19008 2.17636C6.24781 2.21042 6.29536 2.25934 6.32777 2.31801L10.2008 9.31901C10.2324 9.37613 10.2485 9.4405 10.2476 9.50577C10.2467 9.57103 10.2287 9.63493 10.1956 9.69114C10.1624 9.74735 10.1151 9.79392 10.0584 9.82626C10.0017 9.8586 9.93754 9.87557 9.87227 9.87551H2.12777C2.0625 9.87557 1.99834 9.8586 1.94164 9.82626C1.88494 9.79392 1.83766 9.74735 1.80448 9.69114C1.7713 9.63493 1.75337 9.57103 1.75246 9.50577C1.75154 9.4405 1.76768 9.37613 1.79927 9.31901L5.67127 2.31801Z" fill="#9E9E9E"/>
</svg>
