<svg width="20" height="20" viewBox="0 0 20 20" fill="none" xmlns="http://www.w3.org/2000/svg">
<mask id="mask0_782_682" style="mask-type:luminance" maskUnits="userSpaceOnUse" x="2" y="2" width="16" height="16">
<path d="M18 2H2V18H18V2Z" fill="white"/>
</mask>
<g mask="url(#mask0_782_682)">
<path d="M17.68 10.1815C17.68 9.61429 17.6292 9.06885 17.5346 8.54517H10V11.6398H14.3054C14.12 12.6398 13.5564 13.487 12.7092 14.0543V16.0615H15.2946C16.8073 14.6688 17.68 12.6179 17.68 10.1815Z" fill="#4285F4"/>
<path d="M10.0016 18.0005C12.1616 18.0005 13.9726 17.2842 15.2961 16.0624L12.7107 14.0551C11.9944 14.5351 11.078 14.8187 10.0016 14.8187C7.91798 14.8187 6.15438 13.4114 5.52526 11.5205H2.85254V13.5933C4.16894 16.2078 6.87438 18.0005 10.0016 18.0005Z" fill="#34A853"/>
<path d="M5.5236 11.5199C5.3636 11.0399 5.27272 10.5272 5.27272 9.99995C5.27272 9.47267 5.3636 8.95995 5.5236 8.47995V6.40723H2.85088C2.30912 7.48723 2 8.70907 2 9.99995C2 11.2909 2.30912 12.5126 2.85088 13.5926L5.5236 11.5199Z" fill="#FBBC04"/>
<path d="M10.0016 5.18184C11.1761 5.18184 12.2307 5.58544 13.0598 6.37816L15.3544 4.0836C13.9689 2.79272 12.158 2 10.0016 2C6.87438 2 4.16894 3.79272 2.85254 6.40728L5.52526 8.48C6.15438 6.58912 7.91798 5.18184 10.0016 5.18184Z" fill="#E94235"/>
</g>
</svg>
