<svg width="24" height="24" viewBox="0 0 24 24" fill="currentColor" xmlns="http://www.w3.org/2000/svg">
<path d="M20.2285 13.3713H13.3713V20.2285C13.3713 20.5922 13.2268 20.941 12.9696 21.1982C12.7125 21.4554 12.3636 21.5999 11.9999 21.5999C11.6362 21.5999 11.2873 21.4554 11.0302 21.1982C10.773 20.941 10.6285 20.5922 10.6285 20.2285V13.3713H3.77133C3.40761 13.3713 3.05878 13.2268 2.80158 12.9696C2.54439 12.7125 2.3999 12.3636 2.3999 11.9999C2.3999 11.6362 2.54439 11.2873 2.80158 11.0302C3.05878 10.773 3.40761 10.6285 3.77133 10.6285H10.6285V3.77133C10.6285 3.40761 10.773 3.05878 11.0302 2.80158C11.2873 2.54439 11.6362 2.3999 11.9999 2.3999C12.3636 2.3999 12.7125 2.54439 12.9696 2.80158C13.2268 3.05878 13.3713 3.40761 13.3713 3.77133V10.6285H20.2285C20.5922 10.6285 20.941 10.773 21.1982 11.0302C21.4554 11.2873 21.5999 11.6362 21.5999 11.9999C21.5999 12.3636 21.4554 12.7125 21.1982 12.9696C20.941 13.2268 20.5922 13.3713 20.2285 13.3713Z"/>
</svg>
