<svg width="22" height="22" viewBox="0 0 22 22" fill="none" xmlns="http://www.w3.org/2000/svg">
<path d="M11.0016 1.5C12.7693 1.49982 14.4675 2.24367 15.7361 3.57378C17.0046 4.90388 17.7437 6.71559 17.7965 8.62463L17.7997 8.84495V12.8298L18.9304 15.9782C18.9608 16.0635 18.9813 16.1513 18.992 16.2417L19 16.3783C18.9999 16.6521 18.9058 16.9161 18.736 17.1193C18.5661 17.3225 18.3325 17.4503 18.0804 17.4781L17.9764 17.4842L13.8021 17.4851C13.7995 18.2713 13.5137 19.0256 13.0053 19.5881C12.4969 20.1507 11.8058 20.4773 11.0784 20.4989C10.351 20.5204 9.64436 20.2352 9.10819 19.7036C8.57201 19.172 8.24841 18.4358 8.20591 17.6509L8.20111 17.4833L4.02438 17.4842C3.86669 17.4843 3.71112 17.4451 3.56978 17.3696C3.42844 17.294 3.30516 17.1842 3.20957 17.0487C3.11397 16.9133 3.04864 16.7557 3.01866 16.5885C2.98869 16.4212 2.99489 16.2487 3.03677 16.0845L3.07036 15.9774L4.20271 12.8289V8.84582C4.2025 7.88109 4.37821 6.92576 4.71981 6.03443C5.06141 5.14309 5.56221 4.3332 6.19359 3.65103C6.82496 2.96887 7.57455 2.42779 8.39952 2.0587C9.2245 1.68962 10.1087 1.49977 11.0016 1.5ZM12.5978 17.6138L12.601 17.4842L9.40223 17.4851C9.40038 17.9337 9.56001 18.3655 9.8474 18.6893C10.1348 19.0132 10.5274 19.2036 10.9424 19.2204C11.3573 19.2373 11.7621 19.0791 12.0711 18.7795C12.3801 18.4799 12.5693 18.0622 12.5986 17.6147M11.0016 2.79602C9.55005 2.79577 8.15517 3.40473 7.11125 4.49442C6.06733 5.58412 5.45599 7.06934 5.40623 8.63673L5.40303 8.84495V12.9507C5.40262 13.0043 5.39645 13.0577 5.38463 13.1097L5.36224 13.1857L4.28107 16.1882H17.7189L16.6409 13.1866C16.6234 13.1364 16.6113 13.0843 16.605 13.0311L16.5994 12.9516V8.84582C16.5996 8.05143 16.4549 7.26477 16.1737 6.53079C15.8925 5.7968 15.4802 5.12986 14.9604 4.56807C14.4406 4.00627 13.8234 3.56062 13.1441 3.25656C12.4649 2.95251 11.7368 2.79602 11.0016 2.79602Z" fill="#212121"/>
<path d="M12.5978 17.6138L12.601 17.4842L9.40223 17.4851C9.40038 17.9337 9.56001 18.3655 9.8474 18.6893C10.1348 19.0132 10.5274 19.2036 10.9424 19.2204C11.3573 19.2373 11.7621 19.0791 12.0711 18.7795C12.3801 18.4799 12.5693 18.0622 12.5986 17.6147M11.0016 1.5C12.7693 1.49982 14.4675 2.24367 15.7361 3.57378C17.0046 4.90388 17.7437 6.71559 17.7965 8.62463L17.7997 8.84495V12.8298L18.9304 15.9782C18.9608 16.0635 18.9813 16.1513 18.992 16.2417L19 16.3783C18.9999 16.6521 18.9058 16.9161 18.736 17.1193C18.5661 17.3225 18.3325 17.4503 18.0804 17.4781L17.9764 17.4842L13.8021 17.4851C13.7995 18.2713 13.5137 19.0256 13.0053 19.5881C12.4969 20.1507 11.8058 20.4773 11.0784 20.4989C10.351 20.5204 9.64436 20.2352 9.10819 19.7036C8.57201 19.172 8.24841 18.4358 8.20591 17.6509L8.20111 17.4833L4.02438 17.4842C3.86669 17.4843 3.71112 17.4451 3.56978 17.3696C3.42844 17.294 3.30516 17.1842 3.20957 17.0487C3.11397 16.9133 3.04864 16.7557 3.01866 16.5885C2.98869 16.4212 2.99489 16.2487 3.03677 16.0845L3.07036 15.9774L4.20271 12.8289V8.84582C4.2025 7.88109 4.37821 6.92576 4.71981 6.03443C5.06141 5.14309 5.56221 4.3332 6.19359 3.65103C6.82496 2.96887 7.57455 2.42779 8.39952 2.0587C9.2245 1.68962 10.1087 1.49977 11.0016 1.5ZM11.0016 2.79602C9.55005 2.79577 8.15517 3.40473 7.11125 4.49442C6.06733 5.58412 5.45599 7.06934 5.40623 8.63673L5.40303 8.84495V12.9507C5.40262 13.0043 5.39645 13.0577 5.38463 13.1097L5.36224 13.1857L4.28107 16.1882H17.7189L16.6409 13.1866C16.6234 13.1364 16.6113 13.0843 16.605 13.0311L16.5994 12.9516V8.84582C16.5996 8.05143 16.4549 7.26477 16.1737 6.53079C15.8925 5.7968 15.4802 5.12986 14.9604 4.56807C14.4406 4.00627 13.8234 3.56062 13.1441 3.25656C12.4649 2.95251 11.7368 2.79602 11.0016 2.79602Z" stroke="#212121" stroke-width="0.5"/>
</svg>
