<svg width="24" height="24" viewBox="0 0 24 24" fill="currentColor" xmlns="http://www.w3.org/2000/svg">
<path d="M6 23C5.45 23 4.97933 22.8043 4.588 22.413C4.19667 22.0217 4.00067 21.5507 4 21V9.99999C4 9.44999 4.196 8.97933 4.588 8.58799C4.98 8.19666 5.45067 8.00066 6 7.99999H8C8.28333 7.99999 8.521 8.09599 8.713 8.28799C8.905 8.47999 9.00067 8.71733 9 8.99999C8.99933 9.28266 8.90333 9.52033 8.712 9.71299C8.52067 9.90566 8.28333 10.0013 8 9.99999H6V21H18V9.99999H16C15.7167 9.99999 15.4793 9.90399 15.288 9.71199C15.0967 9.51999 15.0007 9.28266 15 8.99999C14.9993 8.71733 15.0953 8.47999 15.288 8.28799C15.4807 8.09599 15.718 7.99999 16 7.99999H18C18.55 7.99999 19.021 8.19599 19.413 8.58799C19.805 8.97999 20.0007 9.45066 20 9.99999V21C20 21.55 19.8043 22.021 19.413 22.413C19.0217 22.805 18.5507 23.0007 18 23H6ZM11 4.82499L10.1 5.72499C9.9 5.92499 9.66667 6.02099 9.4 6.01299C9.13333 6.00499 8.9 5.90066 8.7 5.69999C8.51667 5.49999 8.421 5.26666 8.413 4.99999C8.405 4.73333 8.50067 4.49999 8.7 4.29999L11.3 1.69999C11.5 1.49999 11.7333 1.39999 12 1.39999C12.2667 1.39999 12.5 1.49999 12.7 1.69999L15.3 4.29999C15.4833 4.48333 15.575 4.71266 15.575 4.98799C15.575 5.26333 15.4833 5.50066 15.3 5.69999C15.1 5.89999 14.8627 5.99999 14.588 5.99999C14.3133 5.99999 14.0757 5.89999 13.875 5.69999L13 4.82499V15C13 15.2833 12.904 15.521 12.712 15.713C12.52 15.905 12.2827 16.0007 12 16C11.7173 15.9993 11.48 15.9033 11.288 15.712C11.096 15.5207 11 15.2833 11 15V4.82499Z"/>
</svg>
