<svg width="22" height="22" viewBox="0 0 22 22" fill="none" xmlns="http://www.w3.org/2000/svg">
<path d="M11.0002 1.8335C16.0629 1.8335 20.1668 5.93741 20.1668 11.0002C20.1668 16.0629 16.0629 20.1668 11.0002 20.1668C5.93741 20.1668 1.8335 16.0629 1.8335 11.0002C1.8335 5.93741 5.93741 1.8335 11.0002 1.8335ZM11.0002 3.66683C9.05524 3.66683 7.18998 4.43945 5.81471 5.81471C4.43945 7.18998 3.66683 9.05524 3.66683 11.0002C3.66683 12.9451 4.43945 14.8103 5.81471 16.1856C7.18998 17.5609 9.05524 18.3335 11.0002 18.3335C12.9451 18.3335 14.8103 17.5609 16.1856 16.1856C17.5609 14.8103 18.3335 12.9451 18.3335 11.0002C18.3335 9.05524 17.5609 7.18998 16.1856 5.81471C14.8103 4.43945 12.9451 3.66683 11.0002 3.66683ZM11.0002 14.6668C11.2433 14.6668 11.4764 14.7634 11.6483 14.9353C11.8203 15.1072 11.9168 15.3404 11.9168 15.5835C11.9168 15.8266 11.8203 16.0598 11.6483 16.2317C11.4764 16.4036 11.2433 16.5002 11.0002 16.5002C10.757 16.5002 10.5239 16.4036 10.352 16.2317C10.1801 16.0598 10.0835 15.8266 10.0835 15.5835C10.0835 15.3404 10.1801 15.1072 10.352 14.9353C10.5239 14.7634 10.757 14.6668 11.0002 14.6668ZM11.0002 5.9585C11.7723 5.95852 12.5202 6.2274 13.1156 6.71896C13.711 7.21052 14.1167 7.89407 14.2629 8.65219C14.4091 9.41031 14.2867 10.1957 13.9168 10.8734C13.5469 11.5511 12.9525 12.0789 12.2358 12.366C12.1297 12.405 12.034 12.4681 11.9562 12.5502C11.9159 12.5961 11.9095 12.6547 11.9104 12.7152L11.9168 12.8335C11.9166 13.0671 11.8271 13.2919 11.6667 13.4618C11.5063 13.6316 11.2871 13.7339 11.0539 13.7476C10.8206 13.7613 10.591 13.6854 10.4118 13.5354C10.2327 13.3855 10.1175 13.1728 10.0899 12.9407L10.0835 12.8335V12.6043C10.0835 11.5474 10.936 10.9131 11.5538 10.6647C11.8053 10.5643 12.0246 10.3972 12.1883 10.1816C12.352 9.96589 12.4539 9.7097 12.483 9.44051C12.512 9.17131 12.4672 8.89928 12.3534 8.65363C12.2395 8.40797 12.0609 8.19797 11.8367 8.04618C11.6124 7.89439 11.3511 7.80655 11.0807 7.79208C10.8104 7.7776 10.5412 7.83706 10.302 7.96404C10.0629 8.09103 9.86286 8.28076 9.72342 8.51286C9.58399 8.74496 9.5104 9.01065 9.51058 9.28141C9.51058 9.52453 9.414 9.75769 9.24209 9.92959C9.07019 10.1015 8.83703 10.1981 8.59391 10.1981C8.3508 10.1981 8.11764 10.1015 7.94573 9.92959C7.77382 9.75769 7.67725 9.52453 7.67725 9.28141C7.67725 8.40012 8.02734 7.55492 8.65051 6.93176C9.27367 6.30859 10.1189 5.9585 11.0002 5.9585Z" fill="#212121"/>
</svg>
