<svg width="22" height="22" viewBox="0 0 22 22" fill="none" xmlns="http://www.w3.org/2000/svg">
<path d="M4.74759 17.4736C3.888 16.6434 3.20236 15.6503 2.73068 14.5522C2.259 13.4542 2.01072 12.2732 2.00034 11.0782C1.98996 9.88319 2.21767 8.69807 2.6702 7.59201C3.12273 6.48594 3.791 5.48107 4.63604 4.63604C5.48107 3.791 6.48594 3.12273 7.59201 2.6702C8.69807 2.21767 9.88319 1.98996 11.0782 2.00034C12.2732 2.01072 13.4542 2.259 14.5522 2.73068C15.6503 3.20236 16.6434 3.888 17.4736 4.74759C19.113 6.44501 20.0202 8.71843 19.9997 11.0782C19.9792 13.438 19.0326 15.6953 17.364 17.364C15.6953 19.0326 13.438 19.9792 11.0782 19.9997C8.71843 20.0202 6.44501 19.113 4.74759 17.4736ZM16.2046 16.2046C17.5556 14.8536 18.3146 13.0212 18.3146 11.1106C18.3146 9.19997 17.5556 7.36761 16.2046 6.01659C14.8536 4.66558 13.0212 3.90659 11.1106 3.90659C9.19997 3.90659 7.36761 4.66558 6.01659 6.01659C4.66558 7.36761 3.90659 9.19997 3.90659 11.1106C3.90659 13.0212 4.66558 14.8536 6.01659 16.2046C7.36761 17.5556 9.19997 18.3146 11.1106 18.3146C13.0212 18.3146 14.8536 17.5556 16.2046 16.2046ZM10.2106 6.61059H12.0106V12.0106H10.2106V6.61059ZM10.2106 13.8106H12.0106V15.6106H10.2106V13.8106Z" fill="#212121"/>
</svg>
