<svg width="28" height="28" viewBox="0 0 28 28" fill="none" xmlns="http://www.w3.org/2000/svg">
<path d="M14 9.33366C11.4217 9.33366 9.33334 11.422 9.33334 14.0003C9.33334 16.5787 11.4217 18.667 14 18.667C16.5783 18.667 18.6667 16.5787 18.6667 14.0003C18.6667 11.422 16.5783 9.33366 14 9.33366ZM25.3245 12.8337C24.8152 12.8337 24.3924 12.4495 24.293 11.95C23.8892 9.92164 22.8933 8.05056 21.4215 6.5788C19.9498 5.10704 18.0787 4.11108 16.0504 3.70737C15.5508 3.60794 15.1667 3.18513 15.1667 2.67581V2.16699C15.1667 1.61471 14.719 1.16699 14.1667 1.16699H13.8333C13.2811 1.16699 12.8333 1.61471 12.8333 2.16699V2.67581C12.8333 3.18513 12.4492 3.60794 11.9496 3.70737C9.92132 4.11108 8.05024 5.10704 6.57848 6.5788C5.10672 8.05056 4.11076 9.92164 3.70705 11.95C3.60762 12.4495 3.18481 12.8337 2.67549 12.8337H2.16667C1.61439 12.8337 1.16667 13.2814 1.16667 13.8337V14.167C1.16667 14.7193 1.61439 15.167 2.16667 15.167H2.67549C3.18481 15.167 3.60762 15.5512 3.70705 16.0507C4.11076 18.079 5.10672 19.9501 6.57848 21.4218C8.05024 22.8936 9.92132 23.8896 11.9496 24.2933C12.4492 24.3927 12.8333 24.8155 12.8333 25.3248V25.8337C12.8333 26.3859 13.2811 26.8337 13.8333 26.8337H14.1667C14.719 26.8337 15.1667 26.3859 15.1667 25.8337V25.3248C15.1667 24.8155 15.5508 24.3927 16.0504 24.2933C18.0787 23.8896 19.9498 22.8936 21.4215 21.4218C22.8933 19.9501 23.8892 18.079 24.293 16.0507C24.3924 15.5512 24.8152 15.167 25.3245 15.167H25.8333C26.3856 15.167 26.8333 14.7193 26.8333 14.167V13.8337C26.8333 13.2814 26.3856 12.8337 25.8333 12.8337H25.3245ZM14 22.167C9.485 22.167 5.83334 18.5153 5.83334 14.0003C5.83334 9.48533 9.485 5.83366 14 5.83366C18.515 5.83366 22.1667 9.48533 22.1667 14.0003C22.1667 18.5153 18.515 22.167 14 22.167Z" fill="black"/>
</svg>
