<svg width="22" height="22" viewBox="0 0 22 22" fill="none" xmlns="http://www.w3.org/2000/svg">
<path fill-rule="evenodd" clip-rule="evenodd" d="M2.75 6.41683C2.75 5.20125 3.23289 4.03547 4.09243 3.17592C4.95197 2.31638 6.11776 1.8335 7.33333 1.8335H11.9167C12.1598 1.8335 12.3929 1.93007 12.5648 2.10198C12.7368 2.27389 12.8333 2.50705 12.8333 2.75016C12.8333 2.99328 12.7368 3.22644 12.5648 3.39834C12.3929 3.57025 12.1598 3.66683 11.9167 3.66683H7.33333C6.60399 3.66683 5.90451 3.95656 5.38879 4.47229C4.87306 4.98801 4.58333 5.68748 4.58333 6.41683V15.5835C4.58333 16.3128 4.87306 17.0123 5.38879 17.528C5.90451 18.0438 6.60399 18.3335 7.33333 18.3335H11.9167C12.1598 18.3335 12.3929 18.4301 12.5648 18.602C12.7368 18.7739 12.8333 19.007 12.8333 19.2502C12.8333 19.4933 12.7368 19.7264 12.5648 19.8983C12.3929 20.0703 12.1598 20.1668 11.9167 20.1668H7.33333C6.11776 20.1668 4.95197 19.6839 4.09243 18.8244C3.23289 17.9649 2.75 16.7991 2.75 15.5835V6.41683Z" fill="#212121"/>
<path fill-rule="evenodd" clip-rule="evenodd" d="M13.264 6.70666C13.3463 6.61874 13.4452 6.54791 13.5549 6.49821C13.6646 6.4485 13.783 6.4209 13.9033 6.41699C14.0237 6.41307 14.1437 6.43292 14.2564 6.47538C14.3691 6.51785 14.4723 6.58211 14.5602 6.66449L18.9602 10.7895C19.0518 10.8752 19.1248 10.9789 19.1747 11.094C19.2246 11.2091 19.2503 11.3332 19.2503 11.4587C19.2503 11.5841 19.2246 11.7082 19.1747 11.8233C19.1248 11.9385 19.0518 12.0421 18.9602 12.1278L14.5602 16.2528C14.4723 16.3352 14.3691 16.3994 14.2564 16.4418C14.1437 16.4843 14.0237 16.5041 13.9034 16.5002C13.783 16.4963 13.6646 16.4687 13.5549 16.419C13.4452 16.3693 13.3463 16.2985 13.264 16.2107C13.1817 16.1228 13.1174 16.0196 13.075 15.9069C13.0326 15.7942 13.0127 15.6742 13.0166 15.5538C13.0206 15.4335 13.0481 15.3151 13.0978 15.2054C13.1475 15.0957 13.2183 14.9968 13.3062 14.9145L16.0149 12.3753H7.33317C7.09006 12.3753 6.8569 12.2787 6.68499 12.1068C6.51308 11.9349 6.4165 11.7018 6.4165 11.4587C6.4165 11.2155 6.51308 10.9824 6.68499 10.8105C6.8569 10.6386 7.09006 10.542 7.33317 10.542H16.0149L13.3062 8.00283C13.2183 7.92051 13.1474 7.82168 13.0977 7.71198C13.048 7.60228 13.0204 7.48385 13.0165 7.36348C13.0126 7.24311 13.0324 7.12314 13.0749 7.01044C13.1174 6.89774 13.1816 6.79451 13.264 6.70666Z" fill="#212121"/>
</svg>
