<svg width="24" height="24" viewBox="0 0 24 24" fill="none" xmlns="http://www.w3.org/2000/svg">
<path d="M6.84984 19L7.69984 19.85C7.89984 20.05 7.99584 20.2833 7.98784 20.55C7.97984 20.8166 7.88384 21.05 7.69984 21.25C7.49984 21.45 7.26251 21.5543 6.98784 21.563C6.71318 21.5716 6.47551 21.4756 6.27484 21.275L3.69984 18.7C3.59984 18.6 3.52884 18.4916 3.48684 18.375C3.44484 18.2583 3.42451 18.1333 3.42584 18C3.42718 17.8666 3.44818 17.7416 3.48884 17.625C3.52951 17.5083 3.60018 17.4 3.70084 17.3L6.27584 14.725C6.47584 14.525 6.71351 14.4293 6.98884 14.438C7.26418 14.4466 7.50151 14.5506 7.70084 14.75C7.88418 14.95 7.98018 15.1833 7.98884 15.45C7.99751 15.7166 7.90151 15.95 7.70084 16.15L6.85084 17H16.9998V14C16.9998 13.7166 17.0958 13.4793 17.2878 13.288C17.4798 13.0966 17.7172 13.0006 17.9998 13C18.2825 12.9993 18.5202 13.0953 18.7128 13.288C18.9055 13.4806 19.0012 13.718 18.9998 14V17C18.9998 17.55 18.8042 18.021 18.4128 18.413C18.0215 18.805 17.5505 19.0006 16.9998 19H6.84984ZM17.1498 6.99996H6.99984V9.99996C6.99984 10.2833 6.90384 10.521 6.71184 10.713C6.51984 10.905 6.28251 11.0006 5.99984 11C5.71718 10.9993 5.47984 10.9033 5.28784 10.712C5.09584 10.5206 4.99984 10.2833 4.99984 9.99996V6.99996C4.99984 6.44996 5.19584 5.9793 5.58784 5.58796C5.97984 5.19663 6.45051 5.00063 6.99984 4.99996H17.1498L16.2998 4.14996C16.0998 3.94996 16.0038 3.71663 16.0118 3.44996C16.0198 3.1833 16.1158 2.94996 16.2998 2.74996C16.4998 2.54996 16.7372 2.44596 17.0118 2.43796C17.2865 2.42996 17.5242 2.52563 17.7248 2.72496L20.2998 5.29996C20.3998 5.39996 20.4708 5.5083 20.5128 5.62496C20.5548 5.74163 20.5755 5.86663 20.5748 5.99996C20.5742 6.1333 20.5535 6.2583 20.5128 6.37496C20.4722 6.49163 20.4012 6.59996 20.2998 6.69996L17.7248 9.27496C17.5248 9.47496 17.2875 9.57096 17.0128 9.56296C16.7382 9.55496 16.5005 9.45063 16.2998 9.24996C16.1165 9.04996 16.0205 8.81663 16.0118 8.54996C16.0032 8.2833 16.0992 8.04996 16.2998 7.84996L17.1498 6.99996Z" fill="#212121"/>
</svg>
