<svg width="22" height="22" viewBox="0 0 22 22" fill="none" xmlns="http://www.w3.org/2000/svg">
<path d="M3.6665 3.66683C3.6665 3.1806 3.85966 2.71428 4.20347 2.37047C4.54729 2.02665 5.01361 1.8335 5.49984 1.8335H12.8332C13.0763 1.83355 13.3094 1.93016 13.4813 2.10208L18.0646 6.68541C18.2365 6.85728 18.3331 7.0904 18.3332 7.3335V18.3335C18.3332 18.8197 18.14 19.286 17.7962 19.6299C17.4524 19.9737 16.9861 20.1668 16.4998 20.1668H5.49984C5.01361 20.1668 4.54729 19.9737 4.20347 19.6299C3.85966 19.286 3.6665 18.8197 3.6665 18.3335V3.66683ZM16.1203 7.3335L12.8332 4.04633V7.3335H16.1203ZM10.9998 3.66683H5.49984V18.3335H16.4998V9.16683H11.9165C11.6734 9.16683 11.4402 9.07025 11.2683 8.89834C11.0964 8.72644 10.9998 8.49328 10.9998 8.25016V3.66683ZM7.33317 11.9168C7.33317 11.6737 7.42975 11.4406 7.60166 11.2686C7.77356 11.0967 8.00672 11.0002 8.24984 11.0002H13.7498C13.993 11.0002 14.2261 11.0967 14.398 11.2686C14.5699 11.4406 14.6665 11.6737 14.6665 11.9168C14.6665 12.1599 14.5699 12.3931 14.398 12.565C14.2261 12.7369 13.993 12.8335 13.7498 12.8335H8.24984C8.00672 12.8335 7.77356 12.7369 7.60166 12.565C7.42975 12.3931 7.33317 12.1599 7.33317 11.9168ZM7.33317 15.5835C7.33317 15.3404 7.42975 15.1072 7.60166 14.9353C7.77356 14.7634 8.00672 14.6668 8.24984 14.6668H13.7498C13.993 14.6668 14.2261 14.7634 14.398 14.9353C14.5699 15.1072 14.6665 15.3404 14.6665 15.5835C14.6665 15.8266 14.5699 16.0598 14.398 16.2317C14.2261 16.4036 13.993 16.5002 13.7498 16.5002H8.24984C8.00672 16.5002 7.77356 16.4036 7.60166 16.2317C7.42975 16.0598 7.33317 15.8266 7.33317 15.5835Z" fill="#212121"/>
</svg>
