<svg width="30" height="30" viewBox="0 0 30 30" fill="none" xmlns="http://www.w3.org/2000/svg">
<path fill-rule="evenodd" clip-rule="evenodd" d="M7.57503 6.07456C9.54426 4.10533 12.2151 2.99902 15 2.99902C17.7849 2.99902 20.4558 4.10533 22.425 6.07456C24.3943 8.04379 25.5006 10.7146 25.5006 13.4996C25.5006 16.2845 24.3943 18.9553 22.425 20.9246L15 28.3496L7.57503 20.9246C6.5999 19.9495 5.82638 18.792 5.29863 17.518C4.77089 16.244 4.49927 14.8785 4.49927 13.4996C4.49927 12.1206 4.77089 10.7551 5.29863 9.48114C5.82638 8.20715 6.5999 7.04959 7.57503 6.07456ZM15 16.4996C15.7957 16.4996 16.5587 16.1835 17.1213 15.6209C17.684 15.0583 18 14.2952 18 13.4996C18 12.7039 17.684 11.9408 17.1213 11.3782C16.5587 10.8156 15.7957 10.4996 15 10.4996C14.2044 10.4996 13.4413 10.8156 12.8787 11.3782C12.3161 11.9408 12 12.7039 12 13.4996C12 14.2952 12.3161 15.0583 12.8787 15.6209C13.4413 16.1835 14.2044 16.4996 15 16.4996Z" fill="#212121"/>
</svg>
