<svg width="24" height="24" viewBox="0 0 24 24" fill="currentColor" xmlns="http://www.w3.org/2000/svg">
<path d="M19.7143 13.2857H13.2857V19.7143C13.2857 20.0553 13.1503 20.3823 12.9091 20.6234C12.668 20.8645 12.341 21 12 21C11.659 21 11.332 20.8645 11.0909 20.6234C10.8497 20.3823 10.7143 20.0553 10.7143 19.7143V13.2857H4.28571C3.94472 13.2857 3.6177 13.1503 3.37658 12.9091C3.13546 12.668 3 12.341 3 12C3 11.659 3.13546 11.332 3.37658 11.0909C3.6177 10.8497 3.94472 10.7143 4.28571 10.7143H10.7143V4.28571C10.7143 3.94472 10.8497 3.61769 11.0909 3.37658C11.332 3.13546 11.659 3 12 3C12.341 3 12.668 3.13546 12.9091 3.37658C13.1503 3.61769 13.2857 3.94472 13.2857 4.28571V10.7143H19.7143C20.0553 10.7143 20.3823 10.8497 20.6234 11.0909C20.8645 11.332 21 11.659 21 12C21 12.341 20.8645 12.668 20.6234 12.9091C20.3823 13.1503 20.0553 13.2857 19.7143 13.2857Z"/>
</svg>
