<svg width="28" height="28" viewBox="0 0 28 28" fill="none" stroke="currentColor" xmlns="http://www.w3.org/2000/svg">
<path d="M12.1337 24.4563H11.1362C7.53646 24.4563 5.73546 24.4563 4.61718 23.3203C3.49889 22.1843 3.5 20.3556 3.5 16.6982V11.1566C3.5 7.4992 3.5 5.67049 4.61939 4.53558C5.73546 3.39735 7.53646 3.39735 11.1362 3.39735H14.4091C18.01 3.39735 20.1136 3.45942 21.2318 4.59432C22.3512 5.73145 22.3401 7.49809 22.3401 11.1555V12.4711M18.4012 2.33337V4.54999M12.8597 2.33337V4.54999M7.31812 2.33337V4.54999M8.48739 16.7414H12.9206M8.48739 11.1998H17.3539" stroke-width="2" stroke-linecap="round" stroke-linejoin="round"/>
<path opacity="0.93" d="M23.7378 16.6072C22.7337 15.4823 22.1319 15.5499 21.4635 15.7505C20.9947 15.817 19.3899 17.69 18.7205 18.2885C17.6221 19.3725 16.5183 20.4896 16.4462 20.6359C16.2379 20.974 16.045 21.5725 15.9508 22.2419C15.7768 23.246 15.5263 24.3754 15.8433 24.4729C16.1603 24.5704 17.048 24.3842 18.0511 24.2368C18.7205 24.1149 19.1882 23.9819 19.5229 23.7813C19.9917 23.4998 20.8606 22.5101 22.3602 21.0371C23.2989 20.0474 24.2055 19.3636 24.4737 18.6953C24.7408 17.6912 24.3407 17.1558 23.7378 16.6072Z" stroke-width="2" stroke-linecap="round" stroke-linejoin="round"/>
</svg>
