<svg width="26" height="26" viewBox="0 0 26 26" fill="currentColor" xmlns="http://www.w3.org/2000/svg">
<path d="M21.5584 13.7148C21.3847 13.5171 21.2889 13.263 21.2889 12.9998C21.2889 12.7367 21.3847 12.4825 21.5584 12.2848L22.945 10.7248C23.0978 10.5544 23.1927 10.3399 23.2161 10.1122C23.2394 9.88452 23.1901 9.65526 23.075 9.45735L20.9084 5.70901C20.7945 5.51133 20.6212 5.35463 20.413 5.26126C20.2049 5.16788 19.9726 5.1426 19.7492 5.18901L17.7125 5.60068C17.4534 5.65423 17.1836 5.61107 16.9541 5.47935C16.7246 5.34762 16.5512 5.13645 16.4667 4.88568L15.8059 2.90318C15.7332 2.68801 15.5947 2.50112 15.41 2.36892C15.2254 2.23673 15.0038 2.16593 14.7767 2.16651H10.4434C10.2071 2.15418 9.97334 2.21952 9.77773 2.35254C9.58211 2.48556 9.43541 2.67895 9.36003 2.90318L8.75336 4.88568C8.66886 5.13645 8.4955 5.34762 8.26599 5.47935C8.03647 5.61107 7.76668 5.65423 7.50753 5.60068L5.4167 5.18901C5.20496 5.15909 4.9891 5.1925 4.79632 5.28504C4.60354 5.37757 4.44246 5.52509 4.33336 5.70901L2.1667 9.45735C2.04879 9.65305 1.99577 9.88102 2.01523 10.1087C2.03469 10.3363 2.12562 10.552 2.27503 10.7248L3.65086 12.2848C3.82454 12.4825 3.92033 12.7367 3.92033 12.9998C3.92033 13.263 3.82454 13.5171 3.65086 13.7148L2.27503 15.2748C2.12562 15.4477 2.03469 15.6634 2.01523 15.891C1.99577 16.1187 2.04879 16.3466 2.1667 16.5423L4.33336 20.2907C4.44722 20.4884 4.62058 20.6451 4.82872 20.7384C5.03686 20.8318 5.26917 20.8571 5.49253 20.8107L7.5292 20.399C7.78835 20.3455 8.05814 20.3886 8.28765 20.5203C8.51717 20.6521 8.69053 20.8632 8.77503 21.114L9.43586 23.0965C9.51124 23.3207 9.65794 23.5141 9.85356 23.6472C10.0492 23.7802 10.283 23.8455 10.5192 23.8332H14.8525C15.0796 23.8338 15.3012 23.763 15.4859 23.6308C15.6706 23.4986 15.809 23.3117 15.8817 23.0965L16.5425 21.114C16.627 20.8632 16.8004 20.6521 17.0299 20.5203C17.2594 20.3886 17.5292 20.3455 17.7884 20.399L19.825 20.8107C20.0484 20.8571 20.2807 20.8318 20.4888 20.7384C20.697 20.6451 20.8703 20.4884 20.9842 20.2907L23.1509 16.5423C23.2659 16.3444 23.3153 16.1152 23.2919 15.8875C23.2685 15.6598 23.1737 15.4453 23.0209 15.2748L21.5584 13.7148ZM19.9442 15.1665L20.8109 16.1415L19.4242 18.5465L18.1459 18.2865C17.3656 18.127 16.554 18.2596 15.865 18.659C15.176 19.0584 14.6577 19.6968 14.4084 20.4532L13.9967 21.6665H11.2234L10.8334 20.4315C10.584 19.6752 10.0657 19.0367 9.37672 18.6373C8.68774 18.2379 7.8761 18.1054 7.09586 18.2648L5.81753 18.5248L4.4092 16.1307L5.27586 15.1557C5.80881 14.5598 6.10346 13.7884 6.10346 12.989C6.10346 12.1896 5.80881 11.4182 5.27586 10.8223L4.4092 9.84735L5.79586 7.46401L7.0742 7.72401C7.85444 7.8835 8.66608 7.75097 9.35505 7.35156C10.044 6.95216 10.5624 6.31368 10.8117 5.55735L11.2234 4.33318H13.9967L14.4084 5.56818C14.6577 6.32452 15.176 6.96299 15.865 7.36239C16.554 7.7618 17.3656 7.89434 18.1459 7.73485L19.4242 7.47485L20.8109 9.87985L19.9442 10.8548C19.4172 11.4493 19.1262 12.2163 19.1262 13.0107C19.1262 13.8051 19.4172 14.572 19.9442 15.1665ZM12.61 8.66651C11.753 8.66651 10.9152 8.92066 10.2026 9.39681C9.48995 9.87296 8.93453 10.5497 8.60655 11.3416C8.27857 12.1334 8.19276 13.0047 8.35996 13.8452C8.52716 14.6858 8.93987 15.4579 9.5459 16.064C10.1519 16.67 10.9241 17.0827 11.7646 17.2499C12.6052 17.4171 13.4765 17.3313 14.2683 17.0033C15.0601 16.6753 15.7369 16.1199 16.2131 15.4073C16.6892 14.6947 16.9434 13.8569 16.9434 12.9998C16.9434 11.8506 16.4868 10.7484 15.6742 9.93572C14.8615 9.12306 13.7593 8.66651 12.61 8.66651ZM12.61 15.1665C12.1815 15.1665 11.7626 15.0394 11.4063 14.8014C11.05 14.5633 10.7723 14.2249 10.6083 13.829C10.4443 13.4331 10.4014 12.9974 10.485 12.5772C10.5686 12.1569 10.775 11.7708 11.078 11.4678C11.381 11.1648 11.767 10.9584 12.1873 10.8748C12.6076 10.7912 13.0433 10.8341 13.4392 10.9981C13.8351 11.1621 14.1735 11.4398 14.4115 11.7961C14.6496 12.1524 14.7767 12.5713 14.7767 12.9998C14.7767 13.5745 14.5484 14.1256 14.1421 14.5319C13.7358 14.9382 13.1847 15.1665 12.61 15.1665Z"/>
</svg>
