<svg width="20" height="20" viewBox="0 0 20 20" fill="none" xmlns="http://www.w3.org/2000/svg">
<path d="M3.3335 5.83333H16.6668M8.3335 9.16667V14.1667M11.6668 9.16667V14.1667M4.16683 5.83333L5.00016 15.8333C5.00016 16.2754 5.17576 16.6993 5.48832 17.0118C5.80088 17.3244 6.2248 17.5 6.66683 17.5H13.3335C13.7755 17.5 14.1994 17.3244 14.512 17.0118C14.8246 16.6993 15.0002 16.2754 15.0002 15.8333L15.8335 5.83333M7.50016 5.83333V3.33333C7.50016 3.11232 7.58796 2.90036 7.74424 2.74408C7.90052 2.5878 8.11248 2.5 8.3335 2.5H11.6668C11.8878 2.5 12.0998 2.5878 12.2561 2.74408C12.4124 2.90036 12.5002 3.11232 12.5002 3.33333V5.83333" stroke="#E53935" stroke-width="2" stroke-linecap="round" stroke-linejoin="round"/>
</svg>
