<svg width="20" height="20" viewBox="0 0 20 20" fill="none" xmlns="http://www.w3.org/2000/svg">
<g clip-path="url(#clip0_976_920)">
<path d="M14.0001 3.07096C15.2068 3.76765 16.2105 4.76741 16.912 5.97125C17.6135 7.17509 17.9885 8.54127 17.9997 9.93455C18.011 11.3278 17.6582 12.6999 16.9762 13.9149C16.2942 15.1299 15.3068 16.1458 14.1115 16.8619C12.9163 17.5779 11.5548 17.9695 10.1618 17.9977C8.76875 18.0259 7.39251 17.6897 6.16929 17.0226C4.94608 16.3554 3.91832 15.3804 3.18775 14.194C2.45718 13.0075 2.04913 11.6509 2.004 10.2583L2 9.99908L2.004 9.73987C2.0488 8.35824 2.45084 7.01179 3.17093 5.8318C3.89101 4.6518 4.90456 3.67853 6.11276 3.00686C7.32097 2.33519 8.6826 1.98805 10.0649 1.99929C11.4472 2.01052 12.803 2.37974 14.0001 3.07096ZM8.80888 7.71104C8.64126 7.61126 8.44297 7.57616 8.25128 7.61234C8.0596 7.64852 7.88774 7.75349 7.76803 7.9075C7.64832 8.06152 7.589 8.25397 7.60124 8.44865C7.61347 8.64334 7.69642 8.82684 7.83447 8.96466L8.86808 9.99908L7.83447 11.0335L7.76807 11.1087C7.64374 11.2695 7.58527 11.4716 7.60455 11.6739C7.62382 11.8763 7.71939 12.0637 7.87185 12.1981C8.0243 12.3325 8.22221 12.4039 8.42537 12.3977C8.62853 12.3915 8.82172 12.3082 8.96568 12.1647L10.0001 11.1311L11.0345 12.1647L11.1097 12.2311C11.2705 12.3554 11.4726 12.4139 11.6749 12.3946C11.8773 12.3754 12.0647 12.2798 12.1991 12.1273C12.3336 11.9749 12.4049 11.777 12.3987 11.5738C12.3925 11.3706 12.3092 11.1775 12.1657 11.0335L11.1321 9.99908L12.1657 8.96466L12.2321 8.88946C12.3565 8.72866 12.4149 8.52657 12.3956 8.32423C12.3764 8.12188 12.2808 7.93447 12.1283 7.80004C11.9759 7.66561 11.778 7.59425 11.5748 7.60045C11.3717 7.60666 11.1785 7.68996 11.0345 7.83344L10.0001 8.86706L8.96568 7.83344L8.89048 7.76704L8.80888 7.71104Z" fill="#212121"/>
</g>
<defs>
<clipPath id="clip0_976_920">
<rect width="20" height="20" fill="white"/>
</clipPath>
</defs>
</svg>
