<svg width="32" height="32" viewBox="0 0 32 32" fill="none" xmlns="http://www.w3.org/2000/svg">
<circle cx="16" cy="16" r="16" fill="#FAFAFA"/>
<g clip-path="url(#clip0_3218_2991)">
<path d="M29.1275 16C29.1275 18.5965 28.3576 21.1347 26.915 23.2936C25.4725 25.4526 23.4221 27.1352 21.0233 28.1289C18.6244 29.1225 15.9847 29.3825 13.4381 28.876C10.8915 28.3694 8.55227 27.1191 6.71626 25.283C4.88025 23.447 3.62991 21.1078 3.12335 18.5612C2.6168 16.0146 2.87678 13.3749 3.87042 10.9761C4.86407 8.57719 6.54674 6.52684 8.70567 5.0843C10.8646 3.64175 13.4028 2.8718 15.9993 2.8718C19.4811 2.8718 22.8203 4.25494 25.2824 6.71696C27.7444 9.17897 29.1275 12.5182 29.1275 16ZM22.227 14.7692H17.2301V9.77231C17.2301 9.44589 17.1004 9.13284 16.8696 8.90202C16.6388 8.67121 16.3257 8.54154 15.9993 8.54154C15.6729 8.54154 15.3598 8.67121 15.129 8.90202C14.8982 9.13284 14.7685 9.44589 14.7685 9.77231V14.7692H9.77161C9.44519 14.7692 9.13214 14.8989 8.90133 15.1297C8.67051 15.3605 8.54084 15.6736 8.54084 16C8.54084 16.3264 8.67051 16.6395 8.90133 16.8703C9.13214 17.1011 9.44519 17.2308 9.77161 17.2308H14.7685V22.2277C14.7685 22.5541 14.8982 22.8672 15.129 23.098C15.3598 23.3288 15.6729 23.4585 15.9993 23.4585C16.3257 23.4585 16.6388 23.3288 16.8696 23.098C17.1004 22.8672 17.2301 22.5541 17.2301 22.2277V17.2308H22.227C22.5534 17.2308 22.8665 17.1011 23.0973 16.8703C23.3281 16.6395 23.4578 16.3264 23.4578 16C23.4578 15.6736 23.3281 15.3605 23.0973 15.1297C22.8665 14.8989 22.5534 14.7692 22.227 14.7692Z" fill="#4F7942"/>
</g>
<defs>
<clipPath id="clip0_3218_2991">
<rect width="29.5385" height="29.5385" fill="white" transform="translate(1.23047 1.23077)"/>
</clipPath>
</defs>
</svg>
