<svg width="20" height="20" viewBox="0 0 20 20" fill="none" xmlns="http://www.w3.org/2000/svg">
<path fill-rule="evenodd" clip-rule="evenodd" d="M8.74997 1.66699C7.62046 1.66709 6.50735 1.9373 5.50351 2.45507C4.49967 2.97285 3.63421 3.72317 2.97933 4.64345C2.32445 5.56373 1.89914 6.62728 1.73889 7.74536C1.57864 8.86344 1.68809 10.0036 2.05812 11.0708C2.42814 12.138 3.04801 13.1012 3.866 13.8801C4.68399 14.659 5.67639 15.231 6.7604 15.5483C7.8444 15.8657 8.98859 15.9192 10.0975 15.7044C11.2064 15.4896 12.2478 15.0128 13.135 14.3137L16.1783 17.357C16.3355 17.5088 16.546 17.5928 16.7645 17.5909C16.983 17.589 17.192 17.5013 17.3465 17.3468C17.501 17.1923 17.5886 16.9833 17.5905 16.7648C17.5924 16.5463 17.5084 16.3358 17.3566 16.1787L14.3133 13.1353C15.1366 12.0908 15.6493 10.8357 15.7926 9.51343C15.9358 8.1912 15.704 6.85534 15.1235 5.65874C14.543 4.46213 13.6374 3.45312 12.5102 2.74718C11.3831 2.04125 10.0799 1.6669 8.74997 1.66699ZM3.3333 8.75033C3.3333 7.31374 3.90398 5.93599 4.91981 4.92016C5.93563 3.90434 7.31338 3.33366 8.74997 3.33366C10.1866 3.33366 11.5643 3.90434 12.5801 4.92016C13.596 5.93599 14.1666 7.31374 14.1666 8.75033C14.1666 10.1869 13.596 11.5647 12.5801 12.5805C11.5643 13.5963 10.1866 14.167 8.74997 14.167C7.31338 14.167 5.93563 13.5963 4.91981 12.5805C3.90398 11.5647 3.3333 10.1869 3.3333 8.75033Z" fill="#9E9E9E"/>
</svg>
