<svg width="80" height="80" viewBox="0 0 80 80" fill="none" xmlns="http://www.w3.org/2000/svg">
<path d="M75.5098 19.011H75.069V6.96937C75.069 6.05414 74.8882 5.14787 74.537 4.30231C74.1858 3.45675 73.671 2.68845 73.0221 2.04128C72.3731 1.39411 71.6027 0.88076 70.7548 0.530516C69.9069 0.180272 68.9982 6.70375e-07 68.0804 0H42.4983C40.6449 -3.38465e-06 38.8673 0.734259 37.5567 2.04127C36.2461 3.34827 35.5098 5.12096 35.5098 6.96935V73.0306C35.5098 73.9459 35.6905 74.8521 36.0417 75.6977C36.3929 76.5433 36.9077 77.3115 37.5567 77.9587C38.2056 78.6059 38.976 79.1192 39.8239 79.4695C40.6718 79.8197 41.5806 80 42.4983 80H68.0804C69.9339 80 71.7115 79.2657 73.0221 77.9587C74.3327 76.6517 75.069 74.8791 75.069 73.0307V27.5824H75.5098L75.5098 19.011Z" fill="#E5E5E5"/>
<path d="M68.3424 1.95655H65.0083C65.1616 2.3306 65.2202 2.73643 65.1787 3.13829C65.1373 3.54015 64.9972 3.92571 64.7708 4.26099C64.5443 4.59628 64.2385 4.87101 63.8802 5.06098C63.5219 5.25094 63.1222 5.35032 62.7162 5.35035H48.0834C47.6774 5.35032 47.2777 5.25094 46.9194 5.06098C46.5611 4.87101 46.2552 4.59628 46.0288 4.26099C45.8023 3.9257 45.6622 3.54015 45.6208 3.13829C45.5794 2.73643 45.6379 2.33059 45.7912 1.95654H42.6772C41.2952 1.95654 39.9698 2.50282 38.9925 3.47522C38.0153 4.44761 37.4663 5.76647 37.4663 7.14164V72.8584C37.4663 73.5393 37.6011 74.2136 37.863 74.8427C38.1248 75.4717 38.5087 76.0433 38.9925 76.5248C39.4764 77.0063 40.0508 77.3882 40.683 77.6488C41.3153 77.9094 41.9929 78.0435 42.6772 78.0435H68.3424C69.0267 78.0435 69.7043 77.9094 70.3365 77.6488C70.9687 77.3882 71.5432 77.0063 72.027 76.5248C72.5109 76.0433 72.8947 75.4717 73.1566 74.8427C73.4185 74.2136 73.5533 73.5393 73.5533 72.8584V7.14165C73.5533 6.46073 73.4185 5.78648 73.1566 5.15739C72.8947 4.52831 72.5109 3.95671 72.027 3.47522C71.5432 2.99374 70.9687 2.61181 70.3365 2.35124C69.7043 2.09066 69.0267 1.95655 68.3424 1.95655Z" fill="white"/>
<path d="M68.3424 1.95655H65.0083C65.1616 2.3306 65.2202 2.73643 65.1787 3.13829C65.1373 3.54015 64.9972 3.92571 64.7708 4.26099C64.5443 4.59628 64.2385 4.87101 63.8802 5.06098C63.5219 5.25094 63.1222 5.35032 62.7162 5.35035H48.0834C47.6774 5.35032 47.2777 5.25094 46.9194 5.06098C46.5611 4.87101 46.2552 4.59628 46.0288 4.26099C45.8023 3.9257 45.6622 3.54015 45.6208 3.13829C45.5794 2.73643 45.6379 2.33059 45.7912 1.95654H42.6772C41.2952 1.95654 39.9698 2.50282 38.9925 3.47522C38.0153 4.44761 37.4663 5.76647 37.4663 7.14164V72.8584C37.4663 73.5393 37.6011 74.2136 37.863 74.8427C38.1248 75.4717 38.5087 76.0433 38.9925 76.5248C39.4764 77.0063 40.0508 77.3882 40.683 77.6488C41.3153 77.9094 41.9929 78.0435 42.6772 78.0435H68.3424C69.0267 78.0435 69.7043 77.9094 70.3365 77.6488C70.9687 77.3882 71.5432 77.0063 72.027 76.5248C72.5109 76.0433 72.8947 75.4717 73.1566 74.8427C73.4185 74.2136 73.5533 73.5393 73.5533 72.8584V7.14165C73.5533 6.46073 73.4185 5.78648 73.1566 5.15739C72.8947 4.52831 72.5109 3.95671 72.027 3.47522C71.5432 2.99374 70.9687 2.61181 70.3365 2.35124C69.7043 2.09066 69.0267 1.95655 68.3424 1.95655Z" fill="white"/>
<path d="M66.3793 43.4783H44.6401V57.8261H66.3793V43.4783Z" fill="#E6E6E6"/>
<path d="M66.3793 32.3914H44.6401V38.2609H66.3793V32.3914Z" fill="#E6E6E6"/>
<path d="M53.8348 36.4625C54.3571 36.4625 54.7805 36.0391 54.7805 35.5168C54.7805 34.9945 54.3571 34.5712 53.8348 34.5712C53.3125 34.5712 52.8892 34.9945 52.8892 35.5168C52.8892 36.0391 53.3125 36.4625 53.8348 36.4625Z" fill="#A5A5A5"/>
<path d="M50.5858 36.4566C51.1081 36.4566 51.5314 36.0332 51.5314 35.5109C51.5314 34.9886 51.1081 34.5652 50.5858 34.5652C50.0635 34.5652 49.6401 34.9886 49.6401 35.5109C49.6401 36.0332 50.0635 36.4566 50.5858 36.4566Z" fill="#A5A5A5"/>
<path d="M57.0042 36.4625C57.5265 36.4625 57.9499 36.0391 57.9499 35.5168C57.9499 34.9945 57.5265 34.5712 57.0042 34.5712C56.482 34.5712 56.0586 34.9945 56.0586 35.5168C56.0586 36.0391 56.482 36.4625 57.0042 36.4625Z" fill="#A5A5A5"/>
<path d="M60.2347 36.4625C60.757 36.4625 61.1804 36.0391 61.1804 35.5168C61.1804 34.9945 60.757 34.5712 60.2347 34.5712C59.7124 34.5712 59.2891 34.9945 59.2891 35.5168C59.2891 36.0391 59.7124 36.4625 60.2347 36.4625Z" fill="#A5A5A5"/>
<path d="M61.1298 23.6418L49.5913 23.7646L49.6078 25.3102L61.1462 25.1874L61.1298 23.6418Z" fill="#68E1FD"/>
<path d="M49.2331 20.0132L45.2269 20.0558C44.5425 20.0631 43.9937 20.6238 44.001 21.3081L44.0659 27.4012C44.0731 28.0855 44.6338 28.6344 45.3181 28.6271L49.3244 28.5844C50.0087 28.5772 50.5576 28.0165 50.5503 27.3322L50.4854 21.2391C50.4781 20.5547 49.9175 20.0059 49.2331 20.0132Z" fill="#24285B"/>
<path d="M65.489 20.0132L61.4827 20.0558C60.7984 20.0631 60.2496 20.6238 60.2568 21.3081L60.3217 27.4012C60.329 28.0855 60.8897 28.6344 61.574 28.6271L65.5803 28.5844C66.2646 28.5772 66.8134 28.0165 66.8061 27.3322L66.7413 21.2391C66.734 20.5547 66.1733 20.0059 65.489 20.0132Z" fill="#24285B"/>
<rect x="42.0312" y="66.087" width="26.7391" height="7.3913" rx="3.69565" fill="#1ABC9C"/>
<path d="M12.6273 40.8347L5.85205 41.7712L6.02604 43.03L12.8013 42.0934L12.6273 40.8347Z" fill="#FF2D55"/>
<path d="M5.72246 39.8898L5.19958 39.9621C4.89061 40.0048 4.67476 40.2899 4.71747 40.5989L5.2278 44.2908C5.27051 44.5998 5.5556 44.8157 5.86457 44.7729L6.38745 44.7007C6.69642 44.658 6.91227 44.3729 6.86956 44.0639L6.35923 40.3719C6.31652 40.063 6.03143 39.8471 5.72246 39.8898Z" fill="#FF2D55"/>
<path d="M13.4515 38.822L12.9286 38.8943C12.6196 38.937 12.4038 39.2221 12.4465 39.5311L12.9568 43.223C12.9995 43.532 13.2846 43.7478 13.5936 43.7051L14.1165 43.6329C14.4254 43.5902 14.6413 43.3051 14.5986 42.9961L14.0882 39.3041C14.0455 38.9952 13.7604 38.7793 13.4515 38.822Z" fill="#FF2D55"/>
<path d="M18.8148 64.2365L12.7116 63.715L12.6313 66.0527L18.818 66.749L18.8148 64.2365Z" fill="#F4A28C"/>
<path d="M38.6215 43.0069C38.6215 43.0069 43.8054 44.223 48.7342 40.3195C48.7342 40.3195 48.6701 37.5037 50.7831 37.247C52.8945 36.9903 53.5347 40.2553 51.5516 41.4073C49.5669 42.5592 44.5836 49.216 37.1872 47.9998C29.7908 46.7837 35.6149 41.0238 38.6232 43.0069H38.6215Z" fill="#F4A28C"/>
<g opacity="0.08">
<path d="M38.6215 43.0069C38.6215 43.0069 43.8054 44.223 48.7342 40.3195C48.7342 40.3195 48.6701 37.5037 50.7831 37.247C52.8945 36.9903 53.5347 40.2553 51.5516 41.4073C49.5669 42.5592 44.5836 49.216 37.1872 47.9998C29.7908 46.7837 35.6149 41.0238 38.6232 43.0069H38.6215Z" fill="#000001"/>
</g>
<path d="M32.8681 22.5007L31.0166 29.0259L34.3586 30.5533L34.2174 24.9217L32.8681 22.5007Z" fill="#F4A28C"/>
<g opacity="0.31">
<path d="M34.2527 25.9165C34.2527 25.9165 33.2018 25.6004 32.4766 25.1207C32.4766 25.1207 32.4798 27.0476 34.2944 27.9814L34.2527 25.9165Z" fill="#CE8172"/>
</g>
<path d="M35.4958 21.7819C35.4958 21.7819 36.1472 23.9944 36.0702 25.5684C36.0397 26.2069 35.4878 26.7075 34.8492 26.6674C34.0567 26.6177 32.9993 26.3208 32.5068 25.1769L31.4318 23.3398C31.4318 23.3398 30.7981 22.1654 31.8875 20.9909C32.9769 19.8165 35.1653 20.415 35.4942 21.7819H35.4958Z" fill="#F4A28C"/>
<path d="M35.8343 23.197L36.6397 23.9399C36.8386 24.1228 36.7793 24.4517 36.5274 24.5544L35.6963 24.8913L35.8327 23.197H35.8343Z" fill="#F4A28C"/>
<path d="M35.0966 20.7295C35.0966 20.7295 36.5839 22.7768 33.4841 24.2031L31.7417 25.7867C31.7417 25.7867 30.1646 24.2352 29.9833 22.4158C29.8004 20.5947 33.1536 17.6298 35.0966 20.7295Z" fill="#24285B"/>
<path d="M33.4855 24.2029C33.4855 24.2029 33.2929 23.3365 32.6528 23.5355C32.0126 23.7344 32.2838 24.9891 33.1951 24.9265L33.4855 24.2029Z" fill="#F4A28C"/>
<path d="M42.5265 42.7308C40.5419 48.8115 31.7737 56.832 31.7737 56.832L24.9469 53.8109L19.6138 51.454C19.6138 51.454 19.6202 51.4428 19.6282 51.4219C19.6346 51.4139 19.6394 51.3995 19.6459 51.385C19.6539 51.3658 19.6651 51.3401 19.6796 51.3112C19.8191 51.0128 20.1641 50.2523 20.5957 49.1709C20.6021 49.1565 20.6069 49.142 20.6133 49.1276C20.7706 48.7313 20.9406 48.2933 21.1171 47.82C21.1251 47.8023 21.1283 47.7863 21.1348 47.7719C22.253 44.7459 23.6152 40.2696 23.8366 35.9649C24.0131 32.5571 25.4218 30.7313 26.9059 29.7558C28.682 28.5862 30.5672 28.6311 30.5672 28.6311L35.3451 30.8179C35.3451 30.8179 44.5128 36.6516 42.5282 42.7308H42.5265Z" fill="#68E1FD"/>
<g opacity="0.08">
<path d="M24.9454 53.8126L19.6123 51.4557C19.6123 51.4557 19.6187 51.4444 19.6267 51.4236C19.63 51.4123 19.6348 51.4011 19.6444 51.3867C19.6524 51.3674 19.6636 51.3417 19.6781 51.3129C19.8289 50.9679 20.2364 50.0406 20.5942 49.1726C20.6006 49.1581 20.6054 49.1437 20.6119 49.1292C20.8172 48.6303 21.0049 48.1554 21.1156 47.8216C21.1237 47.804 21.1269 47.7879 21.1333 47.7735C22.2516 44.7476 23.6137 40.2712 23.8351 35.9666C24.0116 32.5588 25.4203 30.7329 26.9044 29.7574L31.0182 29.0258C31.0182 29.0258 38.4434 37.9207 30.8978 41.1521C24.7047 43.8026 25.4765 51.6289 24.9454 53.8126Z" fill="#000001"/>
</g>
<path d="M36.3558 68.3953L36.3959 76.6212H33.654C33.654 76.6212 33.0876 68.2332 31.1318 62.6129L34.453 61.392C34.453 61.392 36.8564 65.464 36.3558 68.3953Z" fill="#F4A28C"/>
<path d="M25.6205 36.4495C30.7787 39.7 35.9883 32.7657 31.4767 28.6632C31.3611 28.5573 31.2408 28.4546 31.1173 28.3535C28.1395 25.9341 24.767 22.5375 17.9225 23.7825C11.078 25.0276 8.3537 29.8425 8.3537 38.2031C8.3537 38.2031 6.10109 44.0801 9.549 43.7127C12.3551 43.4143 10.3496 39.5364 10.3496 39.5364C10.3496 39.5364 14.1906 32.2218 17.0272 29.9002C18.7359 28.5028 21.6736 33.961 25.6189 36.4479L25.6205 36.4495Z" fill="#F4A28C"/>
<path d="M19.612 51.4558C19.612 51.4558 17.2711 55.8615 21.2613 58.6259C25.2515 61.392 28.9609 59.3624 32.3703 69.3611L36.476 68.6391C36.476 68.6391 36.476 59.3624 31.7735 56.8306L19.612 51.4542V51.4558Z" fill="#24285B"/>
<path d="M35.2699 75.1547C35.2699 75.1547 37.4696 74.2594 37.5498 75.7243L37.5738 76.1591C37.6156 76.9115 38.2188 77.5116 38.9713 77.5485C39.2007 77.5597 39.4542 77.5485 39.727 77.5068C40.7041 77.3512 41.2079 78.6363 40.3639 79.1529C40.0751 79.3294 39.666 79.4722 39.0964 79.554C36.2454 79.9615 34.0249 80.2872 33.5885 79.1465C33.1521 78.0058 32.337 75.5638 35.2699 75.1563V75.1547Z" fill="#68E1FD"/>
<path d="M13.4768 65.1256C13.4768 65.1256 13.3084 67.4937 11.9575 66.9193L11.558 66.7492C10.8648 66.454 10.0594 66.73 9.69361 67.3894C9.58291 67.59 9.47862 67.821 9.3968 68.0857C9.10479 69.0307 7.72819 68.9152 7.63995 67.9301C7.60947 67.5916 7.66241 67.1632 7.8405 66.6161C8.73417 63.8789 9.42407 61.7418 10.6402 61.8541C11.8564 61.9665 14.4074 62.3162 13.4768 65.1256Z" fill="#68E1FD"/>
<path d="M27.0037 56.7118C27.0037 56.7118 26.3716 67.2641 21.6482 67.2641C19.6122 67.2641 18.3559 67.001 18.3559 67.001L18.1714 63.4263C18.1714 63.4263 21.9578 63.3975 20.4785 55.2871L27.0037 56.7102V56.7118Z" fill="#24285B"/>
<path d="M50.7202 42.2208L48.6264 40.212L46.7524 41.4523L48.9665 43.838L50.7202 42.2208Z" fill="#FFD200"/>
<path d="M33.1744 18.3949C32.8888 17.3472 32.0561 16.4744 31.0373 16.0958C30.0185 15.7172 28.8408 15.8247 27.8846 16.3381C27.6134 16.4841 27.3567 16.6622 27.1562 16.8964C26.9733 17.1082 26.8433 17.3601 26.7454 17.6216C26.2481 18.9661 26.7438 20.6187 27.9103 21.453C29.988 22.9371 33.9461 21.2203 33.1744 18.3949Z" fill="#24285B"/>
<path d="M10.3515 39.538C10.1365 39.477 8.06201 39.1032 8.06201 39.1032L8.37808 36.9404L11.4409 37.5774L10.3515 39.538Z" fill="#FFD200"/>
<path d="M53.7125 40.2853L48.1953 36.2429L47.4443 37.2679L52.9615 41.3103L53.7125 40.2853Z" fill="#FF2D55"/>
<path d="M49.4131 34.801L48.9873 34.489C48.7357 34.3047 48.3823 34.3592 48.198 34.6108L45.9951 37.6172C45.8108 37.8688 45.8653 38.2222 46.1169 38.4066L46.5427 38.7185C46.7943 38.9029 47.1477 38.8484 47.3321 38.5968L49.5349 35.5903C49.7192 35.3387 49.6647 34.9853 49.4131 34.801Z" fill="#FF2D55"/>
<path d="M55.7066 39.4132L55.2808 39.1012C55.0292 38.9169 54.6758 38.9714 54.4914 39.223L52.2886 42.2295C52.1043 42.4811 52.1588 42.8345 52.4104 43.0188L52.8362 43.3308C53.0878 43.5151 53.4412 43.4606 53.6255 43.209L55.8283 40.2026C56.0127 39.951 55.9582 39.5976 55.7066 39.4132Z" fill="#FF2D55"/>
<path d="M50.746 38.2338C50.9081 38.2418 51.0797 38.2611 51.2049 38.3638C51.33 38.4648 51.3782 38.6782 51.2578 38.7873C51.2049 38.8371 51.1295 38.8547 51.0589 38.8724C50.685 38.9606 50.3112 39.0488 49.9374 39.1387C50.1764 39.3248 50.3706 39.5815 50.4396 39.8767C50.5086 40.1719 50.4396 40.5057 50.2262 40.7223C50.0128 40.9389 49.6518 41.0078 49.3919 40.8522C49.1849 40.7287 49.0694 40.4928 49.0197 40.2586C48.933 39.8559 49.0132 39.2285 49.2042 38.8531C49.4898 38.2948 50.1893 38.2065 50.746 38.2354V38.2338Z" fill="#F4A28C"/>
<g opacity="0.08">
<path d="M50.746 38.2338C50.9081 38.2418 51.0797 38.2611 51.2049 38.3638C51.33 38.4648 51.3782 38.6782 51.2578 38.7873C51.2049 38.8371 51.1295 38.8547 51.0589 38.8724C50.685 38.9606 50.3112 39.0488 49.9374 39.1387C50.1764 39.3248 50.3706 39.5815 50.4396 39.8767C50.5086 40.1719 50.4396 40.5057 50.2262 40.7223C50.0128 40.9389 49.6518 41.0078 49.3919 40.8522C49.1849 40.7287 49.0694 40.4928 49.0197 40.2586C48.933 39.8559 49.0132 39.2285 49.2042 38.8531C49.4898 38.2948 50.1893 38.2065 50.746 38.2354V38.2338Z" fill="#000001"/>
</g>
</svg>
