<?xml version="1.0" encoding="UTF-8"?>
<svg width="500" height="500" viewBox="0 0 500 500" fill="none" xmlns="http://www.w3.org/2000/svg">
  <path d="M500 250C500 388.071 388.071 500 250 500C111.929 500 0 388.071 0 250C0 111.929 111.929 0 250 0C388.071 0 500 111.929 500 250Z" fill="#4F7942"/>
  <path d="M490 250C490 117.452 382.548 10 250 10C117.452 10 10 117.452 10 250C10 382.548 117.452 490 250 490V500C111.929 500 0 388.071 0 250C0 111.929 111.929 0 250 0C388.071 0 500 111.929 500 250C500 388.071 388.071 500 250 500V490C382.548 490 490 382.548 490 250Z" fill="white"/>
  <g id="dumbbell">
    <path d="M282.631 250C277.03 250 274.23 250 272.091 248.91C270.209 247.951 268.68 246.421 267.721 244.54C266.631 242.401 266.631 239.6 266.631 234L266.631 230.4C266.631 224.799 266.631 221.999 265.541 219.86C264.582 217.978 263.052 216.449 261.171 215.49C259.032 214.4 256.231 214.4 250.631 214.4L245.365 214.4C239.764 214.4 236.964 214.4 234.825 215.49C232.943 216.449 231.413 217.978 230.455 219.86C229.365 221.999 229.365 224.799 229.365 230.4L229.365 234C229.365 239.6 229.365 242.401 228.275 244.54C227.316 246.421 225.786 247.951 223.905 248.91C221.766 250 218.965 250 213.365 250L193.998 250C188.397 250 185.597 250 183.458 248.91C181.576 247.951 180.047 246.421 179.088 244.54C177.998 242.401 177.998 239.6 177.998 234L177.998 164C177.998 158.399 177.998 155.599 179.088 153.46C180.047 151.578 181.576 150.049 183.458 149.09C185.597 148 188.397 148 193.998 148L213.365 148C218.965 148 221.766 148 223.905 149.09C225.786 150.049 227.316 151.578 228.275 153.46C229.365 155.599 229.365 158.399 229.365 164L229.365 168.62C229.365 174.22 229.365 177.021 230.455 179.16C231.413 181.041 232.943 182.571 234.825 183.53C236.964 184.62 239.764 184.62 245.365 184.62L250.631 184.62C256.231 184.62 259.032 184.62 261.171 183.53C263.052 182.571 264.582 181.041 265.541 179.16C266.631 177.021 266.631 174.22 266.631 168.62L266.631 164C266.631 158.399 266.631 155.599 267.721 153.46C268.68 151.578 270.209 150.049 272.091 149.09C274.23 148 277.03 148 282.631 148L301.998 148C307.598 148 310.399 148 312.538 149.09C314.419 150.049 315.949 151.578 316.908 153.46C317.998 155.599 317.998 158.399 317.998 164L317.998 234C317.998 239.6 317.998 242.401 316.908 244.54C315.949 246.421 314.419 247.951 312.538 248.91C310.399 250 307.598 250 301.998 250L282.631 250Z" fill="white"/>
    <rect x="348" y="235.999" width="22" height="73.9999" rx="10" transform="rotate(180 348 235.999)" fill="white"/>
    <rect x="170" y="235.999" width="22" height="73.9999" rx="10" transform="rotate(180 170 235.999)" fill="white"/>
    <animateTransform attributeName="transform"
                      type="translate"
                      dur="0.9s"
                      repeatCount="indefinite"
                      values="0,-40; 0,-10; 0,-40"
                      keyTimes="0; 0.5; 1"
                      />
  </g>
  <path d="M364.5 247C364.5 304.5 260.5 295 248 345M400 190C459 376 269.5 328.5 248 410.5C269.5 328.5 432.5 351.5 400 190Z" stroke="white" stroke-width="16" stroke-linecap="round"/>
  <path d="M399.997 190C427.5 353.5 269.499 289.5 247.997 410.5M364.5 246C352.5 310.5 247.997 266.5 247.997 344.5" stroke="white" stroke-width="16" stroke-linecap="round"/>
  <path d="M131.833 247C131.833 304.5 235.833 295 248.334 345M96.3342 190C37.3336 376 226.834 328.5 248.334 410.5C226.834 328.5 63.8335 351.5 96.3342 190Z" stroke="white" stroke-width="16" stroke-linecap="round"/>
  <path d="M96.3357 190C68.8333 353.5 226.834 289.5 248.336 410.5M131.833 246C143.833 310.5 248.336 266.5 248.336 344.5" stroke="white" stroke-width="16" stroke-linecap="round"/>
</svg>
