<svg width="40" height="40" viewBox="0 0 40 40" fill="none" xmlns="http://www.w3.org/2000/svg">
<path d="M20 4.49902C23.5806 4.49902 27.015 5.92125 29.5469 8.45312C32.0787 10.985 33.501 14.4194 33.501 18C33.5009 21.5804 32.0785 25.0141 29.5469 27.5459L20 37.0928L10.4531 27.5459C9.19956 26.2924 8.20483 24.8038 7.52637 23.166C6.84798 21.5282 6.49906 19.7727 6.49902 18C6.49902 16.227 6.84784 14.471 7.52637 12.833C8.20487 11.1951 9.19945 9.7067 10.4531 8.45312C12.985 5.92126 16.4194 4.49903 20 4.49902ZM20 13.5C18.8067 13.5 17.6622 13.9737 16.8184 14.8174C15.9744 15.6613 15.5 16.8065 15.5 18C15.5001 19.1934 15.9745 20.3378 16.8184 21.1816C17.6623 22.0255 18.8066 22.5 20 22.5C21.1934 22.5 22.3377 22.0255 23.1816 21.1816C24.0255 20.3378 24.4999 19.1934 24.5 18C24.5 16.8065 24.0256 15.6613 23.1816 14.8174C22.3378 13.9737 21.1933 13.5 20 13.5Z" fill="black" stroke="black"/>
</svg>
