<svg width="30" height="36" viewBox="0 0 30 36" fill="none" xmlns="http://www.w3.org/2000/svg">
<path d="M15 0.5C18.8464 0.5 22.5349 2.01885 25.2539 4.72168C27.9728 7.42463 29.5 11.0908 29.5 14.9121C29.4999 18.7332 27.9727 22.3987 25.2539 25.1016L15 35.2949L4.74609 25.1016C3.39971 23.7632 2.33202 22.1741 1.60352 20.4258C0.875085 18.6776 0.500055 16.8041 0.5 14.9121C0.5 13.0199 0.875015 11.1458 1.60352 9.39746C2.33202 7.64919 3.39973 6.06 4.74609 4.72168C7.46506 2.01878 11.1536 0.500042 15 0.5ZM15 10.1514C13.7318 10.1514 12.5148 10.6526 11.6172 11.5449C10.7196 12.4374 10.2148 13.6488 10.2148 14.9121C10.215 16.1753 10.7197 17.386 11.6172 18.2783C12.5148 19.1707 13.7318 19.6718 15 19.6719C16.2682 19.6719 17.4851 19.1707 18.3828 18.2783C19.2804 17.3859 19.785 16.1753 19.7852 14.9121C19.7852 13.6487 19.2805 12.4374 18.3828 11.5449C17.4851 10.6525 16.2682 10.1514 15 10.1514Z" fill="black" stroke="black"/>
</svg>
