<svg width="100" height="100" viewBox="0 0 100 100" fill="none" xmlns="http://www.w3.org/2000/svg">
<path d="M51 78.125C66.533 78.125 79.125 65.533 79.125 50C79.125 34.467 66.533 21.875 51 21.875C35.467 21.875 22.875 34.467 22.875 50C22.875 65.533 35.467 78.125 51 78.125Z" fill="#8BC34A"/>
<path d="M30.8704 28.7252C31.5019 28.2349 32.2786 27.9688 33.0781 27.9688H68.8619C69.4543 27.9688 70.0376 28.1149 70.5599 28.3944L71.2942 28.7871C71.5685 28.9339 71.8227 29.1155 72.0503 29.3276L73.0692 30.2769C73.2546 30.4496 73.4212 30.6414 73.5663 30.8491L74.73 32.5148C74.8429 32.6765 74.936 32.8511 75.0072 33.0349V33.0349C75.6336 34.6526 74.4321 36.3926 72.6974 36.3801L28.8559 36.0624C27.3544 36.0515 26.3519 34.5106 26.9503 33.1334V33.1334C27.0204 32.9722 27.1104 32.8204 27.2184 32.6817L28.8801 30.5469L30.2041 29.2425L30.8704 28.7252Z" fill="#E53935"/>
<path d="M18.006 51.575C16.9824 51.575 16.1526 50.7452 16.1526 49.7216V49.7216C16.1526 48.6979 15.3227 47.8681 14.2991 47.8681L13.4916 47.8681C12.4679 47.8681 11.6381 48.6979 11.6381 49.7216V49.7216C11.6381 50.7452 10.8083 51.575 9.7847 51.575L8.52685 51.575C6.80853 51.575 5.41556 50.182 5.41556 48.4637L5.41556 42.33C5.41556 40.6117 6.80853 39.2188 8.52685 39.2188L9.72291 39.2188C10.7807 39.2188 11.6381 40.0762 11.6381 41.134V41.134C11.6381 42.1917 12.4956 43.0492 13.5534 43.0492L14.2373 43.0492C15.2951 43.0492 16.1525 42.1917 16.1525 41.134V41.134C16.1525 40.0762 17.01 39.2188 18.0678 39.2188L19.2638 39.2188C20.9822 39.2188 22.3751 40.6117 22.3751 42.33L22.3751 48.4637C22.3751 50.182 20.9822 51.575 19.2638 51.575L18.006 51.575Z" fill="black"/>
<path d="M26.0092 48.5464C26.0092 49.2823 25.4126 49.8789 24.6766 49.8789V49.8789C23.9407 49.8789 23.3441 49.2823 23.3441 48.5464L23.3441 42.2471C23.3441 41.5112 23.9407 40.9146 24.6766 40.9146V40.9146C25.4126 40.9146 26.0092 41.5112 26.0092 42.2471L26.0092 48.5464Z" fill="black"/>
<path d="M4.44617 48.5464C4.44617 49.2823 3.84957 49.8789 3.11363 49.8789V49.8789C2.37769 49.8789 1.78109 49.2823 1.78109 48.5464L1.78109 42.2471C1.78109 41.5112 2.37769 40.9146 3.11363 40.9146V40.9146C3.84957 40.9146 4.44617 41.5112 4.44617 42.2471L4.44617 48.5464Z" fill="black"/>
<path d="M15.2753 43.4675C17.7511 44.0838 19.2937 46.5189 18.8355 48.9942C18.8426 49.0271 18.8518 49.0707 18.8683 49.1245C18.9507 49.3944 19.1297 49.7586 19.4286 50.1109C19.9495 50.7249 20.8771 51.3713 22.6087 51.2825C25.2562 51.1467 27.5124 53.1836 27.6482 55.8311C27.7838 58.4783 25.7484 60.7342 23.1012 60.8702C18.242 61.1195 14.4718 59.1088 12.1073 56.3215C9.99559 53.8322 8.64959 50.2182 9.45874 46.9665C10.099 44.3942 12.703 42.8276 15.2753 43.4675Z" fill="#8BC34A"/>
<path d="M46.3125 54.2188C48.1875 53.5938 53.8125 53.5938 55.6875 54.2188Z" fill="#212121"/>
<path d="M51 51.3496C52.876 51.3496 55.1032 51.4935 56.4469 51.9414C57.7041 52.3607 58.3836 53.7204 57.9645 54.9777C57.5452 56.235 56.1855 56.9144 54.9281 56.4953C54.3965 56.3182 52.8736 56.1496 51 56.1496C49.1264 56.1496 47.6035 56.3182 47.0719 56.4953C45.8145 56.9144 44.4548 56.235 44.0356 54.9777C43.6164 53.7204 44.2959 52.3607 45.5531 51.9414C46.8968 51.4935 49.124 51.3496 51 51.3496Z" fill="#212121"/>
<path d="M46.3125 54.2187C46.5469 64.0625 55.6875 64.0625 55.6875 54.2187Z" fill="#212121"/>
<path d="M53.2875 54.2182C53.2875 56.3303 52.7952 57.6557 52.289 58.3795C51.7965 59.0838 51.3302 59.201 51.0879 59.201C50.7715 59.201 48.8172 58.6083 48.7113 54.1607C48.6796 52.8358 47.5801 51.7878 46.2551 51.8193C44.9301 51.851 43.8821 52.9506 43.9137 54.2756C44.0422 59.6717 46.7754 64.001 51.0879 64.001C55.4469 64.001 58.0875 59.6081 58.0875 54.2182C58.0875 52.8927 57.013 51.8182 55.6875 51.8182C54.362 51.8182 53.2875 52.8927 53.2875 54.2182Z" fill="#212121"/>
<path d="M40.6875 50.6875C43.2763 50.6875 45.375 48.5888 45.375 46C45.375 43.4112 43.2763 41.3125 40.6875 41.3125C38.0987 41.3125 36 43.4112 36 46C36 48.5888 38.0987 50.6875 40.6875 50.6875Z" fill="#212121"/>
<path d="M61.3125 50.6875C63.9013 50.6875 66 48.5888 66 46C66 43.4112 63.9013 41.3125 61.3125 41.3125C58.7237 41.3125 56.625 43.4112 56.625 46C56.625 48.5888 58.7237 50.6875 61.3125 50.6875Z" fill="#212121"/>
<path d="M43.9688 45.5469C43.9688 46.453 43.2342 47.1875 42.3281 47.1875C41.422 47.1875 40.6875 46.453 40.6875 45.5469C40.6875 44.6408 41.422 43.9062 42.3281 43.9062C43.2342 43.9062 43.9688 44.6408 43.9688 45.5469Z" fill="white"/>
<path d="M64.5938 45.5469C64.5938 46.453 63.8592 47.1875 62.9531 47.1875C62.047 47.1875 61.3125 46.453 61.3125 45.5469C61.3125 44.6408 62.047 43.9062 62.9531 43.9062C63.8592 43.9062 64.5938 44.6408 64.5938 45.5469Z" fill="white"/>
<path d="M89.9062 62.6001C89.6161 59.9651 87.2444 58.0644 84.6093 58.3544C81.9746 58.6447 80.0737 61.0154 80.3636 63.6501C80.4671 64.5898 80.408 65.2272 80.325 65.6224C80.2801 65.5972 80.2308 65.5711 80.1797 65.5392C79.5371 65.1388 78.5876 64.2765 77.5828 62.6517C76.1885 60.3972 73.2303 59.7003 70.9758 61.0943C68.7212 62.4886 68.0231 65.4467 69.4172 67.7013C72.3974 72.5201 77.2129 76.3273 82.5668 75.2505C88.6112 74.0345 90.4918 67.9197 89.9062 62.6001Z" fill="#8BC34A"/>
<path d="M89.256 65.6375C88.2324 65.6375 87.4026 64.8077 87.4026 63.7841V63.7841C87.4026 62.7604 86.5727 61.9306 85.5491 61.9306L84.7416 61.9306C83.7179 61.9306 82.8881 62.7604 82.8881 63.7841V63.7841C82.8881 64.8077 82.0583 65.6375 81.0347 65.6375L79.7769 65.6375C78.0585 65.6375 76.6656 64.2445 76.6656 62.5262L76.6656 56.3925C76.6656 54.6742 78.0585 53.2813 79.7768 53.2813L80.9729 53.2813C82.0307 53.2813 82.8881 54.1387 82.8881 55.1965V55.1965C82.8881 56.2542 83.7456 57.1117 84.8034 57.1117L85.4873 57.1117C86.5451 57.1117 87.4025 56.2542 87.4025 55.1965V55.1965C87.4025 54.1387 88.26 53.2813 89.3178 53.2813L90.5138 53.2813C92.2322 53.2813 93.6251 54.6742 93.6251 56.3925L93.6251 62.5262C93.6251 64.2445 92.2322 65.6375 90.5138 65.6375L89.256 65.6375Z" fill="black"/>
<path d="M97.2592 62.6089C97.2592 63.3448 96.6626 63.9414 95.9266 63.9414V63.9414C95.1907 63.9414 94.5941 63.3448 94.5941 62.6089L94.5941 56.3096C94.5941 55.5737 95.1907 54.9771 95.9266 54.9771V54.9771C96.6626 54.9771 97.2592 55.5737 97.2592 56.3096L97.2592 62.6089Z" fill="black"/>
<path d="M75.6962 62.6089C75.6962 63.3448 75.0996 63.9414 74.3636 63.9414V63.9414C73.6277 63.9414 73.0311 63.3448 73.0311 62.6089L73.0311 56.3096C73.0311 55.5737 73.6277 54.9771 74.3636 54.9771V54.9771C75.0996 54.9771 75.6962 55.5737 75.6962 56.3096L75.6962 62.6089Z" fill="black"/>
<path d="M45.2362 40.3455C46.0679 40.89 46.3008 42.0056 45.7563 42.8374C45.2118 43.6691 44.0961 43.9019 43.2644 43.3574L39.2141 40.7059C38.3824 40.1614 38.1495 39.0457 38.694 38.214C39.2385 37.3823 40.3542 37.1494 41.1859 37.6939L45.2362 40.3455Z" fill="black"/>
<path d="M58.5171 43.3783C57.6744 43.9053 56.5636 43.6499 56.0364 42.8073C55.5091 41.9647 55.765 40.8541 56.6074 40.3266L60.8452 37.6746C61.6879 37.1473 62.7985 37.4029 63.3259 38.2456C63.8533 39.0883 63.5976 40.199 62.7549 40.7263L58.5171 43.3783Z" fill="black"/>
</svg>
