<svg width="24" height="24" viewBox="0 0 24 24" fill="none" xmlns="http://www.w3.org/2000/svg">
<rect width="24" height="24" rx="12" fill="currentColor"/>
<path d="M7.27516 5.81226C6.73133 5.56209 6.13386 6.04068 6.28916 6.60139L7.42763 10.6982C7.45617 10.8012 7.51548 10.8938 7.59821 10.9646C7.68093 11.0353 7.78343 11.0811 7.89296 11.0963L13.4747 11.8642C13.6362 11.886 13.6362 12.1111 13.4747 12.1334L7.89353 12.9008C7.784 12.9159 7.6815 12.9618 7.59877 13.0325C7.51604 13.1033 7.45673 13.1959 7.4282 13.2989L6.28916 17.3979C6.13386 17.958 6.73133 18.4366 7.27516 18.187L19.4155 12.6131C19.9514 12.3673 19.9514 11.632 19.4155 11.3856L7.27516 5.81226Z" fill="white"/>
</svg>
