<svg width="53" height="21" viewBox="0 0 53 21" fill="none" xmlns="http://www.w3.org/2000/svg">
<path d="M12.6509 9.248C12.6322 9.34133 12.5575 9.5 12.4269 9.724C12.2962 9.92933 12.0909 10.0507 11.8109 10.088C11.5682 10.1253 11.3255 10.172 11.0829 10.228C10.8589 10.2653 10.6162 10.3027 10.3549 10.34C10.1495 11.18 9.99086 12.0387 9.87886 12.916C9.76686 13.7933 9.66419 14.6613 9.57086 15.52C9.53352 15.8747 9.43086 16.1733 9.26286 16.416C9.11352 16.6587 8.88952 16.7613 8.59086 16.724C8.27352 16.6867 8.06819 16.5467 7.97486 16.304C7.90019 16.0613 7.86286 15.8093 7.86286 15.548C7.86286 15.212 7.87219 14.8387 7.89086 14.428C7.92819 13.9987 7.97486 13.5693 8.03086 13.14C8.08686 12.692 8.14286 12.2533 8.19886 11.824C8.27352 11.3947 8.35752 11.012 8.45086 10.676C7.42419 10.8627 6.38819 11.0587 5.34286 11.264C4.29752 11.4693 3.32686 11.6747 2.43086 11.88C2.00152 11.9733 1.62819 11.9733 1.31086 11.88C1.01219 11.7867 0.834855 11.6 0.778855 11.32C0.741522 11.0773 0.862855 10.8533 1.14286 10.648C1.42286 10.4427 1.73086 10.2933 2.06686 10.2C2.73886 10.0507 3.46686 9.892 4.25086 9.724C5.03486 9.53733 5.82819 9.36933 6.63086 9.22C7.45219 9.052 8.26419 8.92133 9.06686 8.828C9.88819 8.716 10.6722 8.65067 11.4189 8.632C11.8109 8.632 12.1189 8.70667 12.3429 8.856C12.5669 8.98667 12.6695 9.11733 12.6509 9.248ZM8.39486 1.184C8.60019 1.22133 8.77752 1.33333 8.92686 1.52C9.09486 1.688 9.21619 1.90267 9.29086 2.164C9.36552 2.40667 9.39352 2.67733 9.37486 2.976C9.37486 3.27467 9.30952 3.57333 9.17886 3.872C9.06686 4.11467 8.90819 4.376 8.70286 4.656C8.51619 4.936 8.29219 5.20667 8.03086 5.468C7.78819 5.72933 7.51752 5.96267 7.21886 6.168C6.93886 6.37333 6.64952 6.51333 6.35086 6.588C6.10819 6.66267 5.85619 6.69067 5.59486 6.672C5.35219 6.65333 5.11886 6.588 4.89486 6.476C4.67086 6.364 4.48419 6.21467 4.33486 6.028C4.18552 5.84133 4.08286 5.61733 4.02686 5.356C3.98952 5.11333 3.99886 4.796 4.05486 4.404C4.12952 4.012 4.23219 3.61067 4.36286 3.2C4.51219 2.77067 4.68952 2.36 4.89486 1.968C5.10019 1.576 5.31486 1.24933 5.53886 0.987999C5.68819 0.838666 5.84686 0.707999 6.01486 0.595999C6.18286 0.465332 6.38819 0.399999 6.63086 0.399999C6.83619 0.399999 6.98552 0.493332 7.07886 0.679998C7.19086 0.866666 7.24686 1.06267 7.24686 1.268C7.47086 1.19333 7.66686 1.156 7.83486 1.156C8.02152 1.13733 8.20819 1.14667 8.39486 1.184ZM6.09886 15.408C6.06152 15.5947 6.02419 15.8187 5.98686 16.08C5.94952 16.3413 5.91219 16.612 5.87486 16.892C5.85619 17.1533 5.83752 17.4147 5.81886 17.676C5.80019 17.9373 5.79086 18.1707 5.79086 18.376C6.44419 18.264 7.05086 18.1427 7.61086 18.012C8.17086 17.8813 8.72152 17.7413 9.26286 17.592C9.82286 17.4427 10.3922 17.2747 10.9709 17.088C11.5495 16.8827 12.1935 16.6587 12.9029 16.416C13.2202 16.304 13.4442 16.2667 13.5749 16.304C13.7055 16.3413 13.7802 16.4627 13.7989 16.668C13.8362 17.0227 13.7242 17.3027 13.4629 17.508C13.2202 17.6947 12.9495 17.8627 12.6509 18.012C12.2589 18.2173 11.7922 18.432 11.2509 18.656C10.7095 18.88 10.1309 19.0947 9.51486 19.3C8.91752 19.5053 8.29219 19.6827 7.63886 19.832C7.00419 19.9813 6.38819 20.084 5.79086 20.14C5.41752 20.1773 5.11886 20.1493 4.89486 20.056C4.67086 19.9627 4.49352 19.8413 4.36286 19.692C4.23219 19.524 4.13886 19.356 4.08286 19.188C4.02686 19.02 3.99886 18.88 3.99886 18.768C3.96152 18.4507 3.96152 18.012 3.99886 17.452C4.03619 16.892 4.10152 16.388 4.19486 15.94C4.26952 15.6787 4.40019 15.3893 4.58686 15.072C4.77352 14.7547 5.01619 14.568 5.31486 14.512C5.94952 14.4 6.21086 14.6987 6.09886 15.408ZM6.04286 4.88C6.15486 4.88 6.29486 4.81467 6.46286 4.684C6.63086 4.53467 6.79886 4.36667 6.96686 4.18C7.15352 3.97467 7.31219 3.76933 7.44286 3.564C7.59219 3.35867 7.68552 3.172 7.72286 3.004C7.81619 2.85467 7.82552 2.73333 7.75086 2.64C7.67619 2.528 7.57352 2.42533 7.44286 2.332C7.29352 2.23867 7.11619 2.14533 6.91086 2.052C6.79886 2.22 6.68686 2.45333 6.57486 2.752C6.48152 3.032 6.39752 3.312 6.32286 3.592C6.24819 3.872 6.18286 4.13333 6.12686 4.376C6.08952 4.61867 6.06152 4.78667 6.04286 4.88ZM19.9923 6.728C19.899 6.87733 19.6937 6.99867 19.3763 7.092C19.0777 7.16667 18.7323 7.22267 18.3403 7.26C17.9483 7.29733 17.547 7.32533 17.1363 7.344C16.7443 7.344 16.4177 7.33467 16.1563 7.316C16.399 7.50267 16.5017 7.71733 16.4643 7.96C16.3523 8.8 16.2683 9.68667 16.2123 10.62C16.175 11.5533 16.203 12.44 16.2963 13.28C16.9123 13.112 17.7057 12.8133 18.6763 12.384C19.647 11.936 20.627 11.292 21.6163 10.452C21.9897 10.116 22.2603 10.004 22.4283 10.116C22.559 10.2093 22.587 10.3587 22.5123 10.564C22.4563 10.7507 22.3723 10.9373 22.2603 11.124C22.0363 11.516 21.7283 11.9267 21.3363 12.356C20.9443 12.7667 20.4963 13.168 19.9923 13.56C19.507 13.9333 18.975 14.288 18.3963 14.624C17.8363 14.9413 17.2577 15.2027 16.6603 15.408C16.343 15.5013 16.0537 15.5107 15.7923 15.436C15.5497 15.3613 15.335 15.24 15.1483 15.072C14.9803 14.8853 14.831 14.6707 14.7003 14.428C14.5883 14.1667 14.523 13.896 14.5043 13.616C14.3923 12.552 14.3643 11.4693 14.4203 10.368C14.4763 9.248 14.579 8.212 14.7283 7.26C14.3363 7.22267 14.0283 7.11067 13.8043 6.924C13.599 6.71867 13.4963 6.49467 13.4963 6.252C13.4963 6.17733 13.515 6.10267 13.5523 6.028C13.6083 5.93467 13.739 5.86 13.9443 5.804C14.075 5.76667 14.3457 5.72 14.7563 5.664C15.167 5.608 15.6337 5.57067 16.1563 5.552C16.679 5.53333 17.211 5.53333 17.7523 5.552C18.3123 5.57067 18.7977 5.636 19.2083 5.748C19.5257 5.84133 19.759 5.99067 19.9083 6.196C20.0577 6.38267 20.0857 6.56 19.9923 6.728ZM26.0123 14.204C26.0123 14.5213 25.9003 14.736 25.6763 14.848C25.4523 14.96 25.219 14.9973 24.9763 14.96C24.827 14.9227 24.6683 14.8293 24.5003 14.68C24.3323 14.5307 24.2297 14.316 24.1923 14.036C24.1363 13.1213 24.0897 12.188 24.0523 11.236C24.0337 10.284 24.0243 9.36 24.0243 8.464C24.0243 7.568 24.0337 6.71867 24.0523 5.916C24.071 5.09467 24.099 4.36667 24.1363 3.732C24.1363 3.564 24.2017 3.40533 24.3323 3.256C24.4817 3.10667 24.659 3.032 24.8643 3.032C25.219 3.032 25.4897 3.18133 25.6763 3.48C25.8817 3.77867 25.9843 4.05867 25.9843 4.32C25.947 4.91733 25.919 5.524 25.9003 6.14C25.8817 6.756 25.863 7.38133 25.8443 8.016C26.535 7.77333 27.291 7.60533 28.1123 7.512C28.9337 7.4 29.8857 7.39067 30.9683 7.484C31.267 7.52133 31.547 7.61467 31.8083 7.764C32.0883 7.91333 32.2283 8.1 32.2283 8.324C32.135 8.64133 31.9577 8.84667 31.6963 8.94C31.435 9.03333 31.155 9.07067 30.8563 9.052C30.6697 9.052 30.427 9.06133 30.1283 9.08C29.8483 9.09867 29.5403 9.136 29.2043 9.192C28.8683 9.22933 28.5137 9.28533 28.1403 9.36C27.767 9.43467 27.4123 9.50933 27.0763 9.584C26.8337 9.64 26.6097 9.64 26.4043 9.584C26.199 9.528 26.0123 9.444 25.8443 9.332C25.8443 11.0493 25.9003 12.6733 26.0123 14.204ZM39.1636 3.648C39.1449 3.38667 39.1636 3.172 39.2196 3.004C39.2942 2.836 39.3782 2.70533 39.4716 2.612C39.5649 2.5 39.6676 2.42533 39.7796 2.388C39.8916 2.332 39.9942 2.304 40.0876 2.304C40.3302 2.304 40.5262 2.388 40.6756 2.556C40.8249 2.724 40.9182 3.06933 40.9556 3.592C40.9929 4.208 41.0209 4.908 41.0396 5.692C41.0582 6.45733 41.0676 7.25067 41.0676 8.072C41.4036 8.03467 41.6649 8.09067 41.8516 8.24C42.0569 8.37067 42.1596 8.53867 42.1596 8.744C42.1596 8.968 42.0662 9.192 41.8796 9.416C41.7116 9.64 41.4502 9.82667 41.0956 9.976C41.0582 9.99467 41.0396 10.004 41.0396 10.004C41.0022 10.8067 40.9556 11.5533 40.8996 12.244C40.8436 12.9347 40.7689 13.5133 40.6756 13.98C40.5449 14.5587 40.3209 15.016 40.0036 15.352C39.6862 15.688 39.3036 15.8093 38.8556 15.716C38.5196 15.6413 38.2209 15.4733 37.9596 15.212C37.6982 14.932 37.4836 14.6053 37.3156 14.232C37.1476 13.84 37.0262 13.4107 36.9516 12.944C36.8956 12.4773 36.8862 12.02 36.9236 11.572C36.9422 11.404 36.9796 11.1987 37.0356 10.956C37.0916 10.6947 37.2036 10.4333 37.3716 10.172C37.5396 9.892 37.7729 9.62133 38.0716 9.36C38.3702 9.09867 38.7622 8.856 39.2476 8.632C39.2476 7.81067 39.2382 6.98 39.2196 6.14C39.2196 5.28133 39.2009 4.45067 39.1636 3.648ZM47.4796 11.124C47.4982 11.3667 47.4422 11.6093 47.3116 11.852C47.1809 12.0947 46.9849 12.216 46.7236 12.216C46.4996 12.216 46.2942 12.0947 46.1076 11.852C45.9396 11.6093 45.8369 11.3667 45.7996 11.124C45.5382 9.42533 45.3982 7.77333 45.3796 6.168C45.3796 4.56267 45.4169 2.98533 45.4916 1.436C45.5289 1.00667 45.6409 0.726666 45.8276 0.595999C46.0329 0.446666 46.2289 0.381332 46.4156 0.399999C46.6396 0.399999 46.8542 0.511999 47.0596 0.735999C47.2649 0.941332 47.3582 1.212 47.3396 1.548C47.3022 2.25733 47.2742 2.948 47.2556 3.62C47.2556 4.27333 47.2556 4.908 47.2556 5.524C47.8716 5.37467 48.4409 5.25333 48.9636 5.16C49.5049 5.048 50.1302 4.94533 50.8396 4.852C51.2129 4.796 51.5676 4.81467 51.9036 4.908C52.2396 4.98267 52.4356 5.132 52.4916 5.356C52.5289 5.50533 52.4822 5.68267 52.3516 5.888C52.2396 6.09333 51.9129 6.27067 51.3716 6.42C50.7182 6.62533 50.0369 6.80267 49.3276 6.952C48.6369 7.08267 47.9462 7.16667 47.2556 7.204C47.2742 7.89467 47.3022 8.56667 47.3396 9.22C47.3769 9.85467 47.4236 10.4893 47.4796 11.124ZM48.2636 14.232C48.6929 14.288 48.9729 14.484 49.1036 14.82C49.2529 15.1373 49.3182 15.5013 49.2996 15.912C49.2809 16.36 49.1596 16.836 48.9356 17.34C48.7116 17.844 48.4222 18.3107 48.0676 18.74C47.7129 19.1507 47.3209 19.496 46.8916 19.776C46.4622 20.0373 46.0422 20.168 45.6316 20.168C45.2582 20.168 44.9409 20.056 44.6796 19.832C44.4369 19.608 44.2689 19.3373 44.1756 19.02C44.0636 18.6653 43.9982 18.292 43.9796 17.9C43.9796 17.4893 44.0169 17.0973 44.0916 16.724C44.1849 16.3507 44.3156 15.996 44.4836 15.66C44.6702 15.3053 44.8849 15.0067 45.1276 14.764C45.2769 14.6147 45.4542 14.4747 45.6596 14.344C45.8836 14.2133 46.0982 14.1667 46.3036 14.204C46.3969 14.2413 46.4716 14.2973 46.5276 14.372C46.6022 14.428 46.6396 14.5307 46.6396 14.68C46.8449 14.5307 47.0876 14.4093 47.3676 14.316C47.6476 14.2227 47.9462 14.1947 48.2636 14.232ZM33.3396 4.824C33.3769 4.6 33.4422 4.41333 33.5356 4.264C33.6289 4.096 33.8342 4.03067 34.1516 4.068C34.3756 4.08667 34.5529 4.152 34.6836 4.264C34.8142 4.376 34.9169 4.50667 34.9916 4.656C35.0849 4.78667 35.1409 4.936 35.1596 5.104C35.1782 5.272 35.1876 5.42133 35.1876 5.552C35.1502 6.168 35.1316 6.84 35.1316 7.568C35.1502 8.296 35.1689 9.052 35.1876 9.836C35.2249 10.6013 35.2716 11.3853 35.3276 12.188C35.4022 12.972 35.4956 13.728 35.6076 14.456C35.6636 14.792 35.6636 15.0533 35.6076 15.24C35.5516 15.4267 35.4676 15.576 35.3556 15.688C35.2622 15.7813 35.1596 15.8467 35.0476 15.884C34.9356 15.9027 34.8609 15.912 34.8236 15.912C34.6742 15.912 34.5436 15.8747 34.4316 15.8C34.3196 15.7067 34.2169 15.5853 34.1236 15.436C34.0489 15.2867 33.9836 15.1187 33.9276 14.932C33.8902 14.7453 33.8529 14.5587 33.8156 14.372C33.6662 13.6813 33.5542 12.9253 33.4796 12.104C33.4049 11.2827 33.3489 10.452 33.3116 9.612C33.2929 8.75333 33.2836 7.91333 33.2836 7.092C33.3022 6.27067 33.3209 5.51467 33.3396 4.824ZM45.9116 18.236C46.0236 18.1613 46.1542 18.0587 46.3036 17.928C46.4716 17.7787 46.6396 17.6107 46.8076 17.424C46.9756 17.2373 47.1249 17.0227 47.2556 16.78C47.4049 16.5187 47.5169 16.2293 47.5916 15.912C47.6662 15.5947 47.5916 15.408 47.3676 15.352C47.1622 15.2773 46.8449 15.3333 46.4156 15.52C46.2102 16.024 46.0609 16.5373 45.9676 17.06C45.8929 17.5827 45.8742 17.9747 45.9116 18.236ZM38.2116 12.636C38.2116 12.7293 38.2209 12.8507 38.2396 13C38.2582 13.1307 38.2862 13.2707 38.3236 13.42C38.3609 13.5507 38.4076 13.672 38.4636 13.784C38.5196 13.8773 38.5849 13.924 38.6596 13.924C38.8089 13.924 38.9116 13.7747 38.9676 13.476C39.0236 13.1773 39.0702 12.804 39.1076 12.356C39.1449 11.8893 39.1822 11.3667 39.2196 10.788C38.5476 11.2733 38.2116 11.8893 38.2116 12.636Z" fill="#4F7942"/>
</svg>
