<svg width="35" height="35" viewBox="0 0 35 35" fill="none" xmlns="http://www.w3.org/2000/svg">
<path d="M33.1928 18.7265L34.1606 17.4639L33.1928 16.2014L33.9537 14.8043L32.8007 13.7085L33.3325 12.2089L32.0215 11.3078L32.3105 9.74362L30.8742 9.06083L30.9152 7.47084L29.3898 7.0203L29.182 5.44342L27.6047 5.23517L27.1546 3.70936L25.5637 3.74996L24.8805 2.31322L23.3167 2.60222L22.4161 1.29121L20.9169 1.82339L19.8202 0.669971L18.4236 1.43091L17.1611 0.46347L15.8976 1.43091L14.5011 0.669971L13.4048 1.82339L11.9057 1.29121L11.005 2.60222L9.44123 2.31322L8.758 3.74996L7.16802 3.70849L6.71748 5.23386L5.14059 5.44211L4.93234 7.01856L3.40654 7.46997L3.44714 9.05908L2.01082 9.74275L2.29983 11.307L0.988816 12.2081L1.52056 13.7068L0.367578 14.8035L1.12852 16.2005L0.160645 17.463L1.12852 18.7256L0.367578 20.1226L1.52056 21.2184L0.988816 22.7171L2.29983 23.6182L2.01039 25.1825L3.4467 25.8652L3.4061 27.4552L4.93147 27.9066L5.13971 29.4831L6.7166 29.6905L7.16714 31.2163L8.75713 31.1757L9.44036 32.6124L11.0046 32.3234L11.9052 33.6344L13.4048 33.1022L14.5011 34.2552L15.8981 33.4943L17.1611 34.4626L18.4236 33.4943L19.8207 34.2552L20.9164 33.1022L22.4156 33.6344L23.3167 32.3234L24.8801 32.6124L25.5633 31.1765L27.1537 31.2171L27.6038 29.6913L29.1811 29.484L29.3889 27.9066L30.9143 27.4561L30.8742 25.8661L32.3105 25.1825L32.021 23.6182L33.3325 22.718L32.8003 21.2184L33.9537 20.1226L33.1928 18.7265ZM17.1606 31.7065C9.29411 31.7065 2.91801 25.3291 2.91801 17.463C2.91801 9.59693 9.29411 3.22041 17.1606 3.22041C25.0267 3.22041 31.4037 9.59737 31.4037 17.463C31.4037 25.3287 25.0267 31.7065 17.1606 31.7065Z" fill="#4F7942"/>
<path d="M17.1602 4.29221C9.89747 4.29221 3.98938 10.2012 3.98938 17.4635C3.98938 24.7263 9.89747 30.6348 17.1602 30.6348C24.423 30.6348 30.3315 24.7263 30.3315 17.4635C30.3315 10.2012 24.423 4.29221 17.1602 4.29221ZM17.1602 29.7162C10.4043 29.7162 4.90836 24.2198 4.90836 17.4639C4.90836 10.708 10.4048 5.21162 17.1602 5.21162C23.9157 5.21162 29.4125 10.708 29.4125 17.4639C29.4125 24.2198 23.9161 29.7162 17.1602 29.7162Z" fill="#4F7942"/>
<path d="M16.5287 7.24103C16.5645 7.38204 16.5898 7.52829 16.6012 7.68065C16.6937 8.81485 16.0655 9.79059 15.1989 9.86132C14.5353 9.91501 13.8822 9.31298 13.5906 8.57081L12.7589 8.56732L14.5733 12.4519H17.1312V7.24146L16.5287 7.24103Z" fill="#4F7942"/>
<path d="M17.7355 7.24103C17.7005 7.38204 17.6752 7.52829 17.6626 7.68065C17.57 8.81485 18.1987 9.79059 19.0653 9.86132C19.7288 9.91501 20.382 9.31298 20.6736 8.57081L21.5052 8.56732L19.6909 12.4519H17.1326V7.24146L17.7355 7.24103Z" fill="#4F7942"/>
<path d="M13.6117 7.67971C13.6117 7.97134 13.3759 8.20709 13.0843 8.20709C12.7936 8.20709 12.5574 7.97134 12.5574 7.67971C12.5574 7.38896 12.7936 7.15277 13.0843 7.15277C13.3759 7.15277 13.6117 7.38896 13.6117 7.67971Z" fill="#4F7942"/>
<path d="M20.71 7.67977C20.71 7.9714 20.9461 8.20715 21.2369 8.20715C21.5285 8.20715 21.7634 7.9714 21.7634 7.67977C21.7634 7.38902 21.5285 7.15283 21.2369 7.15283C20.9461 7.15283 20.71 7.38902 20.71 7.67977Z" fill="#4F7942"/>
<path d="M17.8367 6.18929C17.8367 6.56256 17.5342 6.8651 17.1609 6.8651C16.7881 6.8651 16.4851 6.56256 16.4851 6.18929C16.4851 5.8169 16.7881 5.51392 17.1609 5.51392C17.5342 5.51392 17.8367 5.8169 17.8367 6.18929Z" fill="#4F7942"/>
<circle cx="17.161" cy="27.7526" r="0.894737" fill="#4F7942"/>
<circle cx="9.84176" cy="24.6214" r="0.894737" fill="#4F7942"/>
<circle cx="6.87106" cy="18.1336" r="0.894737" fill="#4F7942"/>
<circle cx="8.66097" cy="11.8538" r="0.894737" fill="#4F7942"/>
<circle cx="27.4498" cy="18.1336" r="0.894737" fill="#4F7942"/>
<circle cx="25.661" cy="11.8538" r="0.894737" fill="#4F7942"/>
<circle cx="24.7656" cy="24.6214" r="0.894737" fill="#4F7942"/>
</svg>
