<svg width="274" height="85" viewBox="0 0 274 85" fill="none" xmlns="http://www.w3.org/2000/svg">
<path d="M9.78455 3.10156V13H8.26697V4.60547H8.21229L5.84705 6.15039V4.71484L8.30799 3.10156H9.78455ZM14.4877 13.0957C13.9545 13.0957 13.5033 12.6582 13.517 12.125C13.5033 11.5918 13.9545 11.1543 14.4877 11.1543C15.0072 11.1543 15.4584 11.5918 15.4584 12.125C15.4584 12.6582 15.0072 13.0957 14.4877 13.0957ZM27.8223 3.15625C27.8086 6.76562 26.7012 9.97852 22.2305 12.1797L21.5195 11.209C23.7344 10.1221 25.0537 8.80273 25.7852 7.24414L21.7793 7.62695L21.5879 6.50586L26.1816 6.19141C26.3662 5.56934 26.4756 4.90625 26.5234 4.20898H22.2305V3.15625H27.8223ZM30.9941 1.91211V6.80664H32.8945V7.87305H30.9941V14.1484H29.6953V1.91211H30.9941ZM39.9219 3.15625C39.9082 6.76562 38.8008 9.97852 34.3301 12.1797L33.6191 11.209C35.834 10.1221 37.1533 8.80273 37.8848 7.24414L33.8789 7.62695L33.6875 6.50586L38.2812 6.19141C38.4658 5.56934 38.5752 4.90625 38.623 4.20898H34.3301V3.15625H39.9219ZM43.0938 1.91211V6.80664H44.9941V7.87305H43.0938V14.1484H41.7949V1.91211H43.0938ZM51.2285 2.65039C53.8535 2.66406 55.7539 3.94922 55.7539 5.9043C55.7539 7.74316 54.1611 8.95312 51.8711 9.14453V11.5508H56.8613V12.6309H45.6504V11.5508H50.5859V9.14453C48.3096 8.95312 46.7168 7.74316 46.7168 5.9043C46.7168 3.94922 48.6172 2.66406 51.2285 2.65039ZM51.2285 3.7168C49.3418 3.70312 47.9746 4.57812 47.9746 5.9043C47.9746 7.28516 49.3418 8.13281 51.2285 8.14648C53.1289 8.13281 54.4961 7.28516 54.4961 5.9043C54.4961 4.57812 53.1289 3.70312 51.2285 3.7168ZM68.9199 8.47461V9.51367H57.7227V8.47461H62.6719V7.3125H59.1855V2.22656H67.5527V3.25195H60.498V4.25H67.2383V5.23438H60.498V6.31445H67.6348V7.3125H63.9707V8.47461H68.9199ZM67.498 10.498V14.1621H66.1719V11.5371H58.9941V10.498H67.498ZM82.8105 1.91211V6.875H84.7793V7.95508H82.8105V14.1621H81.5254V1.91211H82.8105ZM80.459 3.82617V4.89258H73.1992V3.82617H76.2207V2.07617H77.5195V3.82617H80.459ZM76.877 5.79492C78.627 5.79492 79.9121 6.9707 79.9258 8.63867C79.9121 10.3203 78.627 11.4824 76.877 11.4961C75.1133 11.4824 73.8281 10.3203 73.8281 8.63867C73.8281 6.9707 75.1133 5.79492 76.877 5.79492ZM76.877 6.86133C75.8379 6.86133 75.0586 7.58594 75.0723 8.63867C75.0586 9.70508 75.8379 10.416 76.877 10.4023C77.916 10.416 78.6816 9.70508 78.6816 8.63867C78.6816 7.58594 77.916 6.86133 76.877 6.86133ZM94.9922 1.89844V5.45312H96.7832V6.5332H94.9922V10.7715H93.6934V1.89844H94.9922ZM91.3828 2.95117V4.00391H87.1992V7.57227C89.585 7.5791 90.9316 7.50391 92.4629 7.18945L92.6133 8.24219C90.959 8.57031 89.5098 8.65234 86.8848 8.65234H85.9141V2.95117H91.3828ZM95.5117 12.8496V13.9023H87.2266V9.85547H88.5254V12.8496H95.5117ZM101.459 2.78711C103.4 2.77344 104.781 3.97656 104.795 5.69922C104.781 7.42188 103.4 8.625 101.459 8.625C99.5312 8.625 98.1094 7.42188 98.123 5.69922C98.1094 3.97656 99.5312 2.77344 101.459 2.78711ZM101.459 3.9082C100.27 3.9082 99.3945 4.61914 99.4082 5.69922C99.3945 6.7793 100.27 7.49023 101.459 7.49023C102.648 7.49023 103.523 6.7793 103.523 5.69922C103.523 4.61914 102.648 3.9082 101.459 3.9082ZM107.598 1.91211V14.1895H106.299V1.91211H107.598ZM97.5352 10.4707C99.7637 10.4707 102.854 10.4434 105.533 10.0605L105.629 11.0039C102.854 11.5371 99.8867 11.5508 97.6992 11.5508L97.5352 10.4707ZM114.529 3.10156V6.62891H113.326V3.10156H114.529ZM120.299 5.52148C120.299 7.57227 121.639 9.69141 123.525 10.498L122.814 11.5098C121.372 10.874 120.224 9.52734 119.656 7.88672C119.089 9.63672 117.934 11.127 116.512 11.8242L115.76 10.7988C117.605 9.9375 118.973 7.62695 118.986 5.52148V4.22266H116.184V3.14258H123.088V4.22266H120.299V5.52148ZM125.932 1.91211V14.1621H124.633V1.91211H125.932ZM137.676 2.52734V3.45703C137.676 4.4209 137.676 5.51465 137.361 6.99805H139.098V8.06445H127.887V6.99805H136.049C136.377 5.56934 136.391 4.52344 136.391 3.59375H129.295V2.52734H137.676ZM137.689 9.62305V14.0117H129.254V9.62305H137.689ZM130.525 10.6484V12.959H136.404V10.6484H130.525ZM141.531 3.10156V6.62891H140.328V3.10156H141.531ZM172.006 2.63672V3.68945H168.465V4.93359H171.869V5.93164H168.465V7.28516C170.105 7.27148 171.186 7.20996 172.443 6.9707L172.566 8.03711C171.131 8.2832 169.969 8.33789 168.014 8.33789H167.221V2.63672H172.006ZM177.16 1.92578V8.87109H175.93V5.87695H174.426V8.77539H173.209V2.14453H174.426V4.81055H175.93V1.92578H177.16ZM170.27 9.34961V10.5801H175.889V9.34961H177.16V14.0117H168.984V9.34961H170.27ZM170.27 12.959H175.889V11.6191H170.27V12.959ZM184.393 2.11719C187.154 2.11719 188.768 2.85547 188.768 4.22266C188.768 5.58984 187.154 6.3418 184.393 6.3418C181.631 6.3418 180.018 5.58984 180.018 4.22266C180.018 2.85547 181.631 2.11719 184.393 2.11719ZM184.393 3.07422C182.438 3.07422 181.357 3.49805 181.371 4.22266C181.357 4.97461 182.438 5.37109 184.393 5.37109C186.348 5.37109 187.428 4.97461 187.428 4.22266C187.428 3.49805 186.348 3.07422 184.393 3.07422ZM189.984 7.09375V8.13281H178.814V7.09375H189.984ZM188.576 9.07617V11.9473H181.439V13.041H188.918V14.0391H180.168V11.0039H187.291V10.0469H180.154V9.07617H188.576ZM198.652 4.1543C198.652 5.80859 199.76 7.42188 201.605 8.06445L200.895 9.07617C199.555 8.56348 198.557 7.55176 198.037 6.27344C197.504 7.69531 196.458 8.81641 195.016 9.36328L194.318 8.33789C196.219 7.6543 197.354 5.95898 197.367 4.11328V2.66406H198.652V4.1543ZM204.545 1.92578V11.0586H203.246V5.78125H200.662V4.71484H203.246V1.92578H204.545ZM204.818 12.8496V13.9023H196.547V10.0332H197.859V12.8496H204.818ZM211.723 2.78711V3.83984H208.182V5.20703H211.586V6.20508H208.182V7.69531C209.822 7.68164 210.902 7.62012 212.16 7.38086L212.283 8.44727C210.848 8.7207 209.686 8.77539 207.73 8.76172H206.938V2.78711H211.723ZM216.877 1.92578V9.36328H215.646V6.0957H214.143V9.26758H212.926V2.14453H214.143V5.04297H215.646V1.92578H216.877ZM216.877 9.95117V14.1621H215.592V11.0039H208.551V9.95117H216.877ZM5.02674 30V28.9062L8.45838 25.4473C9.53846 24.3125 10.0853 23.6836 10.0853 22.8223C10.0853 21.8516 9.29236 21.2227 8.2533 21.2227C7.15955 21.2227 6.44861 21.9199 6.44861 22.9727H5.02674C5.01307 21.168 6.39393 19.9648 8.28065 19.9648C10.1947 19.9648 11.5072 21.168 11.5209 22.7812C11.5072 23.8887 10.9877 24.7637 9.1283 26.5957L7.11854 28.6328V28.7148H11.6849V30H5.02674ZM14.4877 30.0957C13.9545 30.0957 13.5033 29.6582 13.517 29.125C13.5033 28.5918 13.9545 28.1543 14.4877 28.1543C15.0072 28.1543 15.4584 28.5918 15.4584 29.125C15.4584 29.6582 15.0072 30.0957 14.4877 30.0957ZM25.6758 20.8672C25.6758 22.4805 26.7969 23.9707 28.6289 24.5723L27.9316 25.5977C26.5918 25.126 25.5869 24.1689 25.0605 22.959C24.5205 24.333 23.4814 25.4062 22.0527 25.9395L21.3555 24.9004C23.2695 24.2168 24.377 22.5898 24.3906 20.7578V19.5547H25.6758V20.8672ZM31.0762 18.9121V21.9883H32.8535V23.082H31.0762V26.3086H29.7773V18.9121H31.0762ZM27.125 26.5957C29.6406 26.5957 31.1855 27.4297 31.1855 28.8652C31.1855 30.3145 29.6406 31.1484 27.125 31.1348C24.582 31.1484 23.0098 30.3145 23.0098 28.8652C23.0098 27.4297 24.582 26.5957 27.125 26.5957ZM27.125 27.6211C25.3477 27.6211 24.2949 28.0859 24.3086 28.8652C24.2949 29.6719 25.3477 30.1094 27.125 30.123C28.8887 30.1094 29.9141 29.6719 29.9141 28.8652C29.9141 28.0859 28.8887 27.6211 27.125 27.6211ZM43.1758 18.8984V22.4531H44.9668V23.5332H43.1758V27.7715H41.877V18.8984H43.1758ZM39.5664 19.9512V21.0039H35.3828V24.5723C37.7686 24.5791 39.1152 24.5039 40.6465 24.1895L40.7969 25.2422C39.1426 25.5703 37.6934 25.6523 35.0684 25.6523H34.0977V19.9512H39.5664ZM43.6953 29.8496V30.9023H35.4102V26.8555H36.709V29.8496H43.6953ZM49.6426 19.7871C51.584 19.7734 52.9648 20.9766 52.9785 22.6992C52.9648 24.4219 51.584 25.625 49.6426 25.625C47.7148 25.625 46.293 24.4219 46.3066 22.6992C46.293 20.9766 47.7148 19.7734 49.6426 19.7871ZM49.6426 20.9082C48.4531 20.9082 47.5781 21.6191 47.5918 22.6992C47.5781 23.7793 48.4531 24.4902 49.6426 24.4902C50.832 24.4902 51.707 23.7793 51.707 22.6992C51.707 21.6191 50.832 20.9082 49.6426 20.9082ZM55.7812 18.9121V31.1895H54.4824V18.9121H55.7812ZM45.7188 27.4707C47.9473 27.4707 51.0371 27.4434 53.7168 27.0605L53.8125 28.0039C51.0371 28.5371 48.0703 28.5508 45.8828 28.5508L45.7188 27.4707ZM70.793 18.9121V21.4688H72.5703V22.5488H70.793V25.1055H69.4941V18.9121H70.793ZM67.375 19.5684V24.5312H61.6465V19.5684H67.375ZM62.918 20.6074V23.4922H66.1035V20.6074H62.918ZM70.793 25.666V28.7695H64.1758V29.9727H71.2168V31.0117H62.9043V27.7988H69.5078V26.6777H62.877V25.666H70.793ZM84.4375 24.8184V25.8711H79.4883V26.9375C81.751 27.0537 83.0703 27.792 83.084 29.0293C83.0703 30.3965 81.498 31.1484 78.8457 31.1348C76.1797 31.1484 74.6074 30.3965 74.6074 29.0293C74.6074 27.7852 75.9268 27.0537 78.2031 26.9375V25.8711H73.2676V24.8184H84.4375ZM83.3848 19.3496V20.416H81.6074V22.7539H83.3301V23.8066H74.3477V22.7539H76.084V20.416H74.293V19.3496H83.3848ZM78.8457 27.9082C76.9727 27.9082 75.9062 28.3047 75.9062 29.0293C75.9062 29.7676 76.9727 30.1641 78.8457 30.1504C80.6914 30.1641 81.7578 29.7676 81.7578 29.0293C81.7578 28.3047 80.6914 27.9082 78.8457 27.9082ZM77.3691 22.7539H80.3086V20.416H77.3691V22.7539ZM89.6875 21.1543C89.6875 22.8086 90.7949 24.4219 92.6406 25.0645L91.9297 26.0762C90.5898 25.5635 89.5918 24.5518 89.0723 23.2734C88.5391 24.6953 87.4932 25.8164 86.0508 26.3633L85.3535 25.3379C87.2539 24.6543 88.3887 22.959 88.4023 21.1133V19.6641H89.6875V21.1543ZM95.5801 18.9258V28.0586H94.2812V22.7812H91.6973V21.7148H94.2812V18.9258H95.5801ZM95.8535 29.8496V30.9023H87.582V27.0332H88.8945V29.8496H95.8535ZM100.803 28.332V25.7207H98.1914V24.4082H100.803V21.7969H102.115V24.4082H104.74V25.7207H102.115V28.332H100.803ZM113.066 19.8281C114.898 19.8281 116.197 21.4961 116.211 24.1211C116.197 26.7598 114.898 28.4277 113.066 28.4277C111.234 28.4277 109.922 26.7598 109.936 24.1211C109.922 21.4961 111.234 19.8281 113.066 19.8281ZM113.066 20.9902C111.945 20.9902 111.18 22.1934 111.18 24.1211C111.18 26.0625 111.945 27.2656 113.066 27.2656C114.201 27.2656 114.967 26.0625 114.967 24.1211C114.967 22.1934 114.201 20.9902 113.066 20.9902ZM119.328 18.9121V23.7109H121.297V24.8047H119.328V31.1621H118.029V18.9121H119.328ZM132.029 18.9121V31.1895H130.73V18.9121H132.029ZM125.48 19.8281C127.299 19.8281 128.639 21.4961 128.639 24.1211C128.639 26.7598 127.299 28.4277 125.48 28.4277C123.635 28.4277 122.309 26.7598 122.309 24.1211C122.309 21.4961 123.635 19.8281 125.48 19.8281ZM125.48 20.9902C124.346 20.9902 123.566 22.1934 123.566 24.1211C123.566 26.0625 124.346 27.2656 125.48 27.2656C126.602 27.2656 127.381 26.0625 127.381 24.1211C127.381 22.1934 126.602 20.9902 125.48 20.9902ZM143.801 19.459V20.5391C143.801 21.7012 143.801 22.9316 143.459 24.5996L142.174 24.4902C142.311 23.8271 142.399 23.2393 142.447 22.6855L135.16 23.0273L134.982 21.9336L142.502 21.7285C142.516 21.3115 142.516 20.9219 142.516 20.5391V20.5117H135.297V19.459H143.801ZM145.141 25.3516V26.3906H133.998V25.3516H138.414V23.6289H139.727V25.3516H145.141ZM144.061 29.918V30.9707H135.379V27.334H136.678V29.918H144.061ZM179.799 19.459V20.4297C179.799 21.3799 179.799 22.4531 179.525 23.834H181.166V24.8867H170.023V23.834H178.227C178.329 23.3281 178.397 22.8701 178.445 22.4395L171.268 22.7402L171.104 21.7285L178.5 21.5234C178.514 21.1611 178.514 20.8262 178.514 20.498H171.418V19.459H179.799ZM179.881 25.9121V28.8789H172.621V29.9863H180.318V31.0117H171.322V27.9082H178.596V26.9102H171.295V25.9121H179.881ZM192.268 18.9258V26.4043H190.969V18.9258H192.268ZM192.268 27.0332V31.1621H190.969V28.0996H183.969V27.0332H192.268ZM188.357 19.6367V23.1367H184.023V24.709C186.163 24.7021 187.742 24.627 189.602 24.3535L189.766 25.4062C187.77 25.7207 186.088 25.7754 183.777 25.7754H182.752V22.125H187.072V20.6895H182.725V19.6367H188.357ZM8.33533 47.1367C6.28455 47.1367 4.82166 46.0293 4.76697 44.416H6.29822C6.35291 45.291 7.21424 45.8379 8.32166 45.8379C9.51111 45.8379 10.3861 45.1816 10.3861 44.2246C10.3861 43.2539 9.5658 42.543 8.1576 42.543H7.30994V41.3125H8.1576C9.27869 41.3125 10.0717 40.6836 10.0717 39.7402C10.0717 38.8379 9.40174 38.2227 8.349 38.2227C7.35096 38.2227 6.47596 38.7695 6.43494 39.6719H4.98572C5.02674 38.0586 6.51697 36.9648 8.36268 36.9648C10.3041 36.9648 11.5346 38.1953 11.5209 39.6582C11.5346 40.7793 10.8373 41.5996 9.77088 41.8594V41.9277C11.1244 42.1191 11.9037 43.0215 11.9037 44.2793C11.9037 45.9336 10.3861 47.1367 8.33533 47.1367ZM14.4877 47.0957C13.9545 47.0957 13.5033 46.6582 13.517 46.125C13.5033 45.5918 13.9545 45.1543 14.4877 45.1543C15.0072 45.1543 15.4584 45.5918 15.4584 46.125C15.4584 46.6582 15.0072 47.0957 14.4877 47.0957ZM21.4785 40.8613L22.5723 37.0879H23.7344L23.0098 40.8613H21.4785ZM24.2266 40.8613L25.3203 37.0879H26.4824L25.7578 40.8613H24.2266ZM33.4004 36.6504C36.0254 36.6641 37.9258 37.9492 37.9258 39.9043C37.9258 41.7432 36.333 42.9531 34.043 43.1445V45.5508H39.0332V46.6309H27.8223V45.5508H32.7578V43.1445C30.4814 42.9531 28.8887 41.7432 28.8887 39.9043C28.8887 37.9492 30.7891 36.6641 33.4004 36.6504ZM33.4004 37.7168C31.5137 37.7031 30.1465 38.5781 30.1465 39.9043C30.1465 41.2852 31.5137 42.1328 33.4004 42.1465C35.3008 42.1328 36.668 41.2852 36.668 39.9043C36.668 38.5781 35.3008 37.7031 33.4004 37.7168ZM50.0391 36.5V37.5391H48.2617V40.123H49.9844V41.1621H41.002V40.123H42.7383V37.5391H40.9473V36.5H50.0391ZM51.0918 42.3789V43.4316H39.9219V42.3789H51.0918ZM49.834 46.8496V47.9023H41.3301V44.457H42.6426V46.8496H49.834ZM44.0234 40.123H46.9629V37.5391H44.0234V40.123ZM63.2324 45.5371V46.6309H52.0215V45.5371H63.2324ZM62.207 37.0879V38.1543H60.334V42.2422H62.166V43.2812H53.0059V42.2422H54.8379V38.1543H52.9785V37.0879H62.207ZM56.123 42.2422H59.0625V38.1543H56.123V42.2422ZM75.332 45.6055V46.6992H64.1211V45.6055H69.0566V43.459H65.4883V39.5625H72.6797V37.8398H65.4609V36.7734H73.9648V40.6016H66.7734V42.3926H74.252V43.459H70.3418V45.6055H75.332ZM86.4062 35.9121V42.2422H85.0938V35.9121H86.4062ZM86.4062 42.8027V45.8379H79.584V47H86.8301V48.0391H78.3125V44.8945H85.1211V43.8281H78.2715V42.8027H86.4062ZM83.4121 36.7188V37.7441H82.2363V40.6426C82.8311 40.6016 83.4189 40.5469 83.9727 40.4785L84.0273 41.4219C81.5801 41.791 78.7227 41.873 76.5762 41.873L76.4258 40.834L77.916 40.8203V37.7441H76.7539V36.7188H83.4121ZM79.1602 40.793C79.7617 40.7725 80.377 40.752 80.9922 40.7109V37.7441H79.1602V40.793ZM93.748 37.1152L92.6543 40.8887H91.4922L92.2168 37.1152H93.748ZM91 37.1152L89.9062 40.8887H88.7441L89.4688 37.1152H91ZM100.27 36.1172C103.031 36.1172 104.645 36.8555 104.645 38.2227C104.645 39.5898 103.031 40.3418 100.27 40.3418C97.5078 40.3418 95.8945 39.5898 95.8945 38.2227C95.8945 36.8555 97.5078 36.1172 100.27 36.1172ZM100.27 37.0742C98.3145 37.0742 97.2344 37.498 97.248 38.2227C97.2344 38.9746 98.3145 39.3711 100.27 39.3711C102.225 39.3711 103.305 38.9746 103.305 38.2227C103.305 37.498 102.225 37.0742 100.27 37.0742ZM105.861 41.0938V42.1328H94.6914V41.0938H105.861ZM104.453 43.0762V45.9473H97.3164V47.041H104.795V48.0391H96.0449V45.0039H103.168V44.0469H96.0312V43.0762H104.453ZM114.529 38.1543C114.529 39.8086 115.637 41.4219 117.482 42.0645L116.771 43.0762C115.432 42.5635 114.434 41.5518 113.914 40.2734C113.381 41.6953 112.335 42.8164 110.893 43.3633L110.195 42.3379C112.096 41.6543 113.23 39.959 113.244 38.1133V36.6641H114.529V38.1543ZM120.422 35.9258V45.0586H119.123V39.7812H116.539V38.7148H119.123V35.9258H120.422ZM120.695 46.8496V47.9023H112.424V44.0332H113.736V46.8496H120.695ZM127.6 36.7871V37.8398H124.059V39.207H127.463V40.2051H124.059V41.6953C125.699 41.6816 126.779 41.6201 128.037 41.3809L128.16 42.4473C126.725 42.7207 125.562 42.7754 123.607 42.7617H122.814V36.7871H127.6ZM132.754 35.9258V43.3633H131.523V40.0957H130.02V43.2676H128.803V36.1445H130.02V39.043H131.523V35.9258H132.754ZM132.754 43.9512V48.1621H131.469V45.0039H124.428V43.9512H132.754ZM4.49354 62.0723V60.8555L8.86854 54.1016H10.7279V60.8008H12.0814V62.0723H10.7279V64H9.30604V62.0723H4.49354ZM6.07947 60.8008H9.30604V55.8926H9.19666L6.07947 60.7188V60.8008ZM14.4877 64.0957C13.9545 64.0957 13.5033 63.6582 13.517 63.125C13.5033 62.5918 13.9545 62.1543 14.4877 62.1543C15.0072 62.1543 15.4584 62.5918 15.4584 63.125C15.4584 63.6582 15.0072 64.0957 14.4877 64.0957ZM21.4785 57.8613L22.5723 54.0879H23.7344L23.0098 57.8613H21.4785ZM24.2266 57.8613L25.3203 54.0879H26.4824L25.7578 57.8613H24.2266ZM31.541 53.459C33.332 53.459 34.5898 54.4434 34.6035 55.9062C34.5898 57.1504 33.6465 58.0664 32.2246 58.2852V59.3652C33.3115 59.3105 34.3984 59.2148 35.4102 59.0645L35.5059 60.0215C32.9355 60.4863 30.0508 60.5273 27.9453 60.5273L27.8086 59.4746C28.7246 59.4814 29.7979 59.4746 30.9258 59.4336V58.2988C29.4629 58.0938 28.4785 57.1709 28.4922 55.9062C28.4785 54.4434 29.75 53.459 31.541 53.459ZM31.541 54.457C30.4609 54.457 29.6953 55.0176 29.709 55.9062C29.6953 56.7676 30.4609 57.3418 31.541 57.3418C32.6348 57.3418 33.373 56.7676 33.373 55.9062C33.373 55.0176 32.6348 54.457 31.541 54.457ZM37.4609 52.9258V56.9727H39.2109V58.0664H37.4609V62.291H36.1621V52.9258H37.4609ZM37.8984 63.8359V64.9023H29.5449V61.4707H30.8438V63.8359H37.8984ZM51.1328 62.6055V63.6992H39.9219V62.6055H42.9844V60.4453H41.2891V56.5488H48.4805V54.8398H41.2617V53.7734H49.7656V57.6016H42.5742V59.3789H50.0527V60.4453H48.1934V62.6055H51.1328ZM44.2422 62.6055H46.9219V60.4453H44.2422V62.6055ZM57.4492 54.1152L56.3555 57.8887H55.1934L55.918 54.1152H57.4492ZM54.7012 54.1152L53.6074 57.8887H52.4453L53.1699 54.1152H54.7012ZM72.0234 52.9121V65.1895H70.7383V58.4492H68.0312V62.1543H62.2891V53.8555H63.6016V56.9863H66.7598V53.8555H68.0312V57.3828H70.7383V52.9121H72.0234ZM63.6016 61.0879H66.7598V58.0117H63.6016V61.0879ZM85.0801 59.6387V60.6777H73.8828V59.6387H85.0801ZM83.918 63.8496V64.9023H75.3184V61.4844H76.6035V63.8496H83.918ZM83.7949 57.6152V58.6133H75.3457V53.3496H83.7129V54.3613H76.6582V55.4824H83.3984V56.4668H76.6582V57.6152H83.7949ZM91.5879 53.1172C94.3496 53.1172 95.9629 53.8555 95.9629 55.2227C95.9629 56.5898 94.3496 57.3418 91.5879 57.3418C88.8262 57.3418 87.2129 56.5898 87.2129 55.2227C87.2129 53.8555 88.8262 53.1172 91.5879 53.1172ZM91.5879 54.0742C89.6328 54.0742 88.5527 54.498 88.5664 55.2227C88.5527 55.9746 89.6328 56.3711 91.5879 56.3711C93.543 56.3711 94.623 55.9746 94.623 55.2227C94.623 54.498 93.543 54.0742 91.5879 54.0742ZM97.1797 58.0938V59.1328H86.0098V58.0938H97.1797ZM95.7715 60.0762V62.9473H88.6348V64.041H96.1133V65.0391H87.3633V62.0039H94.4863V61.0469H87.3496V60.0762H95.7715ZM111.467 56.9453V57.998H102.949V53.5137H104.248V56.9453H111.467ZM112.738 59.6934V60.7598H107.721V65.1621H106.436V60.7598H101.527V59.6934H112.738ZM124.838 62.5918V63.6582H113.627V62.5918H124.838ZM123.471 53.8145V57.6426H116.279V59.4336H123.758V60.4727H114.994V56.5898H122.186V54.8672H114.967V53.8145H123.471ZM135.639 54.0879V55.291C135.639 56.8086 135.639 58.5039 135.174 61.0059L133.861 60.8691C134.34 58.5039 134.34 56.7676 134.34 55.291V55.1406H126.902V54.0879H135.639ZM136.896 62.4277V63.5078H125.727V62.4277H129.979V58.1074H131.264V62.4277H136.896ZM140.027 63.0566L138.934 66.8301H137.771L138.496 63.0566H140.027ZM148.49 56.6582C148.49 58.5586 149.379 60.541 151.088 61.4297L150.35 62.4004C149.167 61.7715 148.34 60.6025 147.902 59.2148C147.458 60.6914 146.638 61.9697 145.455 62.6602L144.689 61.7031C146.371 60.7188 147.26 58.627 147.273 56.6582V56.207H145.004V55.127H147.273V53.3496H148.49V55.127H150.719V56.207H148.49V56.6582ZM155.408 52.9121V65.1621H154.164V58.873H152.701V64.5605H151.471V53.1445H152.701V57.7793H154.164V52.9121H155.408ZM163.516 53.8008V54.8398H158.936V56.1934H163.174V57.2188H158.936V58.6133C161.39 58.627 162.818 58.5859 164.473 58.2988L164.609 59.3516C162.832 59.6387 161.314 59.6797 158.635 59.6797H157.623V53.8008H163.516ZM167.084 52.9258V60.459H165.785V52.9258H167.084ZM162.982 60.623C165.553 60.623 167.152 61.457 167.152 62.8789C167.152 64.3145 165.553 65.1484 162.982 65.1348C160.385 65.1484 158.812 64.3145 158.812 62.8789C158.812 61.457 160.385 60.623 162.982 60.623ZM162.982 61.6484C161.15 61.6484 160.111 62.0996 160.111 62.8789C160.111 63.6855 161.15 64.1367 162.982 64.1367C164.773 64.1367 165.854 63.6855 165.854 62.8789C165.854 62.0996 164.773 61.6484 162.982 61.6484ZM177.734 53.6367V54.6895H174.193V55.9336H177.598V56.9316H174.193V58.2852C175.834 58.2715 176.914 58.21 178.172 57.9707L178.295 59.0371C176.859 59.2832 175.697 59.3379 173.742 59.3379H172.949V53.6367H177.734ZM182.889 52.9258V59.8711H181.658V56.877H180.154V59.7754H178.938V53.1445H180.154V55.8105H181.658V52.9258H182.889ZM175.998 60.3496V61.5801H181.617V60.3496H182.889V65.0117H174.713V60.3496H175.998ZM175.998 63.959H181.617V62.6191H175.998V63.959ZM190.121 53.6504C192.691 53.6504 194.646 55.0039 194.646 57.0684C194.646 59.1328 192.691 60.5 190.121 60.4863C187.551 60.5 185.609 59.1328 185.609 57.0684C185.609 55.0039 187.551 53.6504 190.121 53.6504ZM190.121 54.7031C188.248 54.6895 186.84 55.6465 186.854 57.0684C186.84 58.5039 188.248 59.4199 190.121 59.4199C191.994 59.4199 193.389 58.5039 193.389 57.0684C193.389 55.6465 191.994 54.6895 190.121 54.7031ZM195.754 62.4961V63.5762H184.543V62.4961H195.754ZM207.854 62.6055V63.6992H196.643V62.6055H201.578V60.459H198.01V56.5625H205.201V54.8398H197.982V53.7734H206.486V57.6016H199.295V59.3926H206.773V60.459H202.863V62.6055H207.854ZM222.305 52.9121V65.1895H221.006V52.9121H222.305ZM215.756 53.8281C217.574 53.8281 218.914 55.4961 218.914 58.1211C218.914 60.7598 217.574 62.4277 215.756 62.4277C213.91 62.4277 212.584 60.7598 212.584 58.1211C212.584 55.4961 213.91 53.8281 215.756 53.8281ZM215.756 54.9902C214.621 54.9902 213.842 56.1934 213.842 58.1211C213.842 60.0625 214.621 61.2656 215.756 61.2656C216.877 61.2656 217.656 60.0625 217.656 58.1211C217.656 56.1934 216.877 54.9902 215.756 54.9902ZM235.443 58.873V59.9121H224.26V58.873H229.223V57.5742H225.654V53.4727H234.062V54.498H226.939V56.5352H234.145V57.5742H230.48V58.873H235.443ZM229.838 60.7051C232.477 60.7051 234.062 61.5117 234.062 62.9336C234.062 64.3555 232.477 65.1484 229.838 65.1621C227.186 65.1484 225.586 64.3555 225.586 62.9336C225.586 61.5117 227.186 60.7051 229.838 60.7051ZM229.838 61.7168C227.965 61.7168 226.898 62.1543 226.898 62.9336C226.898 63.7129 227.965 64.1504 229.838 64.1367C231.684 64.1504 232.764 63.7129 232.764 62.9336C232.764 62.1543 231.684 61.7168 229.838 61.7168ZM8.32166 81.1367C6.44861 81.1367 5.04041 79.9883 4.97205 78.416H6.43494C6.51697 79.2637 7.32361 79.8789 8.32166 79.8789C9.52479 79.8789 10.3861 79.0039 10.3861 77.8281C10.3861 76.625 9.49744 75.75 8.2533 75.7363C7.46033 75.7363 6.85877 75.9961 6.51697 76.6113H5.0951L5.73768 71.1016H11.3431V72.3867H6.98182L6.65369 75.1621H6.7494C7.15955 74.7656 7.85682 74.4922 8.60877 74.4922C10.4681 74.4922 11.849 75.873 11.849 77.7871C11.849 79.7422 10.3861 81.1367 8.32166 81.1367ZM14.4877 81.0957C13.9545 81.0957 13.5033 80.6582 13.517 80.125C13.5033 79.5918 13.9545 79.1543 14.4877 79.1543C15.0072 79.1543 15.4584 79.5918 15.4584 80.125C15.4584 80.6582 15.0072 81.0957 14.4877 81.0957ZM21.4785 74.8613L22.5723 71.0879H23.7344L23.0098 74.8613H21.4785ZM24.2266 74.8613L25.3203 71.0879H26.4824L25.7578 74.8613H24.2266ZM37.9805 69.9258V77.4316H36.6816V69.9258H37.9805ZM34.0703 70.6777V74.1504H29.7363V75.6816C31.876 75.6611 33.4551 75.5996 35.3145 75.3125L35.4785 76.3652C33.4824 76.6934 31.8008 76.748 29.4902 76.748H28.4648V73.1523H32.7852V71.7441H28.4375V70.6777H34.0703ZM33.8926 77.6641C36.4766 77.6641 38.0625 78.4707 38.0625 79.9062C38.0625 81.3145 36.4766 82.1484 33.8926 82.1348C31.2949 82.1484 29.7227 81.3145 29.7227 79.9062C29.7227 78.4707 31.2949 77.6641 33.8926 77.6641ZM33.8926 78.6895C32.0742 78.6895 31.0078 79.127 31.0078 79.9062C31.0078 80.6855 32.0742 81.1094 33.8926 81.1094C35.7109 81.1094 36.7637 80.6855 36.7637 79.9062C36.7637 79.127 35.7109 78.6895 33.8926 78.6895ZM49.7793 71.1016V72.5918C49.7793 74.3828 49.7793 76.0645 49.2461 78.6074L47.9609 78.4844C48.2207 77.3633 48.3574 76.3789 48.4258 75.4629L41.0703 75.8594L40.9062 74.793L48.4941 74.5059C48.5146 73.8496 48.5146 73.2207 48.5215 72.5918V72.168H41.248V71.1016H49.7793ZM51.0918 79.4551V80.5215H39.9219V79.4551H51.0918ZM66.6094 76.1602V77.2129H55.4395V76.1602H60.375V74.834H56.9023V70.1992H58.1875V71.5254H63.8613V70.1992H65.1602V74.834H61.6602V76.1602H66.6094ZM65.2422 78.3066V82.1621H63.9297V79.3457H56.6836V78.3066H65.2422ZM58.1875 73.7949H63.8613V72.4961H58.1875V73.7949ZM71.791 73.0293C71.7773 75.2031 73.0352 77.418 74.8672 78.3066L74.0605 79.3457C72.7275 78.6553 71.6953 77.2812 71.1621 75.6406C70.6084 77.3906 69.5352 78.8535 68.1406 79.5781L67.334 78.5254C69.2207 77.623 70.4922 75.2715 70.4922 73.0293V70.9375H71.791V73.0293ZM77.082 69.9121V74.793H79.0508V75.9004H77.082V82.1621H75.7832V69.9121H77.082ZM85.0664 71.1152L83.9727 74.8887H82.8105L83.5352 71.1152H85.0664ZM82.3184 71.1152L81.2246 74.8887H80.0625L80.7871 71.1152H82.3184ZM97.207 75.5312V76.5293H85.9961V75.5312H97.207ZM95.8262 77.3906V80.084H88.6348V81.0957H96.209V82.0117H87.3359V79.2227H94.541V78.3203H87.3223V77.3906H95.8262ZM95.7988 70.2266V72.8789H88.7168V73.8086H96.0039V74.7246H87.4316V72.0176H94.5V71.1426H87.4043V70.2266H95.7988ZM112.697 76.3516V77.377H101.5V76.3516H106.449V75.2852H102.963V70.2402H111.33V71.2656H104.275V72.2637H111.016V73.2344H104.275V74.2734H111.412V75.2852H107.748V76.3516H112.697ZM107.105 78.1836C109.799 78.1699 111.33 78.8809 111.33 80.166C111.33 81.4648 109.799 82.1484 107.105 82.1348C104.385 82.1484 102.854 81.4648 102.854 80.166C102.854 78.8809 104.385 78.1699 107.105 78.1836ZM107.105 79.1543C105.178 79.1543 104.139 79.5098 104.152 80.166C104.139 80.8223 105.178 81.1641 107.105 81.1504C109.006 81.1641 110.031 80.8223 110.031 80.166C110.031 79.5098 109.006 79.1543 107.105 79.1543ZM119.684 71.9355V72.9883H113.6V71.9355H116.006V70.2676H117.291V71.9355H119.684ZM116.648 73.7266C118.207 73.7266 119.301 74.8887 119.314 76.543C119.301 78.2109 118.207 79.3867 116.648 79.3867C115.117 79.3867 113.982 78.2109 113.996 76.543C113.982 74.8887 115.117 73.7266 116.648 73.7266ZM116.648 74.8066C115.76 74.8066 115.145 75.5312 115.145 76.543C115.145 77.582 115.76 78.2793 116.648 78.2793C117.523 78.2793 118.166 77.582 118.166 76.543C118.166 75.5312 117.523 74.8066 116.648 74.8066ZM124.113 69.9121V82.1621H122.883V76.0781H121.475V81.5879H120.244V70.1855H121.475V75.0117H122.883V69.9121H124.113ZM136.062 71.1016H137.566V77.6094C137.566 79.6875 136.008 81.1641 133.643 81.1641C131.25 81.1641 129.705 79.6875 129.705 77.6094V71.1016H131.209V77.4863C131.209 78.8262 132.139 79.7969 133.643 79.7969C135.133 79.7969 136.062 78.8262 136.062 77.4863V71.1016ZM139.59 81V71.1016H143.117C145.414 71.1016 146.549 72.3867 146.549 74.2051C146.549 75.5381 145.947 76.5498 144.744 76.9941L146.932 81H145.223L143.213 77.2676H143.117H141.094V81H139.59ZM141.094 75.9688H142.967C144.43 75.9688 145.031 75.3262 145.031 74.2051C145.031 73.084 144.43 72.3867 142.967 72.3867H141.094V75.9688ZM148.217 81V71.1016H149.721V79.7012H154.191V81H148.217ZM160.754 70.1172C163.516 70.1172 165.129 70.8555 165.129 72.2227C165.129 73.5898 163.516 74.3418 160.754 74.3418C157.992 74.3418 156.379 73.5898 156.379 72.2227C156.379 70.8555 157.992 70.1172 160.754 70.1172ZM160.754 71.0742C158.799 71.0742 157.719 71.498 157.732 72.2227C157.719 72.9746 158.799 73.3711 160.754 73.3711C162.709 73.3711 163.789 72.9746 163.789 72.2227C163.789 71.498 162.709 71.0742 160.754 71.0742ZM166.346 75.0938V76.1328H155.176V75.0938H166.346ZM164.938 77.0762V79.9473H157.801V81.041H165.279V82.0391H156.529V79.0039H163.652V78.0469H156.516V77.0762H164.938ZM181.863 76.1602V77.2129H170.693V76.1602H175.629V74.834H172.156V70.1992H173.441V71.5254H179.115V70.1992H180.414V74.834H176.914V76.1602H181.863ZM180.496 78.3066V82.1621H179.184V79.3457H171.938V78.3066H180.496ZM173.441 73.7949H179.115V72.4961H173.441V73.7949ZM187.045 73.0293C187.031 75.2031 188.289 77.418 190.121 78.3066L189.314 79.3457C187.981 78.6553 186.949 77.2812 186.416 75.6406C185.862 77.3906 184.789 78.8535 183.395 79.5781L182.588 78.5254C184.475 77.623 185.746 75.2715 185.746 73.0293V70.9375H187.045V73.0293ZM192.336 69.9121V74.793H194.305V75.9004H192.336V82.1621H191.037V69.9121H192.336ZM204.436 69.9121V74.875H206.404V75.9551H204.436V82.1621H203.15V69.9121H204.436ZM202.084 71.8262V72.8926H194.824V71.8262H197.846V70.0762H199.145V71.8262H202.084ZM198.502 73.7949C200.252 73.7949 201.537 74.9707 201.551 76.6387C201.537 78.3203 200.252 79.4824 198.502 79.4961C196.738 79.4824 195.453 78.3203 195.453 76.6387C195.453 74.9707 196.738 73.7949 198.502 73.7949ZM198.502 74.8613C197.463 74.8613 196.684 75.5859 196.697 76.6387C196.684 77.7051 197.463 78.416 198.502 78.4023C199.541 78.416 200.307 77.7051 200.307 76.6387C200.307 75.5859 199.541 74.8613 198.502 74.8613ZM210.314 70.8281C211.429 70.8281 212.352 71.4707 212.898 72.5781H215.92V69.9121H217.205V82.1895H215.92V77.4863H212.98C212.454 78.7168 211.49 79.4277 210.314 79.4277C208.482 79.4277 207.197 77.7598 207.211 75.1211C207.197 72.4961 208.482 70.8281 210.314 70.8281ZM210.314 71.9902C209.207 71.9902 208.441 73.1934 208.441 75.1211C208.441 77.0625 209.207 78.2656 210.314 78.2656C211.422 78.2656 212.188 77.0625 212.188 75.1211C212.188 73.1934 211.422 71.9902 210.314 71.9902ZM213.268 73.6445C213.356 74.0957 213.418 74.5879 213.418 75.1211C213.418 75.5859 213.377 76.0166 213.295 76.4199H215.92V73.6445H213.268ZM225.422 70.5957C227.062 70.582 228.238 71.7305 228.238 73.3848C228.238 75.0254 227.062 76.1738 225.422 76.1738C223.781 76.1738 222.605 75.0254 222.619 73.3848C222.605 71.7305 223.781 70.582 225.422 70.5957ZM225.422 71.6484C224.465 71.6484 223.781 72.332 223.781 73.3848C223.781 74.4102 224.465 75.1074 225.422 75.1074C226.365 75.1074 227.049 74.4102 227.062 73.3848C227.049 72.332 226.365 71.6484 225.422 71.6484ZM232.955 69.9258V76.584H231.725V73.7266H230.289V76.502H229.086V70.1445H230.289V72.6465H231.725V69.9258H232.955ZM226.064 77.1172V78.457H231.684V77.1172H232.955V82.0117H224.779V77.1172H226.064ZM226.064 80.959H231.684V79.5098H226.064V80.959ZM245.15 69.9121V82.1621H243.906V69.9121H245.15ZM242.662 70.1445V81.5605H241.418V75.6543H240.037C239.928 78.0469 238.902 79.5371 237.385 79.5234C235.785 79.5371 234.746 77.8555 234.746 75.2031C234.746 72.5508 235.785 70.8828 237.385 70.8965C238.875 70.8828 239.887 72.2979 240.037 74.6016H241.418V70.1445H242.662ZM237.385 72.1133C236.496 72.1133 235.949 73.248 235.949 75.2031C235.949 77.1582 236.496 78.293 237.385 78.293C238.287 78.293 238.848 77.1582 238.848 75.2031C238.848 73.248 238.287 72.1133 237.385 72.1133ZM261.311 75.668V76.7344H250.127V75.668H261.311ZM260.012 73.5488V74.6016H251.521V70.3496H259.93V71.416H252.807V73.5488H260.012ZM255.705 77.6914C258.344 77.6914 259.93 78.498 259.93 79.9199C259.93 81.3418 258.344 82.1484 255.705 82.1348C253.053 82.1484 251.453 81.3418 251.453 79.9199C251.453 78.498 253.053 77.6914 255.705 77.6914ZM255.705 78.6895C253.832 78.7031 252.766 79.1406 252.766 79.9199C252.766 80.6992 253.832 81.1367 255.705 81.1367C257.551 81.1367 258.631 80.6992 258.631 79.9199C258.631 79.1406 257.551 78.7031 255.705 78.6895ZM273.424 76.5977V77.6504H262.213V76.5977H267.176V75.4355H263.648V72.3184H270.717V71.2246H263.621V70.1992H272.016V73.2754H264.934V74.4238H272.262V75.4355H268.461V76.5977H273.424ZM272.084 78.5117V82.0664H270.771V79.5508H263.471V78.5117H272.084Z" fill="black"/>
<g clip-path="url(#clip0_3865_2245)">
<path d="M156.194 18.8992C156.121 18.9047 155.917 18.9265 155.745 18.9511C154.433 19.1257 153.199 19.6769 152.219 20.5256C151.454 21.2644 151.105 21.864 151.127 21.8886C151.132 21.8913 151.273 21.836 151.423 21.8169C151.573 21.7951 151.656 21.7433 151.801 21.7351L152.148 21.6941L152.291 21.4895L152.475 21.2951L152.699 21.0802L152.919 20.8912C153.608 20.3434 154.512 19.928 155.418 19.7424C157.213 19.3768 159.061 19.7861 160.482 20.8612C160.73 21.0495 161.195 21.4985 161.372 21.7277L161.479 21.5918C161.591 21.4717 161.735 21.3967 161.857 21.3667C161.898 21.3558 161.784 21.1027 161.939 21.2746C161.939 21.2664 161.991 21.3224 161.906 21.2159C161.427 20.6156 160.602 19.9744 159.826 19.5951C158.732 19.063 157.436 18.8147 156.194 18.8992Z" fill="black"/>
<path d="M152.274 21.6549C150.945 21.7695 149.674 22.3508 148.846 23.2185C147.643 24.4819 147.384 26.1683 148.166 27.6609C148.416 28.1384 148.743 28.5368 149.219 28.9406L149.456 29.1426V29.8575C149.459 30.627 149.47 30.6952 149.603 30.8726C149.644 30.9244 149.734 31.0008 149.805 31.0418C149.916 31.11 149.96 31.1182 150.164 31.1182C150.464 31.1182 150.488 31.1045 151.193 30.5533C151.504 30.3105 151.776 30.1113 151.798 30.114C151.819 30.114 151.985 30.1304 152.165 30.1495C152.609 30.1959 153.401 30.1713 153.799 30.0976C155.247 29.8247 156.393 29.1125 157.112 28.0374C157.545 27.388 157.749 26.7795 157.779 26.0427C157.812 25.2432 157.591 24.4928 157.115 23.7833C156.331 22.6127 154.877 21.8132 153.268 21.6659C152.974 21.6386 152.519 21.6331 152.274 21.6549ZM153.363 22.3999C153.951 22.4681 154.743 22.7273 155.223 23.0138C156.197 23.5951 156.832 24.4355 157.011 25.3824C157.063 25.6634 157.063 26.1819 157.009 26.4657C156.815 27.4862 156.037 28.4276 154.942 28.9625C154.536 29.1617 154.193 29.279 153.818 29.3554C153.178 29.4837 152.593 29.4946 151.926 29.3963C151.697 29.3636 151.588 29.3581 151.544 29.3772C151.512 29.3936 151.199 29.6283 150.847 29.8984C150.496 30.1713 150.202 30.3896 150.191 30.3814C150.18 30.376 150.172 30.0185 150.169 29.5901C150.167 29.1125 150.153 28.7906 150.137 28.7578C150.12 28.7278 150.05 28.665 149.979 28.6186C149.404 28.2257 148.923 27.6445 148.672 27.0333C148.411 26.4029 148.381 25.6307 148.588 25.0085C149.04 23.6551 150.379 22.6427 152.029 22.4135C152.334 22.3699 153.036 22.3644 153.363 22.3999Z" fill="black"/>
<path d="M161.28 26.8578C161.106 27.0843 160.744 27.4418 160.45 27.6792C160.322 27.7829 160.202 27.8975 160.185 27.9357C160.161 27.9848 160.15 28.2631 160.15 29.0081C160.15 29.8976 160.145 30.0095 160.109 29.9959C160.085 29.9877 159.676 29.6848 159.2 29.3246C158.239 28.596 158.32 28.637 157.945 28.7079C157.833 28.7297 157.637 28.7543 157.509 28.7652L157.278 28.7843C156.839 28.7843 156.583 28.7379 156.277 28.6561C156.155 28.787 155.649 29.2127 155.573 29.27C155.496 29.3273 156.446 29.4431 156.589 29.461C156.804 29.4879 157.961 29.4774 158.056 29.4174C158.07 29.4092 158.193 29.4883 158.331 29.592C158.47 29.6957 158.854 29.9795 159.184 30.2251C159.513 30.4707 159.826 30.689 159.878 30.7081C160.008 30.7544 160.253 30.7517 160.398 30.7026C160.567 30.6453 160.695 30.5307 160.79 30.3588L160.872 30.2114L160.88 29.2373L160.888 28.2631L161.125 28.0585C161.392 27.8293 161.608 27.6173 161.809 27.3662C162.069 27.101 162.026 27.1061 161.824 27.0079C161.713 26.9506 161.609 26.8742 161.547 26.7978C161.49 26.7323 161.45 26.6806 161.442 26.6806C161.434 26.6833 161.356 26.7596 161.28 26.8578Z" fill="black"/>
<path d="M162.013 21.4817C162.013 21.6851 161.849 21.85 161.646 21.85C161.443 21.85 161.278 21.6851 161.278 21.4817C161.278 21.2782 161.443 21.1133 161.646 21.1133C161.849 21.1133 162.013 21.2782 162.013 21.4817Z" fill="black"/>
<path d="M162.054 26.9455C162.054 27.149 161.89 27.3139 161.687 27.3139C161.484 27.3139 161.319 27.149 161.319 26.9455C161.319 26.7421 161.484 26.5771 161.687 26.5771C161.89 26.5771 162.054 26.7421 162.054 26.9455Z" fill="black"/>
<path d="M163.913 23.9365C164.116 23.9365 164.28 24.1015 164.28 24.3049C164.28 24.5084 164.116 24.6733 163.913 24.6733L160.564 24.6733C160.361 24.6733 160.196 24.5084 160.196 24.3049C160.196 24.1015 160.361 23.9365 160.564 23.9365L163.913 23.9365Z" fill="black"/>
<path d="M162.605 25.9835C162.605 26.187 162.441 26.3519 162.238 26.3519C162.035 26.3519 161.87 26.187 161.87 25.9835L161.87 22.6272C161.87 22.4237 162.035 22.2588 162.238 22.2588C162.441 22.2588 162.605 22.4237 162.605 22.6272L162.605 25.9835Z" fill="black"/>
</g>
<g clip-path="url(#clip1_3865_2245)">
<path d="M154.235 1.99429C154.004 2.02311 153.687 2.08075 153.395 2.148C153.283 2.17443 152.762 2.33535 152.706 2.36417C152.68 2.37618 152.608 2.4074 152.542 2.43382C152.328 2.51789 151.879 2.74366 151.676 2.87096C151.384 3.0511 151.142 3.22644 151.142 3.25766C151.142 3.27207 151.24 3.3129 151.361 3.35133C152.43 3.68999 153.453 4.41055 154.114 5.29443C154.167 5.36648 154.219 5.43614 154.231 5.45055C154.343 5.59466 154.578 6.00057 154.714 6.2912C154.987 6.87244 155.127 7.37203 155.204 8.04455C155.277 8.68584 155.234 9.23346 155.059 9.94201C154.847 10.7995 154.385 11.6329 153.75 12.3006L153.516 12.548L153.602 12.5696C153.691 12.5913 153.864 12.6249 154.118 12.6681C154.725 12.7714 155.617 12.757 156.278 12.6369L156.442 12.6057L156.71 12.7906C156.857 12.8915 157.1 13.0548 157.247 13.1533C157.394 13.2518 157.653 13.4247 157.819 13.5376C158.244 13.821 158.272 13.833 158.508 13.833C158.737 13.833 158.825 13.7994 158.97 13.6529C159.155 13.4655 159.15 13.504 159.157 12.3415L159.164 11.3039L159.309 11.1766C159.904 10.6434 160.401 9.9252 160.738 9.10136C160.789 8.97647 160.882 8.67623 160.922 8.5009C160.943 8.40723 160.971 8.29434 160.983 8.2487C161.057 7.95328 161.071 6.90607 161.006 6.5554C160.791 5.42173 160.261 4.45858 159.393 3.62274C158.909 3.15918 158.095 2.64999 157.434 2.4002C157.375 2.37858 157.308 2.34976 157.282 2.33775C157.179 2.29212 156.649 2.1408 156.442 2.09757C155.97 1.99909 155.727 1.97507 155.122 1.96787C154.683 1.96066 154.427 1.96787 154.235 1.99429Z" fill="black"/>
<path d="M149.061 3.8628C148.361 3.95167 147.796 4.12941 147.212 4.44405C146.771 4.68424 146.444 4.92682 146.089 5.27989C145.339 6.02927 144.879 6.94678 144.73 7.98438C144.69 8.24858 144.693 9.00997 144.73 9.21172C144.842 9.79057 144.908 10.0211 145.09 10.4343C145.335 11.0011 145.578 11.3566 146.056 11.849L146.297 12.0963V12.9538C146.297 13.8017 146.297 13.8089 146.353 13.9314C146.418 14.0779 146.568 14.2124 146.705 14.2532C146.855 14.2964 147.065 14.2748 147.2 14.2028C147.294 14.1523 148.008 13.6744 148.554 13.2997L148.674 13.2156L148.835 13.242C149.367 13.3261 149.607 13.3333 150.126 13.2805C150.777 13.2156 151.298 13.0715 151.818 12.8121C152.876 12.2837 153.661 11.4671 154.125 10.4102C154.737 9.01717 154.595 7.37671 153.749 6.0629C153.292 5.35435 152.652 4.78031 151.863 4.3744C151.66 4.26872 151.319 4.12701 151.218 4.10539C151.176 4.09578 151.132 4.07897 151.118 4.06936C151.099 4.05495 150.927 4.00932 150.593 3.93486C150.2 3.84359 149.484 3.80996 149.061 3.8628ZM149.04 6.79546C149.101 6.82909 149.295 6.95158 149.47 7.06447C149.645 7.17736 149.89 7.33588 150.018 7.41754C150.144 7.4968 150.273 7.58087 150.301 7.60008C150.331 7.6193 150.502 7.72738 150.679 7.83786C151.277 8.21496 151.356 8.27981 151.424 8.43833C151.508 8.64008 151.429 8.85145 151.207 9.01717C151.127 9.07722 150.985 9.17329 150.892 9.23094C150.798 9.28858 150.569 9.4351 150.383 9.55759C150.196 9.67768 150.011 9.79778 149.969 9.8242C149.927 9.84821 149.736 9.97311 149.544 10.098C148.996 10.4535 148.991 10.4559 148.823 10.4583C148.662 10.4583 148.582 10.4271 148.489 10.3214C148.344 10.1629 148.351 10.2397 148.351 8.60886C148.351 7.13893 148.351 7.11731 148.4 7.00923C148.515 6.76184 148.802 6.66576 149.04 6.79546Z" fill="black"/>
</g>
<defs>
<clipPath id="clip0_3865_2245">
<rect width="18" height="14" fill="white" transform="translate(147 18)"/>
</clipPath>
<clipPath id="clip1_3865_2245">
<rect width="18" height="14" fill="white" transform="translate(144 1)"/>
</clipPath>
</defs>
</svg>
